<?xml version="1.0" encoding="UTF-8"?>
<svg id="Layer_2" xmlns="http://www.w3.org/2000/svg" viewBox="0 0 708.66 708.66">
  <defs>
    <style>
      .cls-1 {
        fill: #fff;
      }

      .cls-2, .cls-3 {
        fill: #0e2432;
      }

      .cls-4 {
        fill: #efefef;
      }

      .cls-3 {
        opacity: .25;
      }

      .cls-5 {
        fill: #00ccbd;
      }

      .cls-6 {
        fill: #007d73;
      }

      .cls-7 {
        fill: #00b8aa;
      }
    </style>
  </defs>
  <g id="Layer_1-2" data-name="Layer_1">
    <g>
      <g>
        <rect class="cls-5" y="0" width="708.66" height="708.66"/>
        <g>
          <g>
            <path class="cls-6" d="M571.14,88.41c-.36,4.46-2.33,7.71-4.4,11.15-2.31,3.81-5.47,9.02-8,17.85l-.02.07c-.34,1.17-.69,2.37-1.04,3.59-3.27,11.29-7.33,25.34-13.65,37.13-8.78,16.36-20.49,25.53-34.82,27.28-1.56.19-3.2.3-4.79.3-17.93,0-30.28-12.82-33.27-23.95-5.36-2.23-9.86-5.87-13.04-10.55-.16.03-.31.06-.47.08-2.74.45-5.53.68-8.11.68-3.29,0-6.11-.37-8.53-1-2.55,2.6-5.89,4.23-9.33,4.87-2.12.39-5.39.85-8.97.85-5.22,0-9.43-1.01-12.74-2.68-5.35,4.83-12.04,8.52-20.25,10.3-2.46.54-5,.82-7.51.82-3.33,0-6.28-.48-8.76-1.12-4.08,2.92-9.97,6.3-17.67,8.19-2.66.66-5.3.99-7.85.99-5.33,0-10.2-1.48-14.21-4.14-6,7.82-14.83,13.92-25.69,17.04-4.59,1.31-9.3,1.98-14.02,1.98-15.99,0-28.78-7.58-33.36-19.78-.07-.19-.13-.38-.19-.57-.08.03-.16.06-.25.08-8.7,2.78-17.45,5.68-26.1,8.63.6.85,1.12,1.72,1.53,2.58,1.59,3.39,2.8,8.96-.66,15.96l-.08.17-.09.17c-3.97,7.55-12.79,17.31-25.59,22.08-3.44,1.28-6.92,2.24-10.41,2.89-3.49.65-7,.97-10.5.97-18.23,0-34.02-9.03-43.32-24.78l-.05-.08c-.31-.54-.62-1.08-.91-1.62-6.41-11.83-8.3-25.8-5.31-39.31.86-3.89,1.57-6.26,1.95-7.42l.07-.27.24-.62c7.01-18.41,23.56-34.96,41.17-41.19,5.86-2.08,11.68-3.14,17.27-3.14,13.72,0,24.78,6.65,29.56,17.78l.03.07c.68,1.6.97,2.57,1.14,3.16.5,1.84,1.62,5.94,1.14,10.67,6.41-2.13,12.86-4.23,19.27-6.26,2.1-.66,3.95-.97,5.84-.97,5.71,0,10.7,2.9,13.61,7.73,1.11-1.06,2.26-2.07,3.48-2.99-2.43-3-4.49-6.38-5.83-10.29l-.05-.16c-1.73-5.21-2.21-10.62-1.43-16.08.19-2.04,1-6.43,5.24-14.47l.27-.5.3-.48c6.47-10.26,17.21-17.81,30.24-21.27,3.83-1.01,7.57-1.53,11.11-1.53,13.84,0,24.8,8.04,27.9,20.49.92,3.69,1.03,7.5.36,11.18,1.92-.42,3.9-.64,5.88-.64,3.16,0,6.25.51,9.13,1.45,2.39-3.36,6.08-5.82,10.73-6.86,2.8-.63,5.57-.95,8.26-.95s5.47.35,7.96,1c2.46-2.74,6.03-4.88,10.74-5.85,2.55-.52,5.06-.79,7.48-.79,3.7,0,7.03.61,9.98,1.67.82-1,1.75-1.93,2.83-2.76-.06-.36-.11-.73-.14-1.11-1.57-14.44,8.67-28.18,22.82-30.62,1.5-.26,3-.39,4.47-.39,11.78,0,20.93,8.3,21.77,19.74.11,1.49.08,2.96-.05,4.42,1.21.34,2.46.79,3.73,1.38,4.81-3.21,11.03-6.23,18.4-7.25,1.5-.21,2.98-.31,4.4-.31,6.55,0,12.21,2.35,16.19,6.31,8.84-6.78,19.18-11.02,29.88-12.13,1.55-.16,3.12-.25,4.66-.25,10.33,0,19.87,3.68,25.51,9.83,3.6,3.92,5.36,8.72,4.96,13.52Z"/>
            <path class="cls-6" d="M322.03,233.02c-2-6.47-8.68-9.13-18.49-6.36-17.47,4.94-19.33,22.29-15.63,29.85,3.64,7.45,10.14,8.79,16.89,6.59,13.6-4.44,20.58-18.83,17.23-30.08ZM304.38,255.89c-1.78.57-3.39-.43-4.72-3.68-1-2.43-1.28-4.89-1.27-6.94-.2-3.66-.5-10.54,6.26-12.36,1.83-.49,2.93-.08,3.75,2.2,1.93,5.59.68,19.26-4.02,20.78Z"/>
            <path class="cls-6" d="M342.13,252.83c-7.72,2.03-13.19-1.11-15.37-7.96-3.55-10.59,6.5-26.63,19.64-29.79,7.81-1.88,11.88.51,12.67,4.69,1.05,5.62-4.84,11.14-10.05,12.42-.84.21-1.61-.1-1.74-.67-.2-.85.25-1.46,1.01-3.34.71-1.67,1.49-4.05,1.13-5.66-.25-1.13-.96-1.56-2.12-1.28-4.41,1.07-7.4,10.94-5.9,16.46.98,3.75,3.1,4.8,6.28,4,5.99-1.49,7.62-6.44,9.02-6.77.65-.15,1.55.43,1.72,1.29.29,1.74-3.99,13.39-16.29,16.6Z"/>
            <path class="cls-6" d="M373.95,242.32c.23,1.44.1,2.36-1.33,2.66-4.19.88-10.2,1.06-10.9-2.36-1.52-6.83,5.37-22.66,4.22-30.33-.16-.96.61-1.82,2.5-2.22,5.98-1.26,10.23,2.37,10.58,5.07.62,5.6-6.38,19.9-5.07,27.17ZM377.83,188.58c3.79-.73,6.87.97,7.25,4.55.51,4.94-2.91,10.31-7.51,11.22-3.51.69-6.95-.87-7.5-4.33-.79-4.99,2.58-10.45,7.75-11.45Z"/>
            <path class="cls-6" d="M415.33,237.32c-7.29,1.08-10.53-3.89-11.19-3.79-1.12.19-5.38,6.38-13.51,7.87-4.56.84-7.86-1.86-8.6-7.26-1.89-12.48,9.4-28.73,26.01-31.3,8.67-1.34,14.93,2.77,14.91,5.04-.05,1.87-7.49,11.67-7.05,23.74.08,2.95.73,3.14.76,4.32.02.69-.42,1.24-1.33,1.38ZM395.2,229.32c.09.97.71,1.65,1.83,1.46,4.76-.84,11.76-18.01,11.78-20.17-.04-.88-.45-1.21-1.24-1.09-6.11.94-13.04,13.5-12.37,19.8Z"/>
            <path class="cls-6" d="M432.61,232.66c-.03,1.48-.33,2.4-1.78,2.58-4.26.51-10.16.13-10.22-3.4-.77-7.07,19.01-47.16,20.02-55.08.04-.99,1.03-1.79,3.08-2.01,4.55-.5,10.25,3.4,10.01,6.19-1.07,5.85-21.58,44.21-21.11,51.72Z"/>
            <path class="cls-6" d="M268.55,276.76c-8.71,4.25-19.47,3.77-23.32-2.72-3.86-6.5,1.63-16.05,7.91-19.13.81-.4,1.81-.47,2.17.21.71,1.34-1.97,5.01,1.62,11.53,2.3,4.18,6.23,5.73,10.49,3.66,3.73-1.81,5.71-6.88,3.31-11.65-4.34-8.83-21.22-10.72-26.31-19.86-1.23-2.27-1.84-4.72-1.88-7.25-.25-2,1.48-7.41,1.48-7.41,2.26-5.55,7.16-10.76,14.13-14,8.07-3.75,14.44-1.99,16.89,3.48.92,2.07,1.03,4.25.42,6.28-1.04,3.01-7.74,6.97-9.32,5.87-1.49-1.04-.15-7.64.02-8.45,0,0,0-.01,0-.02,0,0,0,0,0-.01,0,0,0,0,0-.02,0-.02,0-.03,0-.03.06-.38,0-.74-.16-1.07-.61-1.29-2.2-1.4-4.62-.27-3.01,1.4-5.8,3.97-6.7,7.15-.45,1.79-.3,4.36.99,6.18,4.37,6.33,20.08,6.88,25.28,18.14,5.39,11.69-.92,23.78-12.41,29.41Z"/>
          </g>
          <path class="cls-1" d="M314.72,93.98s0,.01-.02.04c0-.02,0-.03.01-.05h0Z"/>
          <g>
            <path class="cls-1" d="M225.69,164.06c-1.23.42-2.11.06-2.69-1.22-.7-1.5-.89-9.89,1.26-10.63,10.17-3.48,20.39-6.84,30.63-10.08,1.77-.56,2.41-.36,2.92.94.58,1.54.06,10.33-2.04,11-10.06,3.21-20.09,6.54-30.08,9.98Z"/>
            <path class="cls-1" d="M304,172.25c-12.35,3.53-26.29.4-29.81-8.97-3.53-9.38,5.86-20.57,14.77-23.13,1.15-.34,2.47-.19,2.78.77.62,1.92-3.73,6.08-.56,15.43,2.03,5.99,6.81,8.93,12.84,7.22,5.28-1.5,9.05-7.65,7.02-14.44-3.62-12.54-25.21-18.92-29.73-32.04-1.08-3.24-1.31-6.6-.77-9.91.14-2.68,3.65-9.33,3.65-9.33,4.25-6.72,11.85-12.38,21.7-15,11.4-3.02,19.31.75,21.24,8.46.72,2.91.36,5.79-.91,8.29-2.05,3.68-11.72,7.31-13.53,5.5-1.7-1.7,1.58-10.01,1.99-11.02,0,0,0-.02.01-.02,0,0,0-.01,0-.02,0,0,0-.01,0-.02.01-.03.02-.04.02-.04.16-.48.16-.97.04-1.44-.5-1.83-2.54-2.34-5.97-1.43-4.25,1.12-8.49,3.84-10.4,7.77-1.01,2.23-1.41,5.62-.14,8.29,4.23,9.28,24.62,13.64,28.79,29.55,4.32,16.51-6.72,30.83-23.03,35.51Z"/>
            <path class="cls-1" d="M341.1,116.22c-.3-1.23.81-2.41,3.19-2.99,6.62-1.62,14.27,2.3,15.33,7.37,1.47,7.05-5.77,17.47-4.3,23.62.34,1.48,1.51,1.97,2.77,1.67,6.91-1.67,12.72-20.62,10-34.77-.4-1.98-.27-3.44,2.38-4.03,9.56-2.15,15.49,1.92,16.16,5.9.59,3.87-5.46,21.48-4.72,25.08.28,1.49,1.3,2.04,2.56,1.77,8.22-1.8,12.54-19.86,10.89-30.75-.56-3.5-1.37-3.46-1.59-4.84-.2-1.25.86-2.38,3.38-2.89,9.6-1.96,14.82,2.34,15.34,6.35,1.78,14.38-4.77,37.95-25.86,42.53-9.02,1.98-15.04-2.71-15.8-2.54-1.14.27-7.12,7.71-18.53,10.52-7.37,1.82-13.02-.76-14.7-7.12-2.39-8.79,5.77-25.05,3.5-34.88Z"/>
            <path class="cls-1" d="M431.06,138.2c.21,1.89-.04,3.1-2.04,3.47-5.86,1.08-14.15,1.15-14.78-3.36-1.37-9.03,9.26-29.62,8.22-39.71-.15-1.26.95-2.37,3.49-2.84,8.04-1.47,13.51,3.37,13.82,6.92.56,7.35-9.9,25.94-8.72,35.53ZM439.67,67.84c5.01-.86,8.98,1.44,9.32,6.14.47,6.48-4.34,13.44-10.52,14.52-4.71.82-9.19-1.33-9.68-5.87-.71-6.56,4.05-13.61,10.87-14.78Z"/>
            <path class="cls-1" d="M475.45,98.46c-1.98.3-6.25,3.76-9.72,10.08-4.22,7.72-8.69,19.63-8.29,25.09.13,1.91-.17,3.11-2.17,3.44-5.88.96-14.14.86-14.59-3.69-.99-9.1,9.25-29.37,8.59-39.53-.1-1.27,1.04-2.36,3.59-2.78,11.97-1.95,12.98,7.32,13.51,7.22.5-.07,8.98-10.79,21.17-12.49,6.75-.94,10.28,1.95,10.3,7.07-.02,8.72-10.55,21.57-10.18,33.99.16,6.4,4.26,10.81,11.85,9.82,3.87-.51,5.62-2.14,6.62-2.26.88-.11,1.62.44,1.61,1.34-.05,2.59-7.89,11.98-20.92,13.82-10.24,1.44-18.79-4.27-19.4-14.58-.92-14.9,10.33-29.7,10.22-34.8-.04-1.15-.74-1.95-2.19-1.73Z"/>
            <path class="cls-1" d="M527.07,121.16c0-.26-.25-.23-.37-.22-.91.11-7.34,7.08-18.28,8.44-6.41.8-10.47-3.02-10.54-10.2-.33-16.63,17.31-37.14,39.62-39.46,11.68-1.22,19.45,4.54,19.19,7.52-.23,2.98-7.14,9.65-11.89,26.17-6.5,22.26-14.71,54.91-37.35,57.68-14.65,1.84-22.35-9.96-22.52-14.19-.03-1.15.8-2.04,1.77-2.18,1.7-.24,3.22,2.49,10.59,1.5,17.77-2.33,25.44-22.49,29.49-34.13.14-.27.27-.55.29-.93ZM516.54,113.77c-.03,1.29.72,2.23,2.27,2.04,6.68-.79,18.46-22.97,18.71-25.81.06-1.16-.45-1.62-1.52-1.51-8.26.85-19.37,16.92-19.46,25.28Z"/>
            <path class="cls-1" d="M222.47,185.23c-.59-1.27-3.48-3.48-4.58-3.09-.74.27-1.19.83-1.96,1.91-2.58,3.89-5.54,6.84-10.51,8.67-8.2,3.01-18.92.37-24.63-10.25-4.41-8.27-5.37-16.29-5.68-23.65-.11-2.66.35-7.25.44-8.16.01-.11.02-.21.04-.32,1.76-11.57,8.25-20.09,15.45-22.64,3.08-1.09,5.95.05,7.02,2.37,0,0,0,0,0,.01.33.71.44,1.5.41,2.28-.15,3.63-.91,7.15,8.52,6.59,10.27-.6,10.87-4.83,9.13-11.2-.09-.34-.31-.88-.5-1.32-4.02-9.34-16.2-11.14-28.69-6.7-12.75,4.51-26.57,17.25-32.45,32.68v.04c-.12.3-.77,2.23-1.65,6.23-2.19,9.91-.93,20.35,3.9,29.28.22.41.46.83.7,1.24,10.7,18.11,30.25,20.82,46.69,14.71,8.67-3.23,15.13-10.13,17.83-15.26.72-1.47.95-2.49.52-3.41Z"/>
          </g>
        </g>
        <g>
          <rect class="cls-3" x="126.71" y="343.07" width="506.83" height="320.1" rx="8.44" ry="8.44"/>
          <g>
            <rect class="cls-2" x="100.03" y="316.39" width="506.83" height="320.1" rx="7.88" ry="7.88"/>
            <rect class="cls-4" x="126.71" y="343.07" width="453.48" height="200.06" rx="7.88" ry="7.88"/>
            <rect class="cls-2" x="203.4" y="424.95" width="300.1" height="86.69" rx="7.88" ry="7.88"/>
            <path class="cls-4" d="M520.09,636.71l-15.26-68.48c-1.25-5.63-6.16-9.57-11.93-9.57H214c-5.77,0-10.68,3.93-11.93,9.57l-15.26,68.48-1.95-.44,15.26-68.48c1.46-6.55,7.17-11.13,13.88-11.13h278.89c6.71,0,12.42,4.58,13.88,11.13l15.26,68.48-1.95.44Z"/>
            <path class="cls-4" d="M246.75,498.08c-16.42,0-29.78-13.36-29.78-29.78s13.36-29.78,29.78-29.78,29.78,13.36,29.78,29.78-13.36,29.78-29.78,29.78ZM246.75,440.51c-15.32,0-27.78,12.46-27.78,27.78s12.46,27.78,27.78,27.78,27.78-12.46,27.78-27.78-12.46-27.78-27.78-27.78Z"/>
            <path class="cls-4" d="M460.15,498.08c-16.42,0-29.78-13.36-29.78-29.78s13.36-29.78,29.78-29.78,29.78,13.36,29.78,29.78-13.36,29.78-29.78,29.78ZM460.15,440.51c-15.32,0-27.78,12.46-27.78,27.78s12.46,27.78,27.78,27.78,27.78-12.46,27.78-27.78-12.46-27.78-27.78-27.78Z"/>
            <rect class="cls-7" x="295.63" y="439.51" width="115.65" height="57.57" rx="6.02" ry="6.02"/>
          </g>
        </g>
      </g>
      <g>
        <path class="cls-2" d="M169.38,375.62v-4.67h8.72v26.37h-5.21v-21.7h-3.51Z"/>
        <path class="cls-2" d="M188.96,373.99c1.51-2.36,4.01-3.54,7.51-3.54s6,1.18,7.51,3.54c1.51,2.36,2.26,5.63,2.26,9.8s-.75,7.49-2.26,9.88c-1.51,2.39-4.01,3.58-7.51,3.58s-6-1.19-7.51-3.58c-1.51-2.39-2.26-5.68-2.26-9.88s.75-7.44,2.26-9.8ZM200.9,379.29c-.23-1.22-.69-2.21-1.38-2.98-.69-.77-1.71-1.16-3.06-1.16s-2.37.39-3.06,1.16c-.69.77-1.15,1.77-1.37,2.98-.23,1.22-.34,2.72-.34,4.5s.11,3.37.33,4.61c.22,1.24.67,2.24,1.37,3,.7.76,1.72,1.14,3.07,1.14s2.38-.38,3.07-1.14c.7-.76,1.16-1.76,1.38-3,.22-1.24.33-2.78.33-4.61s-.11-3.29-.34-4.5Z"/>
        <path class="cls-2" d="M254.02,372.07v25.25h-5.06v-16.42l-6.76,16.42h-3.83l-6.8-16.42v16.42h-5.06v-25.25h5.75l8.03,18.77,8.03-18.77h5.72Z"/>
        <path class="cls-2" d="M267.7,372.07v25.25h-5.06v-25.25h5.06Z"/>
        <path class="cls-2" d="M297.9,397.32h-5.06l-11.47-17.33v17.33h-5.06v-25.29h5.06l11.47,17.36v-17.36h5.06v25.29Z"/>
        <path class="cls-2" d="M334.15,382.27v4.27h-15.34v-4.27h15.34Z"/>
        <path class="cls-2" d="M371.26,372.07v4.09h-10.53v6.48h8.07v4.02h-8.07v10.67h-5.06v-25.25h15.59Z"/>
        <path class="cls-2" d="M383.67,395.91c-1.98-1.11-3.54-2.65-4.7-4.61-1.16-1.96-1.74-4.19-1.74-6.67s.58-4.67,1.74-6.64c1.16-1.96,2.73-3.5,4.7-4.61,1.98-1.11,4.15-1.66,6.51-1.66s4.56.56,6.53,1.66c1.97,1.11,3.52,2.65,4.67,4.61,1.15,1.97,1.72,4.18,1.72,6.64s-.57,4.71-1.72,6.67c-1.15,1.97-2.71,3.5-4.68,4.61-1.98,1.11-4.15,1.66-6.51,1.66s-4.53-.55-6.51-1.66ZM394.19,392.02c1.16-.69,2.06-1.67,2.71-2.95.65-1.28.98-2.76.98-4.45s-.33-3.17-.98-4.43c-.65-1.27-1.56-2.24-2.71-2.91-1.16-.67-2.5-1.01-4.02-1.01s-2.86.34-4.03,1.01c-1.17.67-2.08,1.65-2.73,2.91-.65,1.27-.98,2.74-.98,4.43s.33,3.17.98,4.45c.65,1.28,1.56,2.26,2.73,2.95,1.17.69,2.51,1.03,4.03,1.03s2.86-.34,4.02-1.03Z"/>
        <path class="cls-2" d="M425.59,397.32l-5.46-8.5-4.96,8.5h-5.72l7.96-12.73-8.07-12.52h5.82l5.46,8.46,4.92-8.46h5.72l-7.92,12.7,8.07,12.55h-5.82Z"/>
        <path class="cls-2" d="M456.09,372.07v4.09h-6.73v21.16h-5.06v-21.16h-6.73v-4.09h18.52Z"/>
        <path class="cls-2" d="M476.42,397.32l-5.57-9.84h-2.39v9.84h-5.06v-25.25h9.48c1.95,0,3.62.34,4.99,1.03,1.37.69,2.41,1.62,3.09,2.79s1.03,2.48,1.03,3.92c0,1.66-.48,3.17-1.45,4.5-.96,1.34-2.4,2.26-4.3,2.77l6.04,10.24h-5.86ZM468.46,383.68h4.23c1.37,0,2.4-.33,3.07-1,.67-.66,1.01-1.58,1.01-2.77s-.34-2.06-1.01-2.7c-.67-.64-1.7-.96-3.07-.96h-4.23v7.42Z"/>
        <path class="cls-2" d="M495.41,395.91c-1.98-1.11-3.54-2.65-4.7-4.61-1.16-1.96-1.74-4.19-1.74-6.67s.58-4.67,1.74-6.64c1.16-1.96,2.73-3.5,4.7-4.61,1.98-1.11,4.15-1.66,6.51-1.66s4.56.56,6.53,1.66c1.96,1.11,3.52,2.65,4.67,4.61,1.15,1.97,1.72,4.18,1.72,6.64s-.57,4.71-1.72,6.67c-1.15,1.97-2.71,3.5-4.68,4.61-1.98,1.11-4.15,1.66-6.51,1.66s-4.53-.55-6.51-1.66ZM505.93,392.02c1.16-.69,2.06-1.67,2.71-2.95.65-1.28.98-2.76.98-4.45s-.33-3.17-.98-4.43c-.65-1.27-1.55-2.24-2.71-2.91-1.16-.67-2.5-1.01-4.01-1.01s-2.86.34-4.03,1.01-2.08,1.65-2.73,2.91c-.65,1.27-.98,2.74-.98,4.43s.33,3.17.98,4.45c.65,1.28,1.56,2.26,2.73,2.95,1.17.69,2.51,1.03,4.03,1.03s2.86-.34,4.01-1.03Z"/>
        <path class="cls-2" d="M539.39,372.07v4.09h-6.73v21.16h-5.06v-21.16h-6.73v-4.09h18.52Z"/>
      </g>
    </g>
  </g>
</svg>