<?xml version="1.0" encoding="UTF-8"?>
<svg id="Layer_2" data-name="Layer 2" xmlns="http://www.w3.org/2000/svg" viewBox="0 0 683.66 264.96">
  <defs>
    <style>
      .cls-1 {
        fill: #fff;
      }

      .cls-2 {
        fill: #0e2432;
      }
    </style>
  </defs>
  <g id="Layer_1-2" data-name="Layer 1">
    <g>
      <path class="cls-2" d="M683.58,55.53c-.56,7.03-3.66,12.15-6.94,17.57-3.64,6-8.61,14.22-12.61,28.13l-.03.1c-.54,1.84-1.08,3.73-1.64,5.66-5.15,17.79-11.54,39.92-21.51,58.5-13.83,25.77-32.29,40.23-54.86,42.99-2.46.3-5.03.47-7.55.47-28.25,0-47.72-20.19-52.43-37.73-8.44-3.51-15.53-9.25-20.55-16.62-.25.05-.49.1-.74.13-4.31.7-8.72,1.08-12.78,1.08-5.18,0-9.62-.59-13.44-1.58-4.03,4.1-9.29,6.67-14.7,7.67-3.34.62-8.49,1.34-14.13,1.34-8.23,0-14.86-1.6-20.07-4.22-8.42,7.61-18.97,13.42-31.9,16.24-3.88.85-7.88,1.28-11.84,1.28-5.24,0-9.89-.75-13.81-1.76-6.43,4.61-15.7,9.93-27.85,12.9-4.19,1.04-8.36,1.56-12.37,1.56-8.4,0-16.07-2.33-22.39-6.52-9.45,12.31-23.36,21.94-40.48,26.85-7.23,2.06-14.66,3.11-22.09,3.11-25.2,0-45.35-11.94-52.57-31.17-.1-.3-.2-.6-.3-.89-.13.05-.26.1-.39.13-13.7,4.38-27.5,8.95-41.13,13.6.95,1.33,1.77,2.7,2.41,4.06,2.51,5.34,4.41,14.11-1.04,25.14l-.13.27-.14.27c-6.26,11.9-20.15,27.27-40.32,34.79-5.42,2.02-10.91,3.53-16.41,4.55-5.5,1.02-11.03,1.52-16.54,1.52-28.73,0-53.61-14.23-68.26-39.05l-.08-.12c-.49-.85-.97-1.7-1.43-2.55C.45,204.59-2.53,182.59,2.18,161.29c1.35-6.13,2.47-9.87,3.07-11.69l.11-.43.37-.98c11.05-29.01,37.12-55.08,64.86-64.89,9.23-3.27,18.4-4.95,27.22-4.95,21.62,0,39.04,10.48,46.58,28.02l.05.1c1.07,2.52,1.53,4.04,1.79,4.98.79,2.89,2.55,9.35,1.8,16.82,10.11-3.36,20.26-6.66,30.36-9.86,3.3-1.04,6.22-1.52,9.2-1.52,8.99,0,16.85,4.57,21.44,12.18,1.74-1.67,3.57-3.25,5.48-4.71-3.83-4.72-7.07-10.05-9.19-16.21l-.09-.26c-2.72-8.21-3.48-16.74-2.26-25.34.3-3.21,1.58-10.13,8.26-22.8l.42-.78.48-.75c10.2-16.17,27.12-28.06,47.64-33.51,6.03-1.6,11.92-2.41,17.51-2.41,21.81,0,39.07,12.67,43.97,32.28,1.46,5.81,1.62,11.82.57,17.62,3.03-.66,6.14-1.01,9.27-1.01,4.99,0,9.85.81,14.38,2.28,3.77-5.29,9.57-9.16,16.91-10.81,4.42-.99,8.78-1.49,13.01-1.49s8.61.55,12.54,1.58c3.88-4.32,9.5-7.69,16.93-9.21,4.02-.82,7.97-1.24,11.78-1.24,5.82,0,11.08.96,15.72,2.64,1.28-1.57,2.76-3.04,4.45-4.35-.1-.57-.17-1.15-.23-1.74-2.47-22.75,13.67-44.4,35.96-48.24,2.36-.41,4.73-.61,7.04-.61,18.56,0,32.97,13.09,34.3,31.11.17,2.34.12,4.66-.08,6.96,1.9.54,3.88,1.24,5.88,2.17,7.58-5.05,17.38-9.81,28.99-11.43,2.37-.33,4.7-.49,6.94-.49,10.33,0,19.23,3.7,25.51,9.94,13.93-10.69,30.21-17.37,47.08-19.12,2.45-.26,4.92-.39,7.35-.39,16.28,0,31.31,5.8,40.19,15.49,5.67,6.18,8.44,13.74,7.82,21.3Z"/>
      <path class="cls-1" d="M279.57,64.3s0,.02-.03.07c0-.03,0-.05.02-.08h0Z"/>
      <g>
        <path class="cls-1" d="M139.28,174.73c-1.94.67-3.33.1-4.24-1.92-1.1-2.37-1.4-15.59,1.99-16.74,16.03-5.48,32.12-10.77,48.27-15.88,2.79-.88,3.8-.57,4.59,1.48.91,2.43.09,16.28-3.21,17.33-15.85,5.06-31.65,10.3-47.39,15.73Z"/>
        <path class="cls-1" d="M262.67,187.62c-19.46,5.56-41.43.64-46.97-14.13-5.57-14.78,9.23-32.41,23.27-36.45,1.82-.53,3.89-.3,4.39,1.22.97,3.03-5.88,9.58-.89,24.31,3.2,9.44,10.73,14.07,20.23,11.37,8.33-2.37,14.26-12.06,11.07-22.74-5.7-19.76-39.72-29.81-46.85-50.48-1.69-5.11-2.07-10.39-1.22-15.61.22-4.22,5.75-14.69,5.75-14.69,6.69-10.59,18.67-19.51,34.19-23.63,17.97-4.76,30.42,1.18,33.46,13.33,1.14,4.59.56,9.12-1.43,13.07-3.24,5.81-18.46,11.52-21.32,8.66-2.68-2.68,2.49-15.77,3.14-17.37,0,0,0-.03.02-.04,0,0,0-.02,0-.03,0,0,0-.02,0-.04.02-.05.03-.07.03-.07.26-.76.26-1.52.06-2.27-.78-2.88-4.01-3.69-9.4-2.26-6.7,1.77-13.38,6.05-16.39,12.25-1.59,3.51-2.22,8.86-.23,13.07,6.66,14.63,38.79,21.49,45.36,46.56,6.81,26.01-10.59,48.58-36.29,55.96Z"/>
        <path class="cls-1" d="M321.13,99.34c-.47-1.94,1.28-3.8,5.02-4.72,10.43-2.55,22.48,3.62,24.16,11.61,2.31,11.1-9.09,27.52-6.78,37.22.54,2.33,2.38,3.11,4.36,2.64,10.89-2.63,20.04-32.48,15.76-54.78-.62-3.12-.43-5.42,3.75-6.36,15.07-3.38,24.41,3.02,25.47,9.3.94,6.1-8.61,33.85-7.43,39.52.44,2.35,2.05,3.22,4.03,2.78,12.95-2.84,19.77-31.29,17.16-48.46-.87-5.52-2.16-5.46-2.5-7.62-.32-1.97,1.35-3.74,5.33-4.56,15.13-3.09,23.35,3.68,24.17,10.01,2.81,22.66-7.51,59.79-40.75,67-14.21,3.11-23.7-4.27-24.9-4-1.8.42-11.21,12.16-29.2,16.58-11.61,2.86-20.52-1.2-23.15-11.22-3.77-13.85,9.1-39.46,5.52-54.96Z"/>
        <path class="cls-1" d="M462.87,133.98c.33,2.98-.06,4.88-3.21,5.46-9.23,1.69-22.29,1.81-23.29-5.3-2.16-14.23,14.59-46.67,12.95-62.57-.23-1.99,1.5-3.73,5.5-4.47,12.67-2.32,21.29,5.32,21.78,10.9.89,11.58-15.6,40.88-13.74,55.98ZM476.44,23.11c7.89-1.35,14.14,2.27,14.69,9.67.73,10.21-6.84,21.18-16.58,22.88-7.42,1.3-14.48-2.09-15.24-9.25-1.12-10.34,6.38-21.44,17.13-23.29Z"/>
        <path class="cls-1" d="M532.81,71.36c-3.13.47-9.85,5.92-15.32,15.89-6.65,12.16-13.69,30.92-13.06,39.53.21,3.01-.26,4.9-3.42,5.42-9.26,1.51-22.28,1.36-22.98-5.81-1.56-14.34,14.57-46.28,13.54-62.29-.16-2,1.64-3.72,5.65-4.38,18.86-3.07,20.46,11.53,21.29,11.38.78-.11,14.15-17,33.35-19.68,10.63-1.48,16.19,3.07,16.23,11.15-.03,13.73-16.62,33.99-16.04,53.55.25,10.08,6.71,17.04,18.67,15.47,6.09-.8,8.86-3.37,10.43-3.57,1.38-.18,2.56.69,2.54,2.11-.08,4.07-12.43,18.88-32.97,21.77-16.13,2.27-29.6-6.73-30.56-22.98-1.45-23.48,16.27-46.79,16.11-54.84-.07-1.81-1.16-3.07-3.45-2.73Z"/>
        <path class="cls-1" d="M614.14,107.13c.02-.41-.39-.36-.59-.34-1.43.17-11.57,11.16-28.8,13.29-10.11,1.26-16.5-4.76-16.6-16.07-.51-26.21,27.28-58.53,62.43-62.18,18.41-1.92,30.64,7.16,30.23,11.84-.36,4.69-11.26,15.2-18.74,41.24-10.24,35.07-23.17,86.52-58.84,90.88-23.09,2.91-35.22-15.69-35.49-22.35-.05-1.82,1.25-3.21,2.78-3.43,2.68-.38,5.08,3.92,16.69,2.36,28-3.67,40.08-35.44,46.46-53.78.22-.43.43-.86.45-1.47ZM597.56,95.48c-.04,2.03,1.14,3.51,3.57,3.22,10.52-1.25,29.09-36.19,29.48-40.67.09-1.83-.71-2.56-2.4-2.38-13.01,1.34-30.52,26.66-30.66,39.83Z"/>
        <path class="cls-1" d="M134.2,208.07c-.93-2-5.48-5.49-7.22-4.87-1.16.42-1.87,1.3-3.08,3.01-4.06,6.13-8.74,10.78-16.56,13.66-12.91,4.74-29.81.59-38.81-16.15-6.95-13.03-8.46-25.67-8.95-37.27-.17-4.19.55-11.43.7-12.86.02-.17.04-.33.06-.5,2.78-18.22,13-31.66,24.34-35.68,4.85-1.72,9.37.09,11.06,3.73,0,0,0,.01,0,.02.52,1.12.7,2.36.65,3.59-.24,5.72-1.43,11.26,13.43,10.39,16.18-.95,17.13-7.61,14.39-17.64-.15-.54-.49-1.39-.78-2.08-6.34-14.72-25.53-17.56-45.21-10.56-20.09,7.1-41.87,27.18-51.13,51.48l-.02.07c-.17.47-1.19,3.52-2.58,9.82-3.45,15.62-1.47,32.07,6.15,46.13.35.65.72,1.3,1.1,1.95,16.85,28.54,47.67,32.8,73.56,23.18,13.66-5.09,23.84-15.97,28.09-24.04,1.14-2.31,1.5-3.92.82-5.38Z"/>
      </g>
    </g>
  </g>
</svg>