<?xml version="1.0" encoding="UTF-8"?>
<svg id="Layer_2" xmlns="http://www.w3.org/2000/svg" viewBox="0 0 718.4 278.42">
  <defs>
    <style>
      .cls-1 {
        fill: #fff;
      }

      .cls-2 {
        fill: #994545;
      }
    </style>
  </defs>
  <g id="Layer_1-2" data-name="Layer_1">
    <g>
      <path class="cls-2" d="M718.31,58.35c-.59,7.39-3.85,12.77-7.29,18.46-3.82,6.31-9.05,14.94-13.25,29.56l-.03.11c-.57,1.93-1.14,3.92-1.72,5.95-5.41,18.69-12.13,41.95-22.6,61.47-14.53,27.08-33.93,42.27-57.65,45.17-2.59.32-5.29.49-7.93.49-29.69,0-50.14-21.22-55.09-39.65-8.87-3.69-16.32-9.72-21.59-17.46-.26.05-.52.1-.78.14-4.53.74-9.16,1.13-13.43,1.13-5.44,0-10.11-.62-14.12-1.66-4.23,4.31-9.76,7.01-15.45,8.06-3.51.65-8.92,1.41-14.85,1.41-8.65,0-15.61-1.68-21.09-4.43-8.85,8-19.93,14.1-33.52,17.06-4.08.89-8.28,1.35-12.44,1.35-5.51,0-10.39-.79-14.51-1.85-6.76,4.84-16.5,10.43-29.26,13.56-4.4,1.09-8.78,1.64-13,1.64-8.83,0-16.89-2.45-23.53-6.85-9.93,12.94-24.55,23.05-42.54,28.21-7.6,2.17-15.4,3.27-23.21,3.27-26.48,0-47.65-12.55-55.24-32.75-.11-.31-.21-.63-.32-.94-.14.05-.27.1-.41.14-14.4,4.6-28.9,9.4-43.22,14.29,1,1.4,1.86,2.84,2.53,4.27,2.64,5.61,4.63,14.83-1.09,26.42l-.14.28-.15.28c-6.58,12.5-21.17,28.66-42.37,36.56-5.7,2.12-11.46,3.71-17.24,4.78-5.78,1.07-11.59,1.6-17.38,1.6-30.19,0-56.33-14.95-71.73-41.03l-.08-.13c-.51-.89-1.02-1.79-1.5-2.68C.47,214.99-2.66,191.87,2.29,169.49c1.42-6.44,2.6-10.37,3.23-12.28l.12-.45.39-1.03c11.61-30.48,39.01-57.88,68.16-68.19,9.7-3.44,19.34-5.2,28.6-5.2,22.72,0,41.02,11.01,48.95,29.44l.05.11c1.12,2.65,1.61,4.25,1.88,5.23.83,3.04,2.68,9.83,1.89,17.67,10.62-3.53,21.29-7,31.9-10.36,3.47-1.09,6.54-1.6,9.67-1.6,9.45,0,17.71,4.8,22.53,12.8,1.83-1.76,3.75-3.42,5.76-4.95-4.02-4.96-7.43-10.56-9.66-17.03l-.09-.27c-2.86-8.63-3.66-17.59-2.37-26.63.32-3.37,1.66-10.65,8.68-23.96l.44-.82.5-.79c10.72-16.99,28.5-29.49,50.06-35.21,6.34-1.68,12.53-2.53,18.4-2.53,22.92,0,41.06,13.31,46.2,33.92,1.53,6.11,1.7,12.42.6,18.51,3.18-.69,6.45-1.06,9.74-1.06,5.24,0,10.35.85,15.11,2.4,3.96-5.56,10.06-9.63,17.77-11.36,4.64-1.04,9.23-1.57,13.67-1.57s9.05.58,13.18,1.66c4.08-4.54,9.98-8.08,17.79-9.68,4.22-.86,8.38-1.3,12.38-1.3,6.12,0,11.64,1.01,16.52,2.77,1.35-1.65,2.9-3.19,4.68-4.57-.1-.6-.18-1.21-.24-1.83-2.6-23.91,14.36-46.66,37.79-50.69,2.48-.43,4.97-.64,7.4-.64,19.5,0,34.65,13.75,36.04,32.69.18,2.46.13,4.9-.08,7.31,2,.57,4.08,1.3,6.18,2.28,7.96-5.31,18.26-10.31,30.46-12.01,2.49-.35,4.94-.52,7.29-.52,10.85,0,20.21,3.89,26.81,10.44,14.64-11.23,31.75-18.25,49.47-20.09,2.57-.27,5.17-.41,7.72-.41,17.11,0,32.9,6.09,42.23,16.28,5.96,6.49,8.87,14.44,8.22,22.38Z"/>
      <path class="cls-1" d="M293.77,67.57s-.01.02-.03.07c0-.03.01-.05.02-.08h.01Z"/>
      <g>
        <path class="cls-1" d="M146.36,183.61c-2.04.7-3.5.1-4.46-2.01-1.16-2.49-1.47-16.38,2.09-17.59,16.85-5.76,33.75-11.32,50.72-16.69,2.93-.93,4-.6,4.83,1.55.96,2.55.09,17.11-3.37,18.21-16.66,5.32-33.26,10.83-49.8,16.52Z"/>
        <path class="cls-1" d="M276.02,197.15c-20.45,5.84-43.53.67-49.36-14.85-5.85-15.53,9.7-34.06,24.45-38.3,1.91-.56,4.09-.32,4.61,1.28,1.02,3.18-6.18,10.07-.93,25.55,3.36,9.92,11.27,14.79,21.26,11.95,8.75-2.49,14.98-12.67,11.63-23.9-5.99-20.76-41.74-31.32-49.23-53.05-1.78-5.37-2.17-10.92-1.28-16.4.23-4.43,6.04-15.44,6.04-15.44,7.03-11.13,19.62-20.5,35.93-24.83,18.88-5,31.97,1.24,35.16,14.01,1.2,4.82.59,9.58-1.5,13.73-3.4,6.1-19.4,12.1-22.4,9.1-2.82-2.82,2.62-16.57,3.3-18.25.01-.01.01-.03.02-.04,0-.01,0-.02.01-.03,0-.01.01-.02.01-.04.02-.05.03-.07.03-.07.27-.8.27-1.6.06-2.38-.82-3.03-4.21-3.88-9.88-2.37-7.04,1.86-14.06,6.36-17.22,12.87-1.67,3.69-2.33,9.31-.24,13.73,7,15.37,40.76,22.58,47.66,48.93,7.16,27.33-11.13,51.05-38.13,58.8Z"/>
        <path class="cls-1" d="M337.45,104.38c-.49-2.04,1.35-3.99,5.28-4.96,10.96-2.68,23.62,3.81,25.39,12.2,2.43,11.66-9.55,28.92-7.13,39.11.56,2.45,2.5,3.27,4.58,2.77,11.45-2.76,21.06-34.13,16.56-57.56-.66-3.28-.45-5.69,3.94-6.68,15.84-3.55,25.65,3.18,26.76,9.77.98,6.41-9.04,35.57-7.81,41.53.46,2.47,2.15,3.38,4.24,2.93,13.61-2.99,20.77-32.88,18.03-50.92-.92-5.8-2.27-5.73-2.63-8.01-.33-2.07,1.42-3.93,5.6-4.79,15.9-3.25,24.54,3.87,25.4,10.52,2.95,23.81-7.9,62.83-42.82,70.41-14.93,3.27-24.91-4.49-26.17-4.2-1.89.45-11.78,12.77-30.68,17.42-12.2,3.01-21.56-1.26-24.33-11.79-3.96-14.55,9.56-41.47,5.8-57.75Z"/>
        <path class="cls-1" d="M486.39,140.79c.35,3.14-.07,5.13-3.37,5.74-9.7,1.78-23.42,1.9-24.47-5.57-2.27-14.96,15.33-49.04,13.61-65.75-.24-2.09,1.57-3.92,5.78-4.69,13.31-2.44,22.37,5.59,22.89,11.45.93,12.17-16.39,42.96-14.44,58.82ZM500.65,24.29c8.29-1.42,14.86,2.39,15.43,10.16.77,10.73-7.19,22.25-17.42,24.04-7.8,1.36-15.21-2.2-16.02-9.72-1.18-10.86,6.71-22.53,18-24.48Z"/>
        <path class="cls-1" d="M559.88,74.98c-3.29.49-10.35,6.22-16.1,16.69-6.98,12.78-14.38,32.5-13.72,41.54.22,3.16-.27,5.15-3.59,5.7-9.73,1.59-23.41,1.43-24.15-6.1-1.64-15.07,15.31-48.63,14.22-65.45-.16-2.1,1.72-3.91,5.94-4.6,19.82-3.22,21.5,12.11,22.37,11.96.82-.12,14.87-17.86,35.04-20.68,11.17-1.56,17.01,3.22,17.05,11.71-.03,14.43-17.47,35.72-16.86,56.27.27,10.59,7.05,17.9,19.62,16.25,6.4-.84,9.3-3.54,10.96-3.75,1.45-.18,2.69.73,2.67,2.21-.09,4.28-13.06,19.84-34.64,22.88-16.95,2.38-31.11-7.07-32.12-24.15-1.52-24.67,17.1-49.17,16.92-57.62-.07-1.91-1.22-3.22-3.63-2.87Z"/>
        <path class="cls-1" d="M645.35,112.58c.02-.43-.41-.38-.62-.36-1.51.18-12.16,11.73-30.26,13.97-10.62,1.32-17.34-5-17.45-16.89-.54-27.54,28.66-61.5,65.6-65.33,19.35-2.01,32.2,7.52,31.77,12.44-.38,4.93-11.83,15.97-19.69,43.34-10.76,36.86-24.35,90.92-61.83,95.49-24.26,3.05-37-16.49-37.29-23.49-.06-1.91,1.32-3.38,2.93-3.6,2.82-.39,5.34,4.12,17.54,2.48,29.42-3.86,42.12-37.24,48.83-56.52.23-.45.45-.9.48-1.54ZM627.93,100.33c-.04,2.13,1.2,3.69,3.75,3.38,11.06-1.32,30.57-38.03,30.98-42.74.1-1.93-.74-2.69-2.52-2.5-13.67,1.41-32.07,28.01-32.21,41.86Z"/>
        <path class="cls-1" d="M141.02,218.64c-.98-2.1-5.76-5.77-7.59-5.12-1.22.44-1.97,1.37-3.24,3.16-4.27,6.44-9.18,11.33-17.4,14.35-13.57,4.98-31.32.62-40.78-16.97-7.3-13.69-8.89-26.97-9.41-39.16-.18-4.4.58-12.01.73-13.52.02-.18.04-.35.07-.52,2.92-19.15,13.66-33.27,25.58-37.49,5.1-1.81,9.85.09,11.62,3.92,0,0,0,.01,0,.02.54,1.17.73,2.48.68,3.77-.25,6.01-1.5,11.83,14.11,10.91,17-1,18-8,15.12-18.54-.15-.56-.51-1.46-.82-2.19-6.66-15.47-26.83-18.45-47.51-11.1-21.11,7.46-44,28.56-53.73,54.1l-.02.07c-.17.49-1.25,3.7-2.72,10.32-3.63,16.41-1.55,33.7,6.46,48.48.37.69.76,1.37,1.15,2.05,17.71,29.99,50.09,34.47,77.3,24.36,14.35-5.35,25.05-16.78,29.52-25.26,1.2-2.43,1.58-4.12.86-5.65Z"/>
      </g>
    </g>
  </g>
</svg>