<?xml version="1.0" encoding="UTF-8"?>
<svg id="Layer_2" xmlns="http://www.w3.org/2000/svg" viewBox="0 0 526.11 123">
  <defs>
    <style>
      .cls-1 {
        fill: #ff7373;
      }

      .cls-2 {
        fill: #fff;
      }

      .cls-3 {
        fill: #994545;
      }
    </style>
  </defs>
  <g id="Layer_1-2" data-name="Layer_1">
    <g>
      <path class="cls-3" d="M514.08,20H12.03c-6.64,0-12.03,5.16-12.03,11.5v80c0,6.34,5.39,11.5,12.03,11.5h502.05c6.64,0,12.03-5.16,12.03-11.5V31.5c0-6.34-5.39-11.5-12.03-11.5Z"/>
      <g>
        <g>
          <path class="cls-1" d="M161.26,54.93c1.63,2.1,2.44,4.85,2.44,8.26,0,2.94-.76,5.67-2.28,8.19-1.52,2.52-3.75,4.52-6.69,6.02-2.94,1.49-6.43,2.24-10.47,2.24-3.83,0-7.28-.65-10.35-1.97-3.07-1.31-5.5-3.2-7.28-5.66-1.78-2.47-2.7-5.38-2.75-8.74h11.8c.16,2.26.96,4.04,2.4,5.35,1.44,1.31,3.43,1.97,5.95,1.97s4.59-.62,6.06-1.85c1.46-1.23,2.2-2.84,2.2-4.84,0-1.63-.5-2.96-1.5-4.01-.99-1.05-2.24-1.88-3.73-2.48-1.5-.61-3.56-1.28-6.18-2.01-3.57-1.05-6.47-2.09-8.7-3.11-2.23-1.02-4.15-2.57-5.75-4.64-1.6-2.08-2.4-4.84-2.4-8.31,0-3.25.82-6.08,2.44-8.5,1.63-2.41,3.91-4.26,6.85-5.55,2.94-1.28,6.3-1.92,10.08-1.92,5.66,0,10.27,1.37,13.81,4.13,3.54,2.75,5.49,6.6,5.86,11.53h-12.12c-.1-1.89-.9-3.45-2.4-4.68-1.49-1.24-3.48-1.85-5.94-1.85-2.15,0-3.87.55-5.16,1.65-1.28,1.1-1.92,2.7-1.92,4.8,0,1.47.48,2.69,1.45,3.66.97.97,2.18,1.76,3.62,2.36,1.44.6,3.48,1.3,6.1,2.09,3.57,1.05,6.48,2.1,8.74,3.15,2.25,1.05,4.19,2.62,5.82,4.72Z"/>
          <path class="cls-1" d="M221.95,32.42c1.49,2.57,2.24,5.48,2.24,8.73,0,2.94-.69,5.7-2.08,8.27-1.4,2.57-3.57,4.64-6.54,6.21-2.96,1.58-6.7,2.37-11.21,2.37h-9.21v21.09h-11.02V24.15h20.23c4.25,0,7.87.74,10.86,2.21,2.99,1.47,5.23,3.49,6.73,6.06Z"/>
          <polygon class="cls-1" points="264.95 24.07 284.71 79.09 273.06 79.09 269.44 68.62 247.56 68.62 243.94 79.09 232.37 79.09 252.12 24.07 264.95 24.07"/>
          <path class="cls-1" d="M310.5,41.94c-1.39,2.73-2.08,5.93-2.08,9.6s.69,6.81,2.08,9.57c1.39,2.75,3.33,4.87,5.82,6.37,2.5,1.5,5.34,2.24,8.54,2.24,3,0,5.63-.67,7.91-2,2.29-1.34,4.06-3.32,5.32-5.94h12.67c-1.84,5.61-5.05,9.98-9.64,13.1-4.6,3.12-9.99,4.68-16.18,4.68-5.24,0-9.98-1.19-14.2-3.58-4.23-2.39-7.56-5.71-10-9.96-2.44-4.24-3.66-9.07-3.66-14.48s1.22-10.24,3.66-14.52c2.44-4.27,5.77-7.61,10-9.99,4.22-2.39,8.96-3.59,14.2-3.59,6.14,0,11.52,1.58,16.14,4.73,4.62,3.14,7.84,7.5,9.68,13.06h-12.67c-1.26-2.62-3.03-4.59-5.32-5.9-2.28-1.31-4.91-1.97-7.91-1.97-3.2,0-6.04.75-8.54,2.24-2.49,1.5-4.43,3.61-5.82,6.34Z"/>
          <polygon class="cls-1" points="381.38 33.05 381.38 46.82 399.87 46.82 399.87 55.56 381.38 55.56 381.38 70.12 402.23 70.12 402.23 79.09 370.36 79.09 370.36 24.08 402.23 24.08 402.23 33.05 381.38 33.05"/>
          <path class="cls-1" d="M503.05,0H23.06c-6.35,0-11.5,5.16-11.5,11.5v80c0,6.34,5.15,11.5,11.5,11.5h479.99c6.35,0,11.5-5.16,11.5-11.5V11.5c0-6.34-5.15-11.5-11.5-11.5ZM150.79,59.89c-.99-1.05-2.24-1.88-3.73-2.48-1.5-.61-3.56-1.28-6.18-2.01-3.57-1.05-6.47-2.09-8.7-3.11-2.23-1.02-4.15-2.57-5.75-4.64-1.6-2.08-2.4-4.84-2.4-8.31,0-3.25.82-6.08,2.44-8.5,1.63-2.41,3.91-4.26,6.85-5.55,2.94-1.28,6.3-1.92,10.08-1.92,5.66,0,10.27,1.37,13.81,4.13,3.54,2.75,5.49,6.6,5.86,11.53h-12.12c-.1-1.89-.9-3.45-2.4-4.68-1.49-1.24-3.48-1.85-5.94-1.85-2.15,0-3.87.55-5.16,1.65-1.28,1.1-1.92,2.7-1.92,4.8,0,1.47.48,2.69,1.45,3.66.97.97,2.18,1.76,3.62,2.36,1.44.6,3.48,1.3,6.1,2.09,3.57,1.05,6.48,2.1,8.74,3.15,2.25,1.05,4.19,2.62,5.82,4.72,1.63,2.1,2.44,4.85,2.44,8.26,0,2.94-.76,5.67-2.28,8.19-1.52,2.52-3.75,4.52-6.69,6.02-2.94,1.49-6.43,2.24-10.47,2.24-3.83,0-7.28-.65-10.35-1.97-3.07-1.31-5.5-3.2-7.28-5.66-1.78-2.47-2.7-5.38-2.75-8.74h11.8c.16,2.26.96,4.04,2.4,5.35,1.44,1.31,3.43,1.97,5.95,1.97s4.59-.62,6.06-1.85c1.46-1.23,2.2-2.84,2.2-4.84,0-1.63-.5-2.96-1.5-4.01ZM184.13,79.09V24.15h20.23c4.25,0,7.87.74,10.86,2.21,2.99,1.47,5.23,3.49,6.73,6.06,1.49,2.57,2.24,5.48,2.24,8.73,0,2.94-.69,5.7-2.08,8.27-1.4,2.57-3.57,4.64-6.54,6.21-2.96,1.58-6.7,2.37-11.21,2.37h-9.21v21.09h-11.02ZM232.37,79.09l19.75-55.02h12.83l19.76,55.02h-11.65l-3.62-10.47h-21.88l-3.62,10.47h-11.57ZM310.5,61.11c1.39,2.75,3.33,4.87,5.82,6.37,2.5,1.5,5.34,2.24,8.54,2.24,3,0,5.63-.67,7.91-2,2.29-1.34,4.06-3.32,5.32-5.94h12.67c-1.84,5.61-5.05,9.98-9.64,13.1-4.6,3.12-9.99,4.68-16.18,4.68-5.24,0-9.98-1.19-14.2-3.58-4.23-2.39-7.56-5.71-10-9.96-2.44-4.24-3.66-9.07-3.66-14.48s1.22-10.24,3.66-14.52c2.44-4.27,5.77-7.61,10-9.99,4.22-2.39,8.96-3.59,14.2-3.59,6.14,0,11.52,1.58,16.14,4.73,4.62,3.14,7.84,7.5,9.68,13.06h-12.67c-1.26-2.62-3.03-4.59-5.32-5.9-2.28-1.31-4.91-1.97-7.91-1.97-3.2,0-6.04.75-8.54,2.24-2.49,1.5-4.43,3.61-5.82,6.34-1.39,2.73-2.08,5.93-2.08,9.6s.69,6.81,2.08,9.57ZM402.23,33.05h-20.85v13.77h18.49v8.74h-18.49v14.56h20.85v8.97h-31.87V24.08h31.87v8.97Z"/>
        </g>
        <g>
          <path class="cls-2" d="M163.7,63.19c0,2.94-.76,5.67-2.28,8.19-1.52,2.52-3.75,4.52-6.69,6.02-2.94,1.49-6.43,2.24-10.47,2.24-3.83,0-7.28-.65-10.35-1.97-3.07-1.31-5.5-3.2-7.28-5.66-1.78-2.47-2.7-5.38-2.75-8.74h11.8c.16,2.26.96,4.04,2.4,5.35,1.44,1.31,3.43,1.97,5.95,1.97s4.59-.62,6.06-1.85c1.46-1.23,2.2-2.84,2.2-4.84,0-1.63-.5-2.96-1.5-4.01-.99-1.05-2.24-1.88-3.73-2.48-1.5-.61-3.56-1.28-6.18-2.01-3.57-1.05-6.47-2.09-8.7-3.11-2.23-1.02-4.15-2.57-5.75-4.64-1.6-2.08-2.4-4.84-2.4-8.31,0-3.25.82-6.08,2.44-8.5,1.63-2.41,3.91-4.26,6.85-5.55,2.94-1.28,6.3-1.92,10.08-1.92,5.66,0,10.27,1.37,13.81,4.13,3.54,2.75,5.49,6.6,5.86,11.53h-12.12c-.1-1.89-.9-3.45-2.4-4.68-1.49-1.24-3.48-1.85-5.94-1.85-2.15,0-3.87.55-5.16,1.65-1.28,1.1-1.92,2.7-1.92,4.8,0,1.47.48,2.69,1.45,3.66.97.97,2.18,1.76,3.62,2.36,1.44.6,3.48,1.3,6.1,2.09,3.57,1.05,6.48,2.1,8.74,3.15,2.25,1.05,4.19,2.62,5.82,4.72,1.63,2.1,2.44,4.85,2.44,8.26Z"/>
          <path class="cls-2" d="M221.95,32.42c-1.5-2.57-3.74-4.59-6.73-6.06-2.99-1.47-6.61-2.21-10.86-2.21h-20.23v54.94h11.02v-21.09h9.21c4.51,0,8.25-.79,11.21-2.37,2.97-1.57,5.14-3.64,6.54-6.21,1.39-2.57,2.08-5.33,2.08-8.27,0-3.25-.75-6.16-2.24-8.73ZM210.65,47.02c-1.47,1.39-3.72,2.08-6.76,2.08h-8.74v-15.98h8.74c5.98,0,8.97,2.68,8.97,8.03,0,2.52-.74,4.48-2.21,5.87Z"/>
          <path class="cls-2" d="M264.95,24.07h-12.83l-19.75,55.02h11.57l3.62-10.47h21.88l3.62,10.47h11.65l-19.76-55.02ZM250.55,59.81l7.95-22.99,7.95,22.99h-15.9Z"/>
          <path class="cls-2" d="M338.09,61.78h12.67c-1.84,5.61-5.05,9.98-9.64,13.1-4.6,3.12-9.99,4.68-16.18,4.68-5.24,0-9.98-1.19-14.2-3.58-4.23-2.39-7.56-5.71-10-9.96-2.44-4.24-3.66-9.07-3.66-14.48s1.22-10.24,3.66-14.52c2.44-4.27,5.77-7.61,10-9.99,4.22-2.39,8.96-3.59,14.2-3.59,6.14,0,11.52,1.58,16.14,4.73,4.62,3.14,7.84,7.5,9.68,13.06h-12.67c-1.26-2.62-3.03-4.59-5.32-5.9-2.28-1.31-4.91-1.97-7.91-1.97-3.2,0-6.04.75-8.54,2.24-2.49,1.5-4.43,3.61-5.82,6.34-1.39,2.73-2.08,5.93-2.08,9.6s.69,6.81,2.08,9.57c1.39,2.75,3.33,4.87,5.82,6.37,2.5,1.5,5.34,2.24,8.54,2.24,3,0,5.63-.67,7.91-2,2.29-1.34,4.06-3.32,5.32-5.94Z"/>
          <polygon class="cls-2" points="381.38 33.05 381.38 46.82 399.87 46.82 399.87 55.56 381.38 55.56 381.38 70.12 402.23 70.12 402.23 79.09 370.36 79.09 370.36 24.08 402.23 24.08 402.23 33.05 381.38 33.05"/>
        </g>
      </g>
    </g>
  </g>
</svg>