<?xml version="1.0" encoding="UTF-8"?>
<svg id="Layer_2" xmlns="http://www.w3.org/2000/svg" viewBox="0 0 899.5 899.5">
  <defs>
    <style>
      .cls-1 {
        fill: #ffa6a6;
      }

      .cls-2 {
        fill: #994545;
      }
    </style>
  </defs>
  <g id="Layer_1-2" data-name="Layer_1">
    <g>
      <rect class="cls-1" width="899.5" height="899.5"/>
      <path class="cls-2" d="M520.46,449.75l141.42-141.42c19.53-19.53,19.53-51.18,0-70.71h0c-19.53-19.53-51.18-19.53-70.71,0l-141.42,141.42-141.42-141.42c-19.53-19.53-51.18-19.53-70.71,0h0c-19.53,19.53-19.53,51.18,0,70.71l141.42,141.42-141.42,141.42c-19.53,19.53-19.53,51.18,0,70.71h0c19.53,19.53,51.18,19.53,70.71,0l141.42-141.42,141.42,141.42c19.53,19.53,51.18,19.53,70.71,0h0c19.53-19.53,19.53-51.18,0-70.71l-141.42-141.42Z"/>
    </g>
  </g>
</svg>