<?xml version="1.0" encoding="UTF-8"?>
<svg id="Layer_2" xmlns="http://www.w3.org/2000/svg" viewBox="0 0 347.39 322.6">
  <defs>
    <style>
      .cls-1 {
        fill: #efc69b;
      }
    </style>
  </defs>
  <g id="Layer_1-2" data-name="Layer_1">
    <path class="cls-1" d="M344.9,17.58l-119.41,143.43c-3.74,4.5-5.79,10.16-5.79,16.01v102.64c0,4.1-2.39,7.83-6.11,9.55l-.13.06-70.59,32.35c-1.46.65-2.98.97-4.49.97-2.04,0-4.04-.58-5.8-1.72-3.05-1.98-4.88-5.34-4.88-8.99v-134.87c0-5.85-2.05-11.52-5.79-16.01L2.48,17.56C-.15,14.46-.75,9.97.99,6.21,2.74,2.44,6.55,0,10.71,0h325.98c4.15,0,7.97,2.44,9.72,6.21,1.73,3.75,1.14,8.21-1.51,11.37Z"/>
  </g>
</svg>