<?xml version="1.0" encoding="UTF-8"?>
<svg id="Layer_2" xmlns="http://www.w3.org/2000/svg" viewBox="0 0 100 100">
  <defs>
    <style>
      .cls-1 {
        fill: none;
      }

      .cls-2 {
        fill: #c1272d;
      }
    </style>
  </defs>
  <g id="Layer_1-2" data-name="Layer_1">
    <g>
      <rect class="cls-1" width="100" height="100"/>
      <g>
        <path class="cls-2" d="M36.92,69.21c-3.9,5.71-11.35,9.21-17.69,5.01-6.4-4.24-7.97-12.99-7.5-20.07.51-7.59,2.88-16.17,6.24-23,1.56-3.17,3.96-6.71,7.66-7.51,3.72-.8,7.33,1.36,8.65,4.85,2.65,6.96,13.95,3.94,11.27-3.11-4.55-11.95-18.21-17.67-29.34-10.09C5.47,22.6,1.51,39.9.24,51.96c-1.31,12.46,2.77,26.79,14.45,33.15,11.95,6.51,25.22.37,32.31-10.01,4.25-6.22-5.87-12.07-10.09-5.9Z"/>
        <path class="cls-2" d="M88.27,20.68c-.95,8.51-1.5,17.04-1.85,25.58l-19.83-.91c.35-8.24.89-16.46,1.81-24.67.84-7.46-10.85-7.4-11.68,0-2.28,20.35-2.32,40.81-2.49,61.26-.06,7.52,11.62,7.53,11.68,0,.07-8.31.12-16.62.31-24.92,6.61.3,13.23.6,19.84.91-.17,8-.22,16.01-.29,24.02-.06,7.52,11.62,7.53,11.68,0,.17-20.45.21-40.91,2.49-61.26.84-7.46-10.85-7.4-11.68,0Z"/>
      </g>
    </g>
  </g>
</svg>