<?xml version="1.0" encoding="UTF-8"?>
<svg id="Layer_2" data-name="Layer 2" xmlns="http://www.w3.org/2000/svg" viewBox="0 0 1920.5 1968">
  <defs>
    <style>
      .cls-1 {
        fill: #ffb13b;
      }

      .cls-2 {
        fill: #ff7373;
      }

      .cls-3 {
        fill: #fff;
      }

      .cls-4 {
        fill: #0e2432;
      }

      .cls-5 {
        fill: #ffe1b3;
      }

      .cls-6 {
        fill: #994545;
      }

      .cls-7 {
        fill: #a17025;
      }

      .cls-8 {
        fill: #ccc;
      }
    </style>
  </defs>
  <g id="Layer_1-2" data-name="Layer 1">
    <g>
      <rect class="cls-3" x=".5" width="1920" height="1968"/>
      <rect class="cls-5" x="548.5" y="271" width="824" height="281" rx="30.31" ry="30.31"/>
      <rect class="cls-1" y=".5" width="1920" height="104.5"/>
      <rect class="cls-1" y="1863.5" width="1920" height="104.5"/>
      <g>
        <path class="cls-7" d="M198.8,36.83c-.14,1.75-.91,3.03-1.73,4.38-.91,1.5-2.15,3.54-3.14,7.01v.03c-.14.46-.28.93-.41,1.41-1.28,4.43-2.88,9.94-5.36,14.57-3.44,6.42-8.04,10.02-13.67,10.71-.61.08-1.25.12-1.88.12-7.04,0-11.89-5.03-13.06-9.4-2.1-.87-3.87-2.3-5.12-4.14-.06.01-.12.02-.18.03-1.07.18-2.17.27-3.18.27-1.29,0-2.4-.15-3.35-.39-1,1.02-2.31,1.66-3.66,1.91-.83.15-2.11.33-3.52.33-2.05,0-3.7-.4-5-1.05-2.1,1.9-4.72,3.34-7.95,4.04-.97.21-1.96.32-2.95.32-1.31,0-2.46-.19-3.44-.44-1.6,1.15-3.91,2.47-6.94,3.21-1.04.26-2.08.39-3.08.39-2.09,0-4-.58-5.58-1.62-2.35,3.07-5.82,5.46-10.08,6.69-1.8.51-3.65.78-5.5.78-6.28,0-11.3-2.97-13.09-7.76-.03-.07-.05-.15-.08-.22-.03.01-.06.02-.1.03-3.41,1.09-6.85,2.23-10.25,3.39.24.33.44.67.6,1.01.63,1.33,1.1,3.52-.26,6.26l-.03.07-.04.07c-1.56,2.96-5.02,6.79-10.04,8.67-1.35.5-2.72.88-4.09,1.13-1.37.25-2.75.38-4.12.38-7.16,0-13.35-3.54-17-9.73l-.02-.03c-.12-.21-.24-.42-.36-.64-2.52-4.64-3.26-10.12-2.09-15.43.34-1.53.62-2.46.77-2.91l.03-.11.09-.24c2.75-7.23,9.25-13.72,16.16-16.16,2.3-.82,4.58-1.23,6.78-1.23,5.39,0,9.72,2.61,11.6,6.98v.03c.28.63.39,1.01.46,1.24.2.72.64,2.33.45,4.19,2.52-.84,5.05-1.66,7.56-2.46.82-.26,1.55-.38,2.29-.38,2.24,0,4.2,1.14,5.34,3.03.43-.42.89-.81,1.37-1.17-.95-1.18-1.76-2.5-2.29-4.04l-.02-.06c-.68-2.05-.87-4.17-.56-6.31.08-.8.39-2.52,2.06-5.68l.1-.19.12-.19c2.54-4.03,6.76-6.99,11.87-8.35,1.5-.4,2.97-.6,4.36-.6,5.43,0,9.73,3.16,10.95,8.04.36,1.45.4,2.94.14,4.39.75-.16,1.53-.25,2.31-.25,1.24,0,2.45.2,3.58.57.94-1.32,2.38-2.28,4.21-2.69,1.1-.25,2.19-.37,3.24-.37s2.15.14,3.12.39c.97-1.08,2.37-1.92,4.22-2.29,1-.2,1.99-.31,2.93-.31,1.45,0,2.76.24,3.92.66.32-.39.69-.76,1.11-1.08-.02-.14-.04-.29-.06-.43-.62-5.67,3.4-11.06,8.96-12.02.59-.1,1.18-.15,1.75-.15,4.62,0,8.21,3.26,8.54,7.75.04.58.03,1.16-.02,1.73.47.14.97.31,1.46.54,1.89-1.26,4.33-2.44,7.22-2.85.59-.08,1.17-.12,1.73-.12,2.57,0,4.79.92,6.36,2.47,3.47-2.66,7.53-4.33,11.73-4.76.61-.06,1.23-.1,1.83-.1,4.06,0,7.8,1.44,10.01,3.86,1.41,1.54,2.1,3.42,1.95,5.31Z"/>
        <path class="cls-3" d="M98.16,39.02s0,0,0,.02c0,0,0-.01,0-.02h0Z"/>
        <g>
          <path class="cls-3" d="M63.21,66.52c-.48.17-.83.02-1.06-.48-.27-.59-.35-3.88.5-4.17,3.99-1.36,8-2.68,12.02-3.96.7-.22.95-.14,1.14.37.23.61.02,4.06-.8,4.32-3.95,1.26-7.88,2.57-11.81,3.92Z"/>
          <path class="cls-3" d="M93.95,69.74c-4.85,1.38-10.32.16-11.7-3.52-1.39-3.68,2.3-8.07,5.8-9.08.45-.13.97-.08,1.09.3.24.75-1.46,2.39-.22,6.06.8,2.35,2.67,3.51,5.04,2.83,2.07-.59,3.55-3,2.76-5.67-1.42-4.92-9.89-7.42-11.67-12.58-.42-1.27-.51-2.59-.3-3.89.05-1.05,1.43-3.66,1.43-3.66,1.67-2.64,4.65-4.86,8.52-5.89,4.48-1.19,7.58.29,8.33,3.32.28,1.14.14,2.27-.36,3.25-.81,1.45-4.6,2.87-5.31,2.16-.67-.67.62-3.93.78-4.33,0,0,0,0,0,0,0,0,0,0,0,0,0,0,0,0,0,0,0-.01,0-.02,0-.02.06-.19.06-.38.01-.56-.19-.72-1-.92-2.34-.56-1.67.44-3.33,1.51-4.08,3.05-.4.87-.55,2.21-.06,3.25,1.66,3.64,9.66,5.35,11.3,11.6,1.7,6.48-2.64,12.1-9.04,13.94Z"/>
          <path class="cls-3" d="M108.51,47.74c-.12-.48.32-.95,1.25-1.18,2.6-.64,5.6.9,6.02,2.89.58,2.77-2.26,6.86-1.69,9.27.13.58.59.78,1.09.66,2.71-.65,4.99-8.09,3.93-13.65-.16-.78-.11-1.35.93-1.58,3.75-.84,6.08.75,6.34,2.32.23,1.52-2.14,8.43-1.85,9.84.11.59.51.8,1,.69,3.23-.71,4.92-7.79,4.27-12.07-.22-1.37-.54-1.36-.62-1.9-.08-.49.34-.93,1.33-1.14,3.77-.77,5.82.92,6.02,2.49.7,5.64-1.87,14.89-10.15,16.69-3.54.78-5.9-1.06-6.2-1-.45.11-2.79,3.03-7.27,4.13-2.89.71-5.11-.3-5.77-2.79-.94-3.45,2.27-9.83,1.37-13.69Z"/>
          <path class="cls-3" d="M143.82,56.37c.08.74-.02,1.22-.8,1.36-2.3.42-5.55.45-5.8-1.32-.54-3.55,3.63-11.63,3.23-15.59-.06-.49.37-.93,1.37-1.11,3.16-.58,5.3,1.32,5.43,2.72.22,2.88-3.89,10.18-3.42,13.94ZM147.2,28.76c1.96-.34,3.52.57,3.66,2.41.18,2.54-1.7,5.28-4.13,5.7-1.85.32-3.61-.52-3.8-2.3-.28-2.58,1.59-5.34,4.27-5.8Z"/>
          <path class="cls-3" d="M161.24,40.78c-.78.12-2.45,1.48-3.82,3.96-1.66,3.03-3.41,7.7-3.25,9.85.05.75-.07,1.22-.85,1.35-2.31.38-5.55.34-5.73-1.45-.39-3.57,3.63-11.53,3.37-15.52-.04-.5.41-.93,1.41-1.09,4.7-.76,5.1,2.87,5.3,2.83.19-.03,3.53-4.23,8.31-4.9,2.65-.37,4.03.76,4.04,2.78,0,3.42-4.14,8.47-4,13.34.06,2.51,1.67,4.24,4.65,3.85,1.52-.2,2.21-.84,2.6-.89.34-.04.64.17.63.52-.02,1.01-3.1,4.7-8.21,5.42-4.02.56-7.37-1.68-7.61-5.72-.36-5.85,4.05-11.66,4.01-13.66-.02-.45-.29-.76-.86-.68Z"/>
          <path class="cls-3" d="M181.5,49.69c0-.1-.1-.09-.15-.08-.36.04-2.88,2.78-7.17,3.31-2.52.31-4.11-1.18-4.14-4-.13-6.53,6.79-14.58,15.55-15.49,4.59-.48,7.63,1.78,7.53,2.95-.09,1.17-2.8,3.79-4.67,10.27-2.55,8.74-5.77,21.55-14.66,22.64-5.75.72-8.77-3.91-8.84-5.57-.01-.45.31-.8.69-.85.67-.09,1.26.98,4.16.59,6.97-.91,9.98-8.83,11.57-13.4.05-.11.11-.21.11-.37ZM177.37,46.78c-.01.51.28.87.89.8,2.62-.31,7.25-9.02,7.34-10.13.02-.46-.18-.64-.6-.59-3.24.33-7.6,6.64-7.64,9.92Z"/>
          <path class="cls-3" d="M61.95,74.83c-.23-.5-1.37-1.37-1.8-1.21-.29.1-.47.32-.77.75-1.01,1.53-2.18,2.69-4.12,3.4-3.22,1.18-7.42.15-9.67-4.02-1.73-3.25-2.11-6.39-2.23-9.28-.04-1.04.14-2.85.17-3.2,0-.04,0-.08.02-.12.69-4.54,3.24-7.89,6.06-8.89,1.21-.43,2.33.02,2.75.93,0,0,0,0,0,0,.13.28.17.59.16.89-.06,1.42-.36,2.8,3.34,2.59,4.03-.24,4.27-1.9,3.58-4.39-.04-.13-.12-.35-.19-.52-1.58-3.67-6.36-4.37-11.26-2.63-5,1.77-10.43,6.77-12.74,12.82v.02c-.05.12-.3.88-.65,2.45-.86,3.89-.37,7.99,1.53,11.49.09.16.18.32.27.49,4.2,7.11,11.87,8.17,18.32,5.77,3.4-1.27,5.94-3.98,7-5.99.28-.58.37-.98.2-1.34Z"/>
        </g>
      </g>
      <g>
        <path class="cls-7" d="M257.61,42.96v20.99h-4.21v-8.93h-8.99v8.93h-4.21v-20.99h4.21v8.63h8.99v-8.63h4.21Z"/>
        <path class="cls-7" d="M266.09,62.78c-1.64-.92-2.95-2.2-3.91-3.83-.96-1.63-1.44-3.48-1.44-5.55s.48-3.88,1.44-5.52c.96-1.63,2.27-2.91,3.91-3.83,1.64-.92,3.45-1.38,5.41-1.38s3.79.46,5.43,1.38c1.63.92,2.93,2.2,3.88,3.83.95,1.63,1.43,3.47,1.43,5.52s-.48,3.92-1.43,5.55c-.95,1.63-2.25,2.91-3.89,3.83-1.64.92-3.45,1.38-5.41,1.38s-3.77-.46-5.41-1.38ZM274.85,59.55c.96-.57,1.71-1.39,2.25-2.45.54-1.06.81-2.3.81-3.7s-.27-2.63-.81-3.68-1.29-1.86-2.25-2.42c-.96-.56-2.08-.84-3.34-.84s-2.38.28-3.35.84c-.97.56-1.73,1.37-2.27,2.42s-.81,2.28-.81,3.68.27,2.64.81,3.7c.54,1.06,1.3,1.88,2.27,2.45.97.57,2.09.86,3.35.86s2.38-.29,3.34-.86Z"/>
        <path class="cls-7" d="M308.26,42.96v20.99h-4.21v-13.65l-5.62,13.65h-3.19l-5.65-13.65v13.65h-4.21v-20.99h4.78l6.68,15.61,6.68-15.61h4.75Z"/>
        <path class="cls-7" d="M316.62,46.36v5.26h7.07v3.34h-7.07v5.56h7.97v3.43h-12.18v-21.02h12.18v3.43h-7.97Z"/>
      </g>
      <g>
        <path class="cls-7" d="M388.53,42.96v3.4h-5.59v17.59h-4.21v-17.59h-5.59v-3.4h15.4Z"/>
        <path class="cls-7" d="M395.81,46.36v5.26h7.07v3.34h-7.07v5.56h7.97v3.43h-12.18v-21.02h12.18v3.43h-7.97Z"/>
        <path class="cls-7" d="M430.48,42.96v20.99h-4.21v-13.65l-5.62,13.65h-3.19l-5.65-13.65v13.65h-4.21v-20.99h4.78l6.68,15.61,6.68-15.61h4.75Z"/>
        <path class="cls-7" d="M449.14,52.61c-.53.98-1.36,1.77-2.5,2.38s-2.56.9-4.29.9h-3.52v8.06h-4.21v-20.99h7.73c1.62,0,3.01.28,4.15.84,1.14.56,2,1.33,2.57,2.32.57.98.86,2.1.86,3.34,0,1.12-.27,2.18-.8,3.16ZM444.77,51.7c.56-.53.84-1.28.84-2.24,0-2.04-1.14-3.07-3.43-3.07h-3.34v6.11h3.34c1.16,0,2.03-.27,2.59-.8Z"/>
        <path class="cls-7" d="M457.25,62.78c-1.64-.92-2.95-2.2-3.91-3.83s-1.44-3.48-1.44-5.55.48-3.88,1.44-5.52,2.27-2.91,3.91-3.83c1.64-.92,3.45-1.38,5.41-1.38s3.79.46,5.43,1.38c1.63.92,2.93,2.2,3.88,3.83s1.43,3.47,1.43,5.52-.48,3.92-1.43,5.55-2.25,2.91-3.89,3.83c-1.64.92-3.45,1.38-5.41,1.38s-3.77-.46-5.41-1.38ZM466,59.55c.96-.57,1.71-1.39,2.26-2.45.54-1.06.81-2.3.81-3.7s-.27-2.63-.81-3.68c-.54-1.05-1.29-1.86-2.26-2.42-.96-.56-2.08-.84-3.34-.84s-2.38.28-3.35.84c-.97.56-1.73,1.37-2.27,2.42s-.81,2.28-.81,3.68.27,2.64.81,3.7c.54,1.06,1.3,1.88,2.27,2.45.97.57,2.09.86,3.35.86s2.38-.29,3.34-.86Z"/>
        <path class="cls-7" d="M503.81,42.96v3.4h-8.75v5.38h6.71v3.34h-6.71v8.87h-4.21v-20.99h12.96Z"/>
        <path class="cls-7" d="M510.99,42.96v20.99h-4.21v-20.99h4.21Z"/>
        <path class="cls-7" d="M533.1,63.95h-4.21l-9.53-14.41v14.41h-4.21v-21.02h4.21l9.53,14.44v-14.44h4.21v21.02Z"/>
        <path class="cls-7" d="M550.41,44.25c1.67.86,2.97,2.09,3.88,3.68.91,1.59,1.37,3.44,1.37,5.55s-.46,3.95-1.37,5.52c-.91,1.57-2.21,2.79-3.88,3.65-1.67.86-3.61,1.29-5.82,1.29h-7.34v-20.99h7.34c2.21,0,4.14.43,5.82,1.29ZM549.55,58.57c1.2-1.2,1.8-2.9,1.8-5.08s-.6-3.89-1.8-5.13c-1.2-1.23-2.91-1.85-5.11-1.85h-2.98v13.86h2.98c2.21,0,3.91-.6,5.11-1.8Z"/>
        <path class="cls-7" d="M563.02,46.36v5.26h7.07v3.34h-7.07v5.56h7.97v3.43h-12.18v-21.02h12.18v3.43h-7.97Z"/>
        <path class="cls-7" d="M585.64,63.95l-4.63-8.18h-1.98v8.18h-4.21v-20.99h7.88c1.62,0,3.01.29,4.15.86s2,1.34,2.57,2.32c.57.97.86,2.06.86,3.26,0,1.38-.4,2.63-1.2,3.74-.8,1.11-2,1.88-3.58,2.3l5.02,8.51h-4.87ZM579.02,52.61h3.52c1.14,0,1.99-.28,2.56-.83.56-.55.84-1.32.84-2.3s-.28-1.71-.84-2.24c-.56-.53-1.41-.8-2.56-.8h-3.52v6.17Z"/>
      </g>
      <g>
        <path class="cls-7" d="M971.99,52.61c-.53.98-1.36,1.77-2.5,2.38s-2.56.9-4.29.9h-3.52v8.06h-4.21v-20.99h7.73c1.62,0,3.01.28,4.15.84,1.14.56,2,1.33,2.57,2.32.57.98.86,2.1.86,3.34,0,1.12-.27,2.18-.8,3.16ZM967.62,51.7c.56-.53.84-1.28.84-2.24,0-2.04-1.14-3.07-3.43-3.07h-3.34v6.11h3.34c1.16,0,2.03-.27,2.59-.8Z"/>
        <path class="cls-7" d="M986.59,63.95l-4.63-8.18h-1.98v8.18h-4.21v-20.99h7.88c1.62,0,3.01.29,4.15.86,1.14.57,2,1.34,2.57,2.32.57.97.86,2.06.86,3.26,0,1.38-.4,2.63-1.2,3.74-.8,1.11-2,1.88-3.58,2.3l5.02,8.51h-4.87ZM979.98,52.61h3.52c1.14,0,2-.28,2.56-.83.56-.55.84-1.32.84-2.3s-.28-1.71-.84-2.24c-.56-.53-1.41-.8-2.56-.8h-3.52v6.17Z"/>
        <path class="cls-7" d="M1007.92,59.95h-8.36l-1.38,4h-4.42l7.55-21.02h4.9l7.55,21.02h-4.45l-1.38-4ZM1006.77,56.58l-3.04-8.78-3.04,8.78h6.08Z"/>
        <path class="cls-7" d="M1016.95,47.88c.93-1.63,2.21-2.91,3.82-3.82,1.61-.91,3.42-1.37,5.43-1.37,2.35,0,4.4.6,6.17,1.8,1.76,1.2,3,2.87,3.7,4.99h-4.84c-.48-1-1.16-1.75-2.03-2.26-.87-.5-1.88-.75-3.02-.75-1.22,0-2.31.29-3.26.86-.95.57-1.69,1.38-2.23,2.42-.53,1.04-.8,2.27-.8,3.67s.27,2.6.8,3.65c.53,1.05,1.27,1.86,2.23,2.44.95.57,2.04.86,3.26.86,1.14,0,2.15-.26,3.02-.77.87-.51,1.55-1.27,2.03-2.27h4.84c-.7,2.15-1.93,3.81-3.68,5.01-1.75,1.19-3.81,1.79-6.18,1.79-2,0-3.81-.46-5.43-1.37-1.61-.91-2.89-2.18-3.82-3.8s-1.4-3.47-1.4-5.53.47-3.91,1.4-5.55Z"/>
        <path class="cls-7" d="M1053.96,42.96v3.4h-5.59v17.59h-4.21v-17.59h-5.59v-3.4h15.4Z"/>
        <path class="cls-7" d="M1061.24,42.96v20.99h-4.21v-20.99h4.21Z"/>
        <path class="cls-7" d="M1065.76,47.88c.93-1.63,2.21-2.91,3.82-3.82,1.61-.91,3.42-1.37,5.43-1.37,2.35,0,4.4.6,6.17,1.8,1.76,1.2,3,2.87,3.7,4.99h-4.84c-.48-1-1.16-1.75-2.03-2.26-.87-.5-1.88-.75-3.02-.75-1.22,0-2.31.29-3.26.86-.95.57-1.69,1.38-2.23,2.42-.53,1.04-.8,2.27-.8,3.67s.27,2.6.8,3.65c.53,1.05,1.27,1.86,2.23,2.44.95.57,2.04.86,3.26.86,1.14,0,2.15-.26,3.02-.77.87-.51,1.55-1.27,2.03-2.27h4.84c-.7,2.15-1.93,3.81-3.68,5.01-1.75,1.19-3.81,1.79-6.18,1.79-2,0-3.81-.46-5.43-1.37-1.61-.91-2.89-2.18-3.82-3.8s-1.4-3.47-1.4-5.53.47-3.91,1.4-5.55Z"/>
        <path class="cls-7" d="M1092.7,46.36v5.26h7.07v3.34h-7.07v5.56h7.97v3.43h-12.18v-21.02h12.18v3.43h-7.97Z"/>
        <path class="cls-7" d="M1141.69,42.96v20.99h-4.21v-13.65l-5.62,13.65h-3.19l-5.65-13.65v13.65h-4.21v-20.99h4.78l6.68,15.61,6.68-15.61h4.75Z"/>
        <path class="cls-7" d="M1149.99,42.96v12.99c0,1.42.37,2.51,1.11,3.26.74.75,1.78,1.13,3.13,1.13s2.42-.38,3.16-1.13c.74-.75,1.11-1.84,1.11-3.26v-12.99h4.24v12.96c0,1.79-.39,3.29-1.16,4.53-.77,1.23-1.8,2.16-3.1,2.78-1.29.62-2.73.93-4.32.93s-2.98-.31-4.26-.93-2.28-1.55-3.02-2.78c-.74-1.23-1.11-2.74-1.11-4.53v-12.96h4.21Z"/>
        <path class="cls-7" d="M1170.09,63.41c-1.17-.5-2.1-1.22-2.78-2.17-.68-.94-1.03-2.06-1.05-3.34h4.51c.06.86.37,1.54.92,2.04.55.5,1.31.75,2.27.75s1.75-.24,2.32-.71c.56-.47.84-1.09.84-1.85,0-.62-.19-1.13-.57-1.53-.38-.4-.86-.72-1.43-.95-.57-.23-1.36-.49-2.36-.77-1.36-.4-2.47-.8-3.32-1.19-.85-.39-1.58-.98-2.2-1.77-.61-.79-.92-1.85-.92-3.17,0-1.24.31-2.33.93-3.25.62-.92,1.49-1.63,2.62-2.12,1.12-.49,2.41-.74,3.85-.74,2.17,0,3.92.53,5.28,1.58s2.1,2.52,2.24,4.41h-4.63c-.04-.72-.35-1.32-.92-1.79-.57-.47-1.33-.71-2.27-.71-.82,0-1.48.21-1.97.63-.49.42-.74,1.03-.74,1.83,0,.56.18,1.03.56,1.4.37.37.83.67,1.38.9s1.33.5,2.33.8c1.36.4,2.48.8,3.34,1.2.86.4,1.6,1,2.23,1.8s.93,1.85.93,3.16c0,1.12-.29,2.17-.87,3.13-.58.96-1.43,1.73-2.56,2.3-1.12.57-2.46.86-4,.86-1.46,0-2.78-.25-3.96-.75Z"/>
        <path class="cls-7" d="M1189.33,42.96v20.99h-4.21v-20.99h4.21Z"/>
        <path class="cls-7" d="M1193.85,47.88c.93-1.63,2.21-2.91,3.82-3.82,1.61-.91,3.42-1.37,5.43-1.37,2.35,0,4.4.6,6.17,1.8,1.76,1.2,3,2.87,3.7,4.99h-4.84c-.48-1-1.16-1.75-2.03-2.26-.87-.5-1.88-.75-3.02-.75-1.22,0-2.31.29-3.26.86-.95.57-1.69,1.38-2.23,2.42-.53,1.04-.8,2.27-.8,3.67s.27,2.6.8,3.65c.53,1.05,1.27,1.86,2.23,2.44.95.57,2.04.86,3.26.86,1.14,0,2.15-.26,3.02-.77.87-.51,1.55-1.27,2.03-2.27h4.84c-.7,2.15-1.93,3.81-3.68,5.01-1.75,1.19-3.81,1.79-6.18,1.79-2,0-3.81-.46-5.43-1.37-1.61-.91-2.89-2.18-3.82-3.8s-1.4-3.47-1.4-5.53.47-3.91,1.4-5.55Z"/>
      </g>
      <g>
        <path class="cls-7" d="M652.56,52.61c-.53.98-1.36,1.77-2.5,2.38s-2.56.9-4.29.9h-3.52v8.06h-4.21v-20.99h7.73c1.62,0,3.01.28,4.15.84,1.14.56,2,1.33,2.57,2.32.57.98.86,2.1.86,3.34,0,1.12-.27,2.18-.8,3.16ZM648.19,51.7c.56-.53.84-1.28.84-2.24,0-2.04-1.14-3.07-3.43-3.07h-3.34v6.11h3.34c1.16,0,2.02-.27,2.59-.8Z"/>
        <path class="cls-7" d="M667.17,63.95l-4.63-8.18h-1.99v8.18h-4.21v-20.99h7.88c1.62,0,3.01.29,4.15.86,1.14.57,2,1.34,2.57,2.32.57.97.86,2.06.86,3.26,0,1.38-.4,2.63-1.2,3.74-.8,1.11-2,1.88-3.58,2.3l5.02,8.51h-4.87ZM660.55,52.61h3.52c1.14,0,2-.28,2.56-.83.56-.55.84-1.32.84-2.3s-.28-1.71-.84-2.24c-.56-.53-1.41-.8-2.56-.8h-3.52v6.17Z"/>
        <path class="cls-7" d="M688.49,59.95h-8.36l-1.38,4h-4.42l7.55-21.02h4.9l7.55,21.02h-4.45l-1.38-4ZM687.35,56.58l-3.04-8.78-3.04,8.78h6.08Z"/>
        <path class="cls-7" d="M697.53,47.88c.93-1.63,2.21-2.91,3.82-3.82,1.61-.91,3.42-1.37,5.43-1.37,2.35,0,4.4.6,6.17,1.8,1.76,1.2,3,2.87,3.7,4.99h-4.84c-.48-1-1.16-1.75-2.03-2.26-.87-.5-1.88-.75-3.02-.75-1.22,0-2.31.29-3.26.86-.95.57-1.7,1.38-2.23,2.42-.53,1.04-.8,2.27-.8,3.67s.27,2.6.8,3.65c.53,1.05,1.27,1.86,2.23,2.44.95.57,2.04.86,3.26.86,1.14,0,2.15-.26,3.02-.77.87-.51,1.55-1.27,2.03-2.27h4.84c-.7,2.15-1.93,3.81-3.68,5.01-1.75,1.19-3.81,1.79-6.18,1.79-2.01,0-3.82-.46-5.43-1.37-1.61-.91-2.89-2.18-3.82-3.8-.93-1.62-1.4-3.47-1.4-5.53s.47-3.91,1.4-5.55Z"/>
        <path class="cls-7" d="M734.53,42.96v3.4h-5.59v17.59h-4.21v-17.59h-5.59v-3.4h15.4Z"/>
        <path class="cls-7" d="M741.81,42.96v20.99h-4.21v-20.99h4.21Z"/>
        <path class="cls-7" d="M746.34,47.88c.93-1.63,2.21-2.91,3.82-3.82,1.61-.91,3.42-1.37,5.43-1.37,2.35,0,4.4.6,6.17,1.8,1.76,1.2,3,2.87,3.7,4.99h-4.84c-.48-1-1.16-1.75-2.03-2.26-.87-.5-1.88-.75-3.02-.75-1.22,0-2.31.29-3.26.86s-1.69,1.38-2.23,2.42c-.53,1.04-.8,2.27-.8,3.67s.27,2.6.8,3.65c.53,1.05,1.27,1.86,2.23,2.44s2.04.86,3.26.86c1.14,0,2.15-.26,3.02-.77.87-.51,1.55-1.27,2.03-2.27h4.84c-.7,2.15-1.93,3.81-3.68,5.01-1.75,1.19-3.81,1.79-6.18,1.79-2,0-3.82-.46-5.43-1.37-1.61-.91-2.89-2.18-3.82-3.8s-1.4-3.47-1.4-5.53.47-3.91,1.4-5.55Z"/>
        <path class="cls-7" d="M773.27,46.36v5.26h7.07v3.34h-7.07v5.56h7.97v3.43h-12.18v-21.02h12.18v3.43h-7.97Z"/>
        <path class="cls-7" d="M818.23,42.96l-7.7,20.99h-5.11l-7.7-20.99h4.51l5.78,16.69,5.74-16.69h4.48Z"/>
        <path class="cls-7" d="M824.97,42.96v20.99h-4.21v-20.99h4.21Z"/>
        <path class="cls-7" d="M842.28,44.25c1.67.86,2.97,2.09,3.88,3.68.91,1.59,1.37,3.44,1.37,5.55s-.46,3.95-1.37,5.52c-.91,1.57-2.21,2.79-3.88,3.65-1.67.86-3.61,1.29-5.82,1.29h-7.34v-20.99h7.34c2.21,0,4.14.43,5.82,1.29ZM841.42,58.57c1.2-1.2,1.8-2.9,1.8-5.08s-.6-3.89-1.8-5.13c-1.2-1.23-2.91-1.85-5.11-1.85h-2.98v13.86h2.98c2.21,0,3.91-.6,5.11-1.8Z"/>
        <path class="cls-7" d="M854.89,46.36v5.26h7.07v3.34h-7.07v5.56h7.97v3.43h-12.18v-21.02h12.18v3.43h-7.97Z"/>
        <path class="cls-7" d="M871.02,62.78c-1.64-.92-2.95-2.2-3.91-3.83-.96-1.63-1.44-3.48-1.44-5.55s.48-3.88,1.44-5.52c.96-1.63,2.27-2.91,3.91-3.83,1.64-.92,3.45-1.38,5.41-1.38s3.79.46,5.43,1.38c1.63.92,2.93,2.2,3.88,3.83.95,1.63,1.43,3.47,1.43,5.52s-.48,3.92-1.43,5.55c-.95,1.63-2.25,2.91-3.89,3.83-1.64.92-3.45,1.38-5.41,1.38s-3.77-.46-5.41-1.38ZM879.77,59.55c.96-.57,1.71-1.39,2.25-2.45.54-1.06.81-2.3.81-3.7s-.27-2.63-.81-3.68-1.29-1.86-2.25-2.42c-.96-.56-2.08-.84-3.34-.84s-2.38.28-3.35.84c-.97.56-1.73,1.37-2.27,2.42s-.81,2.28-.81,3.68.27,2.64.81,3.7c.54,1.06,1.3,1.88,2.27,2.45.97.57,2.09.86,3.35.86s2.38-.29,3.34-.86Z"/>
        <path class="cls-7" d="M893.59,63.41c-1.17-.5-2.1-1.22-2.78-2.17s-1.03-2.06-1.05-3.34h4.51c.06.86.37,1.54.92,2.04.55.5,1.31.75,2.27.75s1.75-.24,2.32-.71c.56-.47.84-1.09.84-1.85,0-.62-.19-1.13-.57-1.53-.38-.4-.86-.72-1.43-.95-.57-.23-1.36-.49-2.36-.77-1.36-.4-2.47-.8-3.32-1.19-.85-.39-1.58-.98-2.2-1.77-.61-.79-.92-1.85-.92-3.17,0-1.24.31-2.33.93-3.25s1.49-1.63,2.62-2.12c1.12-.49,2.41-.74,3.85-.74,2.17,0,3.92.53,5.28,1.58s2.1,2.52,2.24,4.41h-4.63c-.04-.72-.35-1.32-.92-1.79-.57-.47-1.33-.71-2.27-.71-.82,0-1.48.21-1.97.63-.49.42-.74,1.03-.74,1.83,0,.56.18,1.03.56,1.4.37.37.83.67,1.38.9.55.23,1.33.5,2.33.8,1.36.4,2.48.8,3.34,1.2.86.4,1.6,1,2.22,1.8s.93,1.85.93,3.16c0,1.12-.29,2.17-.87,3.13-.58.96-1.43,1.73-2.56,2.3-1.12.57-2.46.86-4,.86-1.46,0-2.78-.25-3.96-.75Z"/>
      </g>
      <g>
        <path class="cls-4" d="M750.59,179.96v7.62h-12.55v39.47h-9.45v-39.47h-12.55v-7.62h34.55Z"/>
        <path class="cls-4" d="M766.92,187.59v11.81h15.86v7.49h-15.86v12.48h17.88v7.69h-27.33v-47.16h27.33v7.69h-17.88Z"/>
        <path class="cls-4" d="M844.72,179.96v47.1h-9.45v-30.63l-12.62,30.63h-7.15l-12.69-30.63v30.63h-9.45v-47.1h10.73l14.98,35.02,14.98-35.02h10.66Z"/>
        <path class="cls-4" d="M886.58,201.62c-1.19,2.2-3.06,3.98-5.6,5.33-2.54,1.35-5.75,2.02-9.62,2.02h-7.89v18.08h-9.45v-47.1h17.34c3.64,0,6.75.63,9.31,1.89,2.56,1.26,4.49,2.99,5.77,5.2,1.28,2.2,1.92,4.7,1.92,7.49,0,2.52-.6,4.88-1.79,7.08ZM876.77,199.56c1.26-1.19,1.89-2.87,1.89-5.03,0-4.59-2.56-6.88-7.69-6.88h-7.49v13.7h7.49c2.61,0,4.54-.6,5.8-1.79Z"/>
        <path class="cls-4" d="M904.77,224.43c-3.69-2.07-6.61-4.94-8.77-8.6-2.16-3.67-3.24-7.82-3.24-12.45s1.08-8.71,3.24-12.38c2.16-3.67,5.08-6.53,8.77-8.6,3.69-2.07,7.74-3.1,12.15-3.1s8.51,1.04,12.18,3.1c3.67,2.07,6.57,4.94,8.7,8.6,2.14,3.67,3.21,7.79,3.21,12.38s-1.07,8.78-3.21,12.45c-2.14,3.67-5.05,6.53-8.74,8.6-3.69,2.07-7.74,3.1-12.14,3.1s-8.46-1.03-12.15-3.1ZM924.4,217.17c2.16-1.28,3.85-3.11,5.06-5.5,1.21-2.38,1.82-5.15,1.82-8.3s-.61-5.9-1.82-8.27c-1.21-2.36-2.9-4.17-5.06-5.43-2.16-1.26-4.66-1.89-7.49-1.89s-5.34.63-7.52,1.89c-2.18,1.26-3.88,3.07-5.09,5.43-1.21,2.36-1.82,5.12-1.82,8.27s.61,5.92,1.82,8.3c1.21,2.38,2.91,4.22,5.09,5.5,2.18,1.28,4.69,1.92,7.52,1.92s5.33-.64,7.49-1.92Z"/>
        <path class="cls-4" d="M1009.22,179.96v7.62h-19.64v12.08h15.05v7.49h-15.05v19.9h-9.45v-47.1h29.08Z"/>
        <path class="cls-4" d="M1025.34,179.96v47.1h-9.45v-47.1h9.45Z"/>
        <path class="cls-4" d="M1074.93,227.06h-9.45l-21.39-32.32v32.32h-9.45v-47.16h9.45l21.39,32.39v-32.39h9.45v47.16Z"/>
        <path class="cls-4" d="M1113.77,182.86c3.75,1.93,6.66,4.69,8.7,8.27,2.05,3.58,3.07,7.73,3.07,12.45s-1.02,8.85-3.07,12.38c-2.05,3.53-4.95,6.26-8.7,8.2-3.76,1.93-8.11,2.9-13.06,2.9h-16.46v-47.1h16.46c4.95,0,9.3.97,13.06,2.9ZM1111.84,214.98c2.7-2.7,4.05-6.5,4.05-11.4s-1.35-8.74-4.05-11.5c-2.7-2.77-6.52-4.15-11.47-4.15h-6.68v31.11h6.68c4.95,0,8.77-1.35,11.47-4.05Z"/>
        <path class="cls-4" d="M1142.07,187.59v11.81h15.86v7.49h-15.86v12.48h17.88v7.69h-27.33v-47.16h27.33v7.69h-17.88Z"/>
        <path class="cls-4" d="M1192.81,227.06l-10.39-18.35h-4.45v18.35h-9.45v-47.1h17.68c3.64,0,6.75.64,9.31,1.92,2.56,1.28,4.49,3.01,5.77,5.2,1.28,2.18,1.92,4.62,1.92,7.32,0,3.1-.9,5.9-2.7,8.4-1.8,2.5-4.48,4.22-8.03,5.16l11.27,19.1h-10.93ZM1177.97,201.62h7.89c2.56,0,4.48-.62,5.74-1.86,1.26-1.24,1.89-2.96,1.89-5.16s-.63-3.83-1.89-5.03c-1.26-1.19-3.17-1.79-5.74-1.79h-7.89v13.83Z"/>
      </g>
      <g>
        <path class="cls-4" d="M823.34,1926.08c-1.14-.49-2.05-1.19-2.71-2.11s-1.01-2-1.03-3.25h4.4c.06.84.36,1.5.89,1.99.54.49,1.28.73,2.21.73s1.71-.23,2.26-.69c.55-.46.82-1.06.82-1.8,0-.61-.19-1.1-.56-1.5-.37-.39-.84-.7-1.39-.92s-1.32-.47-2.3-.75c-1.33-.39-2.41-.78-3.24-1.16-.83-.38-1.54-.96-2.14-1.73-.6-.77-.89-1.8-.89-3.09,0-1.21.3-2.27.91-3.17.61-.9,1.46-1.59,2.55-2.07,1.09-.48,2.35-.72,3.75-.72,2.11,0,3.83.51,5.15,1.54,1.32,1.03,2.05,2.46,2.18,4.3h-4.52c-.04-.7-.34-1.29-.89-1.74s-1.29-.69-2.21-.69c-.8,0-1.44.21-1.92.62-.48.41-.72,1.01-.72,1.79,0,.55.18,1,.54,1.36.36.36.81.66,1.35.88.54.23,1.29.48,2.27.78,1.33.39,2.41.78,3.26,1.17.84.39,1.56.98,2.17,1.76s.91,1.81.91,3.08c0,1.09-.28,2.11-.85,3.05-.57.94-1.4,1.69-2.49,2.24-1.1.56-2.39.84-3.9.84-1.43,0-2.71-.24-3.86-.73Z"/>
        <path class="cls-4" d="M840.98,1925.83c-1.25-.69-2.23-1.68-2.95-2.95s-1.07-2.74-1.07-4.4.37-3.13,1.1-4.4c.73-1.27,1.73-2.25,3.01-2.95s2.69-1.04,4.25-1.04,2.98.35,4.25,1.04,2.27,1.68,3.01,2.95c.73,1.27,1.1,2.74,1.1,4.4s-.38,3.13-1.13,4.4c-.75,1.27-1.77,2.25-3.05,2.95-1.28.69-2.71,1.04-4.29,1.04s-2.97-.35-4.22-1.04ZM847.3,1922.75c.66-.36,1.18-.9,1.57-1.63.39-.72.59-1.6.59-2.64,0-1.54-.41-2.73-1.22-3.56-.81-.83-1.8-1.25-2.98-1.25s-2.15.42-2.95,1.25c-.79.83-1.19,2.02-1.19,3.56s.39,2.73,1.16,3.56,1.74,1.25,2.92,1.25c.74,0,1.44-.18,2.1-.54Z"/>
        <path class="cls-4" d="M856.67,1914.08c.68-1.26,1.63-2.24,2.84-2.93,1.21-.69,2.6-1.04,4.16-1.04,2.01,0,3.68.5,5,1.51,1.32,1.01,2.21,2.42,2.65,4.24h-4.43c-.23-.7-.63-1.26-1.19-1.66-.56-.4-1.25-.6-2.07-.6-1.17,0-2.1.42-2.79,1.28s-1.03,2.06-1.03,3.62.34,2.74,1.03,3.59,1.61,1.28,2.79,1.28c1.66,0,2.75-.74,3.26-2.23h4.43c-.45,1.76-1.34,3.16-2.67,4.19-1.33,1.04-2.99,1.55-4.99,1.55-1.56,0-2.95-.35-4.16-1.04-1.21-.69-2.16-1.67-2.84-2.93-.68-1.26-1.03-2.73-1.03-4.41s.34-3.15,1.03-4.41Z"/>
        <path class="cls-4" d="M874.63,1907.74c-.48-.46-.72-1.03-.72-1.72s.24-1.26.72-1.72c.48-.46,1.08-.69,1.8-.69s1.32.23,1.8.69c.48.46.72,1.03.72,1.72s-.24,1.26-.72,1.72c-.48.46-1.08.69-1.8.69s-1.32-.23-1.8-.69ZM878.46,1910.37v16.25h-4.11v-16.25h4.11Z"/>
        <path class="cls-4" d="M882.43,1914.06c.65-1.27,1.54-2.25,2.67-2.93,1.12-.68,2.38-1.03,3.77-1.03,1.21,0,2.27.24,3.18.73.91.49,1.64,1.11,2.19,1.85v-2.32h4.13v16.25h-4.13v-2.38c-.53.76-1.26,1.39-2.19,1.89-.93.5-2,.75-3.21.75-1.37,0-2.62-.35-3.74-1.06-1.12-.7-2.01-1.7-2.67-2.98-.66-1.28-.98-2.75-.98-4.41s.33-3.1.98-4.37ZM893.64,1915.92c-.39-.71-.92-1.26-1.58-1.64-.67-.38-1.38-.57-2.14-.57s-1.47.19-2.11.56c-.65.37-1.17.91-1.57,1.63-.4.71-.6,1.56-.6,2.54s.2,1.83.6,2.57.93,1.29,1.58,1.69c.65.39,1.35.59,2.1.59s1.47-.19,2.14-.57c.66-.38,1.19-.93,1.58-1.64s.59-1.57.59-2.57-.2-1.85-.59-2.57Z"/>
        <path class="cls-4" d="M906.49,1904.91v21.7h-4.11v-21.7h4.11Z"/>
        <path class="cls-4" d="M946.81,1906.14v20.47h-4.1v-13.31l-5.48,13.31h-3.11l-5.51-13.31v13.31h-4.11v-20.47h4.66l6.51,15.22,6.51-15.22h4.63Z"/>
        <path class="cls-4" d="M965.84,1919.72h-11.88c.1,1.17.51,2.09,1.23,2.76.72.67,1.61,1,2.67,1,1.53,0,2.61-.65,3.25-1.96h4.43c-.47,1.56-1.37,2.85-2.7,3.86s-2.96,1.51-4.9,1.51c-1.56,0-2.97-.35-4.21-1.04-1.24-.69-2.21-1.68-2.9-2.95s-1.04-2.74-1.04-4.4.34-3.16,1.03-4.43c.68-1.27,1.64-2.25,2.87-2.93s2.65-1.03,4.25-1.03,2.93.33,4.15,1c1.22.66,2.17,1.61,2.85,2.83.67,1.22,1.01,2.62,1.01,4.21,0,.59-.04,1.11-.12,1.58ZM961.7,1916.96c-.02-1.06-.4-1.9-1.14-2.54s-1.65-.95-2.73-.95c-1.02,0-1.87.31-2.57.92-.69.62-1.12,1.47-1.28,2.57h7.71Z"/>
        <path class="cls-4" d="M968.87,1914.06c.65-1.27,1.55-2.25,2.68-2.93,1.13-.68,2.39-1.03,3.78-1.03,1.06,0,2.06.23,3.02.69.96.46,1.72,1.07,2.29,1.83v-7.71h4.16v21.7h-4.16v-2.4c-.51.8-1.22,1.45-2.14,1.94-.92.49-1.98.73-3.2.73-1.37,0-2.62-.35-3.75-1.06-1.13-.7-2.03-1.7-2.68-2.98-.66-1.28-.98-2.75-.98-4.41s.33-3.1.98-4.37ZM980.09,1915.92c-.39-.71-.92-1.26-1.58-1.64-.67-.38-1.38-.57-2.14-.57s-1.47.19-2.11.56c-.65.37-1.17.91-1.57,1.63-.4.71-.6,1.56-.6,2.54s.2,1.83.6,2.57.93,1.29,1.58,1.69c.65.39,1.35.59,2.1.59s1.47-.19,2.14-.57c.66-.38,1.19-.93,1.58-1.64s.59-1.57.59-2.57-.2-1.85-.59-2.57Z"/>
        <path class="cls-4" d="M989.11,1907.74c-.48-.46-.72-1.03-.72-1.72s.24-1.26.72-1.72c.48-.46,1.08-.69,1.8-.69s1.32.23,1.8.69c.48.46.72,1.03.72,1.72s-.24,1.26-.72,1.72c-.48.46-1.08.69-1.8.69s-1.32-.23-1.8-.69ZM992.93,1910.37v16.25h-4.11v-16.25h4.11Z"/>
        <path class="cls-4" d="M996.9,1914.06c.65-1.27,1.54-2.25,2.67-2.93,1.12-.68,2.38-1.03,3.77-1.03,1.21,0,2.27.24,3.18.73.91.49,1.64,1.11,2.18,1.85v-2.32h4.13v16.25h-4.13v-2.38c-.53.76-1.26,1.39-2.18,1.89-.93.5-2,.75-3.21.75-1.37,0-2.62-.35-3.74-1.06-1.12-.7-2.01-1.7-2.67-2.98s-.98-2.75-.98-4.41.33-3.1.98-4.37ZM1008.12,1915.92c-.39-.71-.92-1.26-1.58-1.64-.66-.38-1.38-.57-2.14-.57s-1.47.19-2.11.56-1.17.91-1.57,1.63c-.4.71-.6,1.56-.6,2.54s.2,1.83.6,2.57.93,1.29,1.58,1.69c.65.39,1.35.59,2.1.59s1.48-.19,2.14-.57c.66-.38,1.19-.93,1.58-1.64.39-.71.59-1.57.59-2.57s-.2-1.85-.59-2.57Z"/>
        <path class="cls-4" d="M1034.92,1923.36h6.74v3.25h-10.85v-20.47h4.11v17.21Z"/>
        <path class="cls-4" d="M1044.55,1907.74c-.48-.46-.72-1.03-.72-1.72s.24-1.26.72-1.72c.48-.46,1.08-.69,1.8-.69s1.32.23,1.8.69c.48.46.72,1.03.72,1.72s-.24,1.26-.72,1.72c-.48.46-1.08.69-1.8.69s-1.32-.23-1.8-.69ZM1048.38,1910.37v16.25h-4.11v-16.25h4.11Z"/>
        <path class="cls-4" d="M1066.12,1911.96c1.19,1.22,1.79,2.93,1.79,5.12v9.53h-4.11v-8.97c0-1.29-.32-2.28-.97-2.98-.64-.69-1.53-1.04-2.64-1.04s-2.03.35-2.68,1.04c-.65.69-.98,1.69-.98,2.98v8.97h-4.11v-16.25h4.11v2.02c.55-.7,1.25-1.26,2.1-1.66.85-.4,1.78-.6,2.8-.6,1.94,0,3.5.61,4.69,1.83Z"/>
        <path class="cls-4" d="M1081.43,1926.61l-5.51-6.92v6.92h-4.11v-21.7h4.11v12.34l5.45-6.89h5.34l-7.16,8.15,7.21,8.09h-5.34Z"/>
        <path class="cls-4" d="M1091.57,1926.16c-1.06-.48-1.89-1.13-2.51-1.95-.62-.82-.95-1.73-1.01-2.73h4.13c.08.63.39,1.14.92,1.55.54.41,1.21.62,2.01.62s1.39-.16,1.83-.47.66-.71.66-1.2c0-.53-.27-.92-.81-1.19-.54-.26-1.39-.55-2.57-.87-1.21-.29-2.2-.6-2.98-.91-.77-.31-1.44-.79-1.99-1.44-.56-.65-.84-1.51-.84-2.61,0-.9.26-1.72.78-2.46s1.26-1.33,2.23-1.76c.97-.43,2.11-.64,3.42-.64,1.94,0,3.48.48,4.63,1.45,1.15.97,1.79,2.27,1.9,3.92h-3.93c-.06-.65-.33-1.16-.81-1.54-.48-.38-1.12-.57-1.92-.57-.74,0-1.31.14-1.71.41-.4.27-.6.66-.6,1.14,0,.55.27.96.82,1.25.55.28,1.4.57,2.55.87,1.17.29,2.14.6,2.9.91.76.31,1.42.8,1.98,1.45.56.66.84,1.52.86,2.6,0,.94-.26,1.78-.78,2.52-.52.74-1.26,1.32-2.23,1.75-.97.42-2.1.63-3.39.63s-2.52-.24-3.58-.72Z"/>
      </g>
      <g>
        <path d="M601.26,338.69c.81,1.02,1.21,2.19,1.21,3.5,0,1.19-.29,2.24-.88,3.14-.58.9-1.43,1.61-2.53,2.12s-2.41.76-3.92.76h-9.59v-22.24h9.18c1.51,0,2.81.24,3.9.73s1.92,1.17,2.49,2.04c.56.87.84,1.86.84,2.96,0,1.3-.35,2.38-1.04,3.25s-1.61,1.49-2.76,1.85c1.25.23,2.28.86,3.09,1.88ZM590.02,335.15h4.08c1.06,0,1.88-.24,2.45-.72.57-.48.86-1.16.86-2.06s-.29-1.58-.86-2.07c-.57-.49-1.39-.73-2.45-.73h-4.08v5.58ZM597.04,343.82c.61-.51.91-1.23.91-2.17s-.32-1.7-.96-2.25c-.64-.54-1.5-.81-2.58-.81h-4.4v5.99h4.49c1.08,0,1.93-.26,2.53-.76Z"/>
        <path d="M622.32,340.73h-12.9c.11,1.27.55,2.27,1.34,3s1.75,1.08,2.9,1.08c1.66,0,2.84-.71,3.54-2.13h4.81c-.51,1.7-1.49,3.1-2.93,4.19-1.44,1.09-3.22,1.64-5.32,1.64-1.7,0-3.22-.38-4.57-1.13-1.35-.75-2.4-1.82-3.15-3.2-.75-1.38-1.13-2.97-1.13-4.78s.37-3.43,1.11-4.81,1.78-2.44,3.12-3.19c1.34-.74,2.88-1.11,4.62-1.11s3.18.36,4.51,1.08c1.33.72,2.36,1.75,3.09,3.07.73,1.33,1.1,2.85,1.1,4.57,0,.64-.04,1.21-.13,1.72ZM617.83,337.74c-.02-1.15-.44-2.07-1.24-2.76-.81-.69-1.8-1.04-2.96-1.04-1.1,0-2.03.33-2.79,1-.75.67-1.22,1.6-1.39,2.79h8.38Z"/>
        <path d="M636.09,331.06c1,.52,1.78,1.19,2.36,2.02v-2.52h4.49v17.78c0,1.64-.33,3.1-.99,4.38-.66,1.28-1.65,2.3-2.96,3.06-1.32.75-2.91,1.13-4.78,1.13-2.51,0-4.56-.58-6.17-1.75-1.6-1.17-2.51-2.76-2.72-4.78h4.43c.23.81.74,1.45,1.51,1.93.77.48,1.72.72,2.82.72,1.3,0,2.35-.39,3.15-1.16.81-.78,1.21-1.95,1.21-3.52v-2.74c-.57.83-1.37,1.52-2.37,2.07-1.01.55-2.16.83-3.46.83-1.49,0-2.85-.38-4.08-1.15-1.23-.76-2.2-1.84-2.92-3.23-.71-1.39-1.07-2.99-1.07-4.8s.36-3.37,1.07-4.75c.71-1.38,1.68-2.44,2.9-3.19,1.22-.74,2.59-1.11,4.09-1.11,1.32,0,2.47.26,3.47.78ZM637.81,336.6c-.43-.77-1-1.37-1.72-1.78-.72-.41-1.5-.62-2.33-.62s-1.59.2-2.29.61-1.27.99-1.7,1.77c-.44.78-.65,1.69-.65,2.76s.22,1.99.65,2.79c.43.8,1.01,1.41,1.72,1.83.71.43,1.47.64,2.28.64s1.6-.21,2.33-.62c.72-.41,1.3-1.01,1.72-1.78.42-.77.64-1.7.64-2.79s-.21-2.01-.64-2.79Z"/>
        <path d="M647.6,327.72c-.52-.5-.78-1.12-.78-1.86s.26-1.36.78-1.86c.52-.5,1.17-.75,1.96-.75s1.44.25,1.96.75c.52.5.78,1.12.78,1.86s-.26,1.37-.78,1.86c-.52.5-1.17.75-1.96.75s-1.44-.25-1.96-.75ZM651.76,330.57v17.65h-4.46v-17.65h4.46Z"/>
        <path d="M671.04,332.3c1.3,1.33,1.94,3.18,1.94,5.56v10.35h-4.46v-9.75c0-1.4-.35-2.48-1.05-3.23s-1.66-1.13-2.87-1.13-2.2.38-2.92,1.13c-.71.75-1.07,1.83-1.07,3.23v9.75h-4.46v-17.65h4.46v2.2c.59-.76,1.35-1.36,2.28-1.8.92-.43,1.94-.65,3.04-.65,2.1,0,3.8.66,5.1,1.99Z"/>
        <path d="M691.63,331.09c1.01-.54,2.16-.81,3.46-.81,1.51,0,2.87.37,4.09,1.11,1.22.74,2.19,1.8,2.9,3.17.71,1.37,1.07,2.96,1.07,4.76s-.36,3.4-1.07,4.8c-.71,1.39-1.68,2.47-2.9,3.23-1.22.76-2.59,1.15-4.09,1.15-1.3,0-2.44-.27-3.42-.8-.99-.53-1.79-1.2-2.41-2.01v10.93h-4.46v-26.06h4.46v2.55c.57-.81,1.36-1.48,2.37-2.02ZM697.94,336.57c-.44-.77-1.01-1.36-1.72-1.77s-1.48-.61-2.31-.61-1.57.21-2.28.62c-.71.41-1.28,1.02-1.72,1.8s-.65,1.71-.65,2.77.22,1.99.65,2.77,1.01,1.39,1.72,1.8c.71.41,1.47.62,2.28.62s1.6-.21,2.31-.64c.71-.42,1.28-1.03,1.72-1.82s.65-1.72.65-2.8-.22-1.98-.65-2.76Z"/>
        <path d="M713.11,331.11c.92-.53,1.98-.8,3.17-.8v4.68h-1.18c-1.4,0-2.46.33-3.17.99-.71.66-1.07,1.81-1.07,3.44v8.79h-4.46v-17.65h4.46v2.74c.57-.93,1.32-1.67,2.25-2.2Z"/>
        <path d="M735.55,340.73h-12.9c.11,1.27.55,2.27,1.34,3s1.75,1.08,2.9,1.08c1.66,0,2.84-.71,3.54-2.13h4.81c-.51,1.7-1.49,3.1-2.93,4.19-1.44,1.09-3.22,1.64-5.32,1.64-1.7,0-3.22-.38-4.57-1.13-1.35-.75-2.4-1.82-3.15-3.2-.75-1.38-1.13-2.97-1.13-4.78s.37-3.43,1.11-4.81,1.78-2.44,3.12-3.19c1.34-.74,2.88-1.11,4.62-1.11s3.18.36,4.51,1.08c1.33.72,2.36,1.75,3.09,3.07.73,1.33,1.1,2.85,1.1,4.57,0,.64-.04,1.21-.13,1.72ZM731.06,337.74c-.02-1.15-.44-2.07-1.24-2.76-.81-.69-1.8-1.04-2.96-1.04-1.1,0-2.03.33-2.79,1-.75.67-1.22,1.6-1.39,2.79h8.38Z"/>
        <path d="M741.8,347.72c-1.15-.52-2.06-1.23-2.72-2.12-.67-.89-1.04-1.88-1.1-2.96h4.49c.08.68.42,1.24,1,1.69.58.45,1.31.67,2.18.67s1.51-.17,1.99-.51c.48-.34.72-.78.72-1.31,0-.57-.29-1-.88-1.29-.58-.29-1.51-.6-2.79-.94-1.32-.32-2.39-.65-3.23-.99-.84-.34-1.56-.86-2.17-1.56-.61-.7-.91-1.65-.91-2.84,0-.98.28-1.87.84-2.68.56-.81,1.37-1.44,2.42-1.91,1.05-.47,2.29-.7,3.71-.7,2.1,0,3.78.53,5.03,1.58,1.25,1.05,1.94,2.47,2.07,4.25h-4.27c-.06-.7-.36-1.26-.88-1.67-.52-.41-1.22-.62-2.09-.62-.81,0-1.43.15-1.86.45-.44.3-.65.71-.65,1.24,0,.6.3,1.05.89,1.35.6.31,1.52.62,2.77.94,1.27.32,2.33.65,3.15.99s1.54.87,2.15,1.58c.61.71.92,1.65.94,2.82,0,1.02-.28,1.93-.84,2.74-.56.81-1.37,1.44-2.42,1.9-1.05.46-2.28.69-3.68.69s-2.74-.26-3.89-.78Z"/>
        <path d="M759.16,347.72c-1.15-.52-2.06-1.23-2.72-2.12-.67-.89-1.04-1.88-1.1-2.96h4.49c.08.68.42,1.24,1,1.69.58.45,1.31.67,2.18.67s1.51-.17,1.99-.51c.48-.34.72-.78.72-1.31,0-.57-.29-1-.88-1.29-.58-.29-1.51-.6-2.79-.94-1.32-.32-2.39-.65-3.23-.99-.84-.34-1.56-.86-2.17-1.56-.61-.7-.91-1.65-.91-2.84,0-.98.28-1.87.84-2.68.56-.81,1.37-1.44,2.42-1.91,1.05-.47,2.29-.7,3.71-.7,2.1,0,3.78.53,5.03,1.58,1.25,1.05,1.94,2.47,2.07,4.25h-4.27c-.06-.7-.36-1.26-.88-1.67-.52-.41-1.22-.62-2.09-.62-.81,0-1.43.15-1.86.45-.44.3-.65.71-.65,1.24,0,.6.3,1.05.89,1.35.6.31,1.52.62,2.77.94,1.27.32,2.33.65,3.15.99s1.54.87,2.15,1.58c.61.71.92,1.65.94,2.82,0,1.02-.28,1.93-.84,2.74-.56.81-1.37,1.44-2.42,1.9-1.05.46-2.28.69-3.68.69s-2.74-.26-3.89-.78Z"/>
        <path d="M773.96,327.72c-.52-.5-.78-1.12-.78-1.86s.26-1.36.78-1.86c.52-.5,1.17-.75,1.96-.75s1.44.25,1.96.75c.52.5.78,1.12.78,1.86s-.26,1.37-.78,1.86c-.52.5-1.17.75-1.96.75s-1.44-.25-1.96-.75ZM778.12,330.57v17.65h-4.46v-17.65h4.46Z"/>
        <path d="M797.4,332.3c1.3,1.33,1.94,3.18,1.94,5.56v10.35h-4.46v-9.75c0-1.4-.35-2.48-1.05-3.23s-1.66-1.13-2.87-1.13-2.2.38-2.92,1.13c-.71.75-1.07,1.83-1.07,3.23v9.75h-4.46v-17.65h4.46v2.2c.59-.76,1.35-1.36,2.28-1.8.92-.43,1.94-.65,3.04-.65,2.1,0,3.8.66,5.1,1.99Z"/>
        <path d="M813.96,331.06c1,.52,1.78,1.19,2.36,2.02v-2.52h4.49v17.78c0,1.64-.33,3.1-.99,4.38-.66,1.28-1.65,2.3-2.96,3.06-1.32.75-2.91,1.13-4.78,1.13-2.51,0-4.56-.58-6.17-1.75-1.6-1.17-2.51-2.76-2.72-4.78h4.43c.23.81.74,1.45,1.51,1.93.77.48,1.72.72,2.82.72,1.3,0,2.35-.39,3.15-1.16.81-.78,1.21-1.95,1.21-3.52v-2.74c-.57.83-1.37,1.52-2.37,2.07-1.01.55-2.16.83-3.46.83-1.49,0-2.85-.38-4.08-1.15-1.23-.76-2.2-1.84-2.92-3.23-.71-1.39-1.07-2.99-1.07-4.8s.36-3.37,1.07-4.75c.71-1.38,1.68-2.44,2.9-3.19,1.22-.74,2.59-1.11,4.09-1.11,1.32,0,2.47.26,3.47.78ZM815.68,336.6c-.43-.77-1-1.37-1.72-1.78-.72-.41-1.5-.62-2.33-.62s-1.59.2-2.29.61-1.27.99-1.7,1.77c-.44.78-.65,1.69-.65,2.76s.22,1.99.65,2.79c.43.8,1.01,1.41,1.72,1.83.71.43,1.47.64,2.28.64s1.6-.21,2.33-.62c.72-.41,1.3-1.01,1.72-1.78.42-.77.64-1.7.64-2.79s-.21-2.01-.64-2.79Z"/>
        <path d="M837.95,334.23v8.54c0,.6.14,1.03.43,1.29.29.27.77.4,1.45.4h2.07v3.76h-2.8c-3.76,0-5.64-1.83-5.64-5.48v-8.51h-2.1v-3.66h2.1v-4.36h4.49v4.36h3.95v3.66h-3.95Z"/>
        <path d="M858.63,331.19c1.04.58,1.85,1.44,2.44,2.58.58,1.14.88,2.5.88,4.09v10.35h-4.46v-9.75c0-1.4-.35-2.48-1.05-3.23s-1.66-1.13-2.87-1.13-2.2.38-2.92,1.13c-.71.75-1.07,1.83-1.07,3.23v9.75h-4.46v-23.58h4.46v8.12c.57-.76,1.34-1.36,2.29-1.8.96-.43,2.02-.65,3.19-.65,1.34,0,2.53.29,3.57.88Z"/>
        <path d="M882.46,340.73h-12.9c.11,1.27.55,2.27,1.34,3s1.75,1.08,2.9,1.08c1.66,0,2.84-.71,3.54-2.13h4.81c-.51,1.7-1.49,3.1-2.93,4.19-1.44,1.09-3.22,1.64-5.32,1.64-1.7,0-3.22-.38-4.57-1.13-1.35-.75-2.4-1.82-3.15-3.2-.75-1.38-1.13-2.97-1.13-4.78s.37-3.43,1.11-4.81,1.78-2.44,3.12-3.19c1.34-.74,2.88-1.11,4.62-1.11s3.18.36,4.51,1.08c1.33.72,2.36,1.75,3.09,3.07.73,1.33,1.1,2.85,1.1,4.57,0,.64-.04,1.21-.13,1.72ZM877.97,337.74c-.02-1.15-.44-2.07-1.24-2.76-.81-.69-1.8-1.04-2.96-1.04-1.1,0-2.03.33-2.79,1-.75.67-1.22,1.6-1.39,2.79h8.38Z"/>
        <path d="M900.25,331.08c1.01-.53,2.16-.8,3.46-.8,1.51,0,2.87.37,4.09,1.11,1.22.74,2.19,1.8,2.9,3.17.71,1.37,1.07,2.96,1.07,4.76s-.36,3.4-1.07,4.8c-.71,1.39-1.68,2.47-2.9,3.23-1.22.76-2.59,1.15-4.09,1.15-1.32,0-2.47-.26-3.46-.78s-1.78-1.19-2.37-2.02v2.52h-4.46v-23.58h4.46v8.51c.57-.85,1.36-1.54,2.37-2.07ZM906.56,336.57c-.44-.77-1.01-1.36-1.72-1.77s-1.48-.61-2.31-.61-1.57.21-2.28.62c-.71.41-1.28,1.02-1.72,1.8s-.65,1.71-.65,2.77.22,1.99.65,2.77,1.01,1.39,1.72,1.8c.71.41,1.47.62,2.28.62s1.6-.21,2.31-.64c.71-.42,1.28-1.03,1.72-1.82s.65-1.72.65-2.8-.22-1.98-.65-2.76Z"/>
        <path d="M931.68,330.57v17.65h-4.49v-2.23c-.57.76-1.32,1.37-2.25,1.8s-1.93.65-3.01.65c-1.38,0-2.6-.29-3.66-.88-1.06-.58-1.9-1.44-2.5-2.58s-.91-2.49-.91-4.06v-10.35h4.46v9.72c0,1.4.35,2.48,1.05,3.23.7.75,1.66,1.13,2.87,1.13s2.2-.38,2.9-1.13c.7-.75,1.05-1.83,1.05-3.23v-9.72h4.49Z"/>
        <path d="M941.27,334.23v8.54c0,.6.14,1.03.43,1.29.29.27.77.4,1.45.4h2.07v3.76h-2.8c-3.76,0-5.64-1.83-5.64-5.48v-8.51h-2.1v-3.66h2.1v-4.36h4.49v4.36h3.95v3.66h-3.95Z"/>
        <path d="M953.64,334.23v8.54c0,.6.14,1.03.43,1.29.29.27.77.4,1.45.4h2.07v3.76h-2.8c-3.76,0-5.64-1.83-5.64-5.48v-8.51h-2.1v-3.66h2.1v-4.36h4.49v4.36h3.95v3.66h-3.95Z"/>
        <path d="M964.05,347.37c-1.36-.75-2.43-1.82-3.2-3.2-.78-1.38-1.16-2.97-1.16-4.78s.4-3.4,1.19-4.78,1.88-2.45,3.27-3.2,2.92-1.13,4.62-1.13,3.24.38,4.62,1.13,2.47,1.82,3.27,3.2,1.19,2.97,1.19,4.78-.41,3.4-1.23,4.78c-.82,1.38-1.92,2.45-3.31,3.2-1.39.75-2.95,1.13-4.67,1.13s-3.23-.38-4.59-1.13ZM970.92,344.03c.71-.39,1.28-.98,1.7-1.77.42-.78.64-1.74.64-2.87,0-1.68-.44-2.97-1.32-3.87-.88-.9-1.96-1.35-3.23-1.35s-2.34.45-3.2,1.35c-.86.9-1.29,2.19-1.29,3.87s.42,2.97,1.26,3.87c.84.9,1.9,1.35,3.17,1.35.81,0,1.57-.2,2.28-.59Z"/>
        <path d="M996.01,332.3c1.3,1.33,1.94,3.18,1.94,5.56v10.35h-4.46v-9.75c0-1.4-.35-2.48-1.05-3.23s-1.66-1.13-2.87-1.13-2.2.38-2.92,1.13c-.71.75-1.07,1.83-1.07,3.23v9.75h-4.46v-17.65h4.46v2.2c.59-.76,1.35-1.36,2.28-1.8.92-.43,1.94-.65,3.04-.65,2.1,0,3.8.66,5.1,1.99Z"/>
        <path d="M1016.61,331.08c1.01-.53,2.16-.8,3.46-.8,1.51,0,2.87.37,4.09,1.11,1.22.74,2.19,1.8,2.9,3.17.71,1.37,1.07,2.96,1.07,4.76s-.36,3.4-1.07,4.8c-.71,1.39-1.68,2.47-2.9,3.23-1.22.76-2.59,1.15-4.09,1.15-1.32,0-2.47-.26-3.46-.78s-1.78-1.19-2.37-2.02v2.52h-4.46v-23.58h4.46v8.51c.57-.85,1.36-1.54,2.37-2.07ZM1022.91,336.57c-.44-.77-1.01-1.36-1.72-1.77s-1.48-.61-2.31-.61-1.57.21-2.28.62c-.71.41-1.28,1.02-1.72,1.8s-.65,1.71-.65,2.77.22,1.99.65,2.77,1.01,1.39,1.72,1.8c.71.41,1.47.62,2.28.62s1.6-.21,2.31-.64c.71-.42,1.28-1.03,1.72-1.82s.65-1.72.65-2.8-.22-1.98-.65-2.76Z"/>
        <path d="M1047.65,340.73h-12.9c.11,1.27.55,2.27,1.34,3s1.75,1.08,2.9,1.08c1.66,0,2.84-.71,3.54-2.13h4.81c-.51,1.7-1.49,3.1-2.93,4.19-1.44,1.09-3.22,1.64-5.32,1.64-1.7,0-3.22-.38-4.57-1.13-1.35-.75-2.4-1.82-3.15-3.2-.75-1.38-1.13-2.97-1.13-4.78s.37-3.43,1.11-4.81,1.78-2.44,3.12-3.19c1.34-.74,2.88-1.11,4.62-1.11s3.18.36,4.51,1.08c1.33.72,2.36,1.75,3.09,3.07.73,1.33,1.1,2.85,1.1,4.57,0,.64-.04,1.21-.13,1.72ZM1043.16,337.74c-.02-1.15-.44-2.07-1.24-2.76-.81-.69-1.8-1.04-2.96-1.04-1.1,0-2.03.33-2.79,1-.75.67-1.22,1.6-1.39,2.79h8.38Z"/>
        <path d="M1055.49,324.64v23.58h-4.46v-23.58h4.46Z"/>
        <path d="M1063.14,347.37c-1.36-.75-2.43-1.82-3.2-3.2-.78-1.38-1.16-2.97-1.16-4.78s.4-3.4,1.19-4.78,1.88-2.45,3.27-3.2,2.92-1.13,4.62-1.13,3.24.38,4.62,1.13,2.47,1.82,3.27,3.2,1.19,2.97,1.19,4.78-.41,3.4-1.23,4.78c-.82,1.38-1.92,2.45-3.31,3.2-1.39.75-2.95,1.13-4.67,1.13s-3.23-.38-4.59-1.13ZM1070,344.03c.71-.39,1.28-.98,1.7-1.77.42-.78.64-1.74.64-2.87,0-1.68-.44-2.97-1.32-3.87-.88-.9-1.96-1.35-3.23-1.35s-2.34.45-3.2,1.35c-.86.9-1.29,2.19-1.29,3.87s.42,2.97,1.26,3.87c.84.9,1.9,1.35,3.17,1.35.81,0,1.57-.2,2.28-.59Z"/>
        <path d="M1104.68,330.57l-5.16,17.65h-4.81l-3.22-12.33-3.22,12.33h-4.84l-5.19-17.65h4.52l3.12,13.44,3.38-13.44h4.72l3.31,13.41,3.12-13.41h4.27Z"/>
        <path d="M1122.78,334.23h-3.09v13.99h-4.52v-13.99h-2.01v-3.66h2.01v-.89c0-2.17.62-3.76,1.85-4.78,1.23-1.02,3.09-1.5,5.58-1.43v3.76c-1.08-.02-1.84.16-2.26.54-.42.38-.64,1.07-.64,2.07v.73h3.09v3.66Z"/>
        <path d="M1128.93,347.37c-1.36-.75-2.43-1.82-3.2-3.2-.78-1.38-1.16-2.97-1.16-4.78s.4-3.4,1.19-4.78,1.88-2.45,3.27-3.2,2.92-1.13,4.62-1.13,3.24.38,4.62,1.13,2.47,1.82,3.27,3.2,1.19,2.97,1.19,4.78-.41,3.4-1.23,4.78c-.82,1.38-1.92,2.45-3.31,3.2-1.39.75-2.95,1.13-4.67,1.13s-3.23-.38-4.59-1.13ZM1135.79,344.03c.71-.39,1.28-.98,1.7-1.77.42-.78.64-1.74.64-2.87,0-1.68-.44-2.97-1.32-3.87-.88-.9-1.96-1.35-3.23-1.35s-2.34.45-3.2,1.35c-.86.9-1.29,2.19-1.29,3.87s.42,2.97,1.26,3.87c.84.9,1.9,1.35,3.17,1.35.81,0,1.57-.2,2.28-.59Z"/>
        <path d="M1152.71,331.11c.92-.53,1.98-.8,3.17-.8v4.68h-1.18c-1.4,0-2.46.33-3.17.99-.71.66-1.07,1.81-1.07,3.44v8.79h-4.46v-17.65h4.46v2.74c.57-.93,1.32-1.67,2.25-2.2Z"/>
        <path d="M1182.74,340.73h-12.9c.11,1.27.55,2.27,1.34,3s1.75,1.08,2.9,1.08c1.66,0,2.84-.71,3.54-2.13h4.81c-.51,1.7-1.49,3.1-2.93,4.19-1.44,1.09-3.22,1.64-5.32,1.64-1.7,0-3.22-.38-4.57-1.13-1.35-.75-2.4-1.82-3.15-3.2-.75-1.38-1.13-2.97-1.13-4.78s.37-3.43,1.11-4.81,1.78-2.44,3.12-3.19c1.34-.74,2.88-1.11,4.62-1.11s3.18.36,4.51,1.08c1.33.72,2.36,1.75,3.09,3.07.73,1.33,1.1,2.85,1.1,4.57,0,.64-.04,1.21-.13,1.72ZM1178.25,337.74c-.02-1.15-.44-2.07-1.24-2.76-.81-.69-1.8-1.04-2.96-1.04-1.1,0-2.03.33-2.79,1-.75.67-1.22,1.6-1.39,2.79h8.38Z"/>
        <path d="M1186.04,334.58c.71-1.38,1.68-2.44,2.9-3.19,1.22-.74,2.59-1.11,4.09-1.11,1.32,0,2.47.27,3.46.8.99.53,1.78,1.2,2.37,2.01v-2.52h4.49v17.65h-4.49v-2.58c-.57.83-1.37,1.51-2.37,2.06-1.01.54-2.17.81-3.49.81-1.49,0-2.84-.38-4.06-1.15s-2.19-1.84-2.9-3.23c-.71-1.39-1.07-2.99-1.07-4.8s.36-3.37,1.07-4.75ZM1198.22,336.6c-.43-.77-1-1.37-1.72-1.78-.72-.41-1.5-.62-2.33-.62s-1.59.2-2.29.61-1.27.99-1.7,1.77c-.44.78-.65,1.69-.65,2.76s.22,1.99.65,2.79c.43.8,1.01,1.41,1.72,1.83.71.43,1.47.64,2.28.64s1.6-.21,2.33-.62c.72-.41,1.3-1.01,1.72-1.78.42-.77.64-1.7.64-2.79s-.21-2.01-.64-2.79Z"/>
        <path d="M1207.69,334.6c.74-1.37,1.77-2.43,3.09-3.19s2.83-1.13,4.52-1.13c2.19,0,4,.55,5.43,1.64,1.43,1.09,2.39,2.63,2.88,4.6h-4.81c-.25-.76-.68-1.37-1.29-1.8-.61-.43-1.35-.65-2.25-.65-1.27,0-2.28.46-3.03,1.39-.74.92-1.12,2.24-1.12,3.93s.37,2.98,1.12,3.9c.74.92,1.75,1.39,3.03,1.39,1.8,0,2.98-.81,3.54-2.42h4.81c-.49,1.91-1.45,3.43-2.9,4.56s-3.25,1.69-5.42,1.69c-1.7,0-3.21-.38-4.52-1.13s-2.35-1.82-3.09-3.19c-.74-1.37-1.11-2.97-1.11-4.8s.37-3.42,1.11-4.79Z"/>
        <path d="M1240.4,331.19c1.04.58,1.85,1.44,2.44,2.58.58,1.14.88,2.5.88,4.09v10.35h-4.46v-9.75c0-1.4-.35-2.48-1.05-3.23s-1.66-1.13-2.87-1.13-2.2.38-2.92,1.13c-.71.75-1.07,1.83-1.07,3.23v9.75h-4.46v-23.58h4.46v8.12c.57-.76,1.34-1.36,2.29-1.8.96-.43,2.02-.65,3.19-.65,1.34,0,2.53.29,3.57.88Z"/>
        <path d="M1262.37,331.08c1.01-.53,2.16-.8,3.46-.8,1.51,0,2.87.37,4.09,1.11,1.22.74,2.19,1.8,2.9,3.17.71,1.37,1.07,2.96,1.07,4.76s-.36,3.4-1.07,4.8c-.71,1.39-1.68,2.47-2.9,3.23-1.22.76-2.59,1.15-4.09,1.15-1.32,0-2.47-.26-3.46-.78s-1.78-1.19-2.37-2.02v2.52h-4.46v-23.58h4.46v8.51c.57-.85,1.36-1.54,2.37-2.07ZM1268.68,336.57c-.44-.77-1.01-1.36-1.72-1.77s-1.48-.61-2.31-.61-1.57.21-2.28.62c-.71.41-1.28,1.02-1.72,1.8s-.65,1.71-.65,2.77.22,1.99.65,2.77,1.01,1.39,1.72,1.8c.71.41,1.47.62,2.28.62s1.6-.21,2.31-.64c.71-.42,1.28-1.03,1.72-1.82s.65-1.72.65-2.8-.22-1.98-.65-2.76Z"/>
        <path d="M1293.42,340.73h-12.9c.11,1.27.55,2.27,1.34,3s1.75,1.08,2.9,1.08c1.66,0,2.84-.71,3.54-2.13h4.81c-.51,1.7-1.49,3.1-2.93,4.19-1.44,1.09-3.22,1.64-5.32,1.64-1.7,0-3.22-.38-4.57-1.13-1.35-.75-2.4-1.82-3.15-3.2-.75-1.38-1.13-2.97-1.13-4.78s.37-3.43,1.11-4.81,1.78-2.44,3.12-3.19c1.34-.74,2.88-1.11,4.62-1.11s3.18.36,4.51,1.08c1.33.72,2.36,1.75,3.09,3.07.73,1.33,1.1,2.85,1.1,4.57,0,.64-.04,1.21-.13,1.72ZM1288.93,337.74c-.02-1.15-.44-2.07-1.24-2.76-.81-.69-1.8-1.04-2.96-1.04-1.1,0-2.03.33-2.79,1-.75.67-1.22,1.6-1.39,2.79h8.38Z"/>
        <path d="M1296.72,334.58c.71-1.38,1.68-2.44,2.9-3.19,1.22-.74,2.59-1.11,4.09-1.11,1.32,0,2.47.27,3.46.8.99.53,1.78,1.2,2.37,2.01v-2.52h4.49v17.65h-4.49v-2.58c-.57.83-1.37,1.51-2.37,2.06-1.01.54-2.17.81-3.49.81-1.49,0-2.84-.38-4.06-1.15s-2.19-1.84-2.9-3.23c-.71-1.39-1.07-2.99-1.07-4.8s.36-3.37,1.07-4.75ZM1308.9,336.6c-.43-.77-1-1.37-1.72-1.78-.72-.41-1.5-.62-2.33-.62s-1.59.2-2.29.61-1.27.99-1.7,1.77c-.44.78-.65,1.69-.65,2.76s.22,1.99.65,2.79c.43.8,1.01,1.41,1.72,1.83.71.43,1.47.64,2.28.64s1.6-.21,2.33-.62c.72-.41,1.3-1.01,1.72-1.78.42-.77.64-1.7.64-2.79s-.21-2.01-.64-2.79Z"/>
        <path d="M1323.59,334.23v8.54c0,.6.14,1.03.43,1.29.29.27.77.4,1.45.4h2.07v3.76h-2.8c-3.76,0-5.64-1.83-5.64-5.48v-8.51h-2.1v-3.66h2.1v-4.36h4.49v4.36h3.95v3.66h-3.95Z"/>
        <path d="M1330.74,347.69c-.52-.5-.78-1.12-.78-1.86s.26-1.36.78-1.86c.52-.5,1.18-.75,1.99-.75s1.43.25,1.94.75c.51.5.76,1.12.76,1.86s-.25,1.37-.76,1.86c-.51.5-1.16.75-1.94.75s-1.47-.25-1.99-.75Z"/>
        <path d="M722.74,421.56v3.6h-9.27v5.7h7.1v3.54h-7.1v9.4h-4.46v-22.24h13.73Z"/>
        <path d="M729.15,442.95c-1.36-.75-2.43-1.82-3.2-3.2-.78-1.38-1.16-2.97-1.16-4.78s.4-3.4,1.19-4.78,1.88-2.45,3.27-3.2,2.92-1.13,4.62-1.13,3.24.38,4.62,1.13,2.47,1.82,3.27,3.2,1.19,2.97,1.19,4.78-.41,3.4-1.23,4.78c-.82,1.38-1.92,2.45-3.31,3.2-1.39.75-2.95,1.13-4.67,1.13s-3.23-.38-4.59-1.13ZM736.01,439.61c.71-.39,1.28-.98,1.7-1.77.42-.78.64-1.74.64-2.87,0-1.68-.44-2.97-1.32-3.87-.88-.9-1.96-1.35-3.23-1.35s-2.34.45-3.2,1.35c-.86.9-1.29,2.19-1.29,3.87s.42,2.97,1.26,3.87c.84.9,1.9,1.35,3.17,1.35.81,0,1.57-.2,2.28-.59Z"/>
        <path d="M752.93,426.69c.92-.53,1.98-.8,3.17-.8v4.68h-1.18c-1.4,0-2.46.33-3.17.99-.71.66-1.07,1.81-1.07,3.44v8.79h-4.46v-17.65h4.46v2.74c.57-.93,1.32-1.67,2.25-2.2Z"/>
        <path d="M766.6,430.16c.71-1.38,1.68-2.44,2.92-3.19,1.23-.74,2.6-1.11,4.11-1.11,1.15,0,2.24.25,3.28.75,1.04.5,1.87,1.16,2.49,1.99v-8.38h4.52v23.58h-4.52v-2.61c-.55.87-1.33,1.57-2.33,2.1-1,.53-2.16.8-3.47.8-1.49,0-2.85-.38-4.08-1.15-1.23-.76-2.2-1.84-2.92-3.23-.71-1.39-1.07-2.99-1.07-4.8s.36-3.37,1.07-4.75ZM778.79,432.19c-.43-.77-1-1.37-1.72-1.78-.72-.41-1.5-.62-2.33-.62s-1.59.2-2.29.61-1.27.99-1.7,1.77c-.44.78-.65,1.69-.65,2.76s.22,1.99.65,2.79c.43.8,1.01,1.41,1.72,1.83.71.43,1.47.64,2.28.64s1.6-.21,2.33-.62c.72-.41,1.3-1.01,1.72-1.78.42-.77.64-1.7.64-2.79s-.21-2.01-.64-2.79Z"/>
        <path d="M804.56,436.31h-12.9c.11,1.27.55,2.27,1.34,3s1.75,1.08,2.9,1.08c1.66,0,2.84-.71,3.54-2.13h4.81c-.51,1.7-1.49,3.1-2.93,4.19-1.44,1.09-3.22,1.64-5.32,1.64-1.7,0-3.22-.38-4.57-1.13-1.35-.75-2.4-1.82-3.15-3.2-.75-1.38-1.13-2.97-1.13-4.78s.37-3.43,1.11-4.81,1.78-2.44,3.12-3.19c1.34-.74,2.88-1.11,4.62-1.11s3.18.36,4.51,1.08c1.33.72,2.36,1.75,3.09,3.07.73,1.33,1.1,2.85,1.1,4.57,0,.64-.04,1.21-.13,1.72ZM800.07,433.32c-.02-1.15-.44-2.07-1.24-2.76-.81-.69-1.8-1.04-2.96-1.04-1.1,0-2.03.33-2.79,1-.75.67-1.22,1.6-1.39,2.79h8.38Z"/>
        <path d="M810.81,443.3c-1.15-.52-2.06-1.23-2.72-2.12-.67-.89-1.04-1.88-1.1-2.96h4.49c.08.68.42,1.24,1,1.69.58.45,1.31.67,2.18.67s1.51-.17,1.99-.51c.48-.34.72-.78.72-1.31,0-.57-.29-1-.88-1.29-.58-.29-1.51-.6-2.79-.94-1.32-.32-2.39-.65-3.23-.99-.84-.34-1.56-.86-2.17-1.56-.61-.7-.91-1.65-.91-2.84,0-.98.28-1.87.84-2.68.56-.81,1.37-1.44,2.42-1.91,1.05-.47,2.29-.7,3.71-.7,2.1,0,3.78.53,5.03,1.58,1.25,1.05,1.94,2.47,2.07,4.25h-4.27c-.06-.7-.36-1.26-.88-1.67-.52-.41-1.22-.62-2.09-.62-.81,0-1.43.15-1.86.45-.44.3-.65.71-.65,1.24,0,.6.3,1.05.89,1.35.6.31,1.52.62,2.77.94,1.27.32,2.33.65,3.15.99s1.54.87,2.15,1.58c.61.71.92,1.65.94,2.82,0,1.02-.28,1.93-.84,2.74-.56.81-1.37,1.44-2.42,1.9-1.05.46-2.28.69-3.68.69s-2.74-.26-3.89-.78Z"/>
        <path d="M835.75,443.8l-5.99-7.52v7.52h-4.46v-23.58h4.46v13.41l5.93-7.49h5.8l-7.77,8.86,7.84,8.79h-5.8Z"/>
        <path d="M849.1,429.81v8.54c0,.6.14,1.03.43,1.29.29.27.77.4,1.45.4h2.07v3.76h-2.8c-3.76,0-5.64-1.83-5.64-5.48v-8.51h-2.1v-3.66h2.1v-4.36h4.49v4.36h3.95v3.66h-3.95Z"/>
        <path d="M859.52,442.95c-1.36-.75-2.43-1.82-3.2-3.2-.78-1.38-1.16-2.97-1.16-4.78s.4-3.4,1.19-4.78,1.88-2.45,3.27-3.2,2.92-1.13,4.62-1.13,3.24.38,4.62,1.13,2.47,1.82,3.27,3.2,1.19,2.97,1.19,4.78-.41,3.4-1.23,4.78c-.82,1.38-1.92,2.45-3.31,3.2-1.39.75-2.95,1.13-4.67,1.13s-3.23-.38-4.59-1.13ZM866.39,439.61c.71-.39,1.28-.98,1.7-1.77.42-.78.64-1.74.64-2.87,0-1.68-.44-2.97-1.32-3.87-.88-.9-1.96-1.35-3.23-1.35s-2.34.45-3.2,1.35c-.86.9-1.29,2.19-1.29,3.87s.42,2.97,1.26,3.87c.84.9,1.9,1.35,3.17,1.35.81,0,1.57-.2,2.28-.59Z"/>
        <path d="M883.43,426.67c1.01-.54,2.16-.81,3.46-.81,1.51,0,2.87.37,4.09,1.11,1.22.74,2.19,1.8,2.9,3.17.71,1.37,1.07,2.96,1.07,4.76s-.36,3.4-1.07,4.8c-.71,1.39-1.68,2.47-2.9,3.23-1.22.76-2.59,1.15-4.09,1.15-1.3,0-2.44-.27-3.42-.8-.99-.53-1.79-1.2-2.41-2.01v10.93h-4.46v-26.06h4.46v2.55c.57-.81,1.36-1.48,2.37-2.02ZM889.74,432.15c-.44-.77-1.01-1.36-1.72-1.77s-1.48-.61-2.31-.61-1.57.21-2.28.62c-.71.41-1.28,1.02-1.72,1.8s-.65,1.71-.65,2.77.22,1.99.65,2.77,1.01,1.39,1.72,1.8c.71.41,1.47.62,2.28.62s1.6-.21,2.31-.64c.71-.42,1.28-1.03,1.72-1.82s.65-1.72.65-2.8-.22-1.98-.65-2.76Z"/>
        <path d="M922.44,426.15v17.65h-4.49v-2.23c-.57.76-1.32,1.37-2.25,1.8s-1.93.65-3.01.65c-1.38,0-2.6-.29-3.66-.88-1.06-.58-1.9-1.44-2.5-2.58s-.91-2.49-.91-4.06v-10.35h4.46v9.72c0,1.4.35,2.48,1.05,3.23.7.75,1.66,1.13,2.87,1.13s2.2-.38,2.9-1.13c.7-.75,1.05-1.83,1.05-3.23v-9.72h4.49Z"/>
        <path d="M929.71,443.3c-1.15-.52-2.06-1.23-2.72-2.12-.67-.89-1.04-1.88-1.1-2.96h4.49c.08.68.42,1.24,1,1.69.58.45,1.31.67,2.18.67s1.51-.17,1.99-.51c.48-.34.72-.78.72-1.31,0-.57-.29-1-.88-1.29-.58-.29-1.51-.6-2.79-.94-1.32-.32-2.39-.65-3.23-.99-.84-.34-1.56-.86-2.17-1.56-.61-.7-.91-1.65-.91-2.84,0-.98.28-1.87.84-2.68.56-.81,1.37-1.44,2.42-1.91,1.05-.47,2.29-.7,3.71-.7,2.1,0,3.78.53,5.03,1.58,1.25,1.05,1.94,2.47,2.07,4.25h-4.27c-.06-.7-.36-1.26-.88-1.67-.52-.41-1.22-.62-2.09-.62-.81,0-1.43.15-1.86.45-.44.3-.65.71-.65,1.24,0,.6.3,1.05.89,1.35.6.31,1.52.62,2.77.94,1.27.32,2.33.65,3.15.99s1.54.87,2.15,1.58c.61.71.92,1.65.94,2.82,0,1.02-.28,1.93-.84,2.74-.56.81-1.37,1.44-2.42,1.9-1.05.46-2.28.69-3.68.69s-2.74-.26-3.89-.78Z"/>
        <path d="M960.48,436.31h-12.9c.11,1.27.55,2.27,1.34,3s1.75,1.08,2.9,1.08c1.66,0,2.84-.71,3.54-2.13h4.81c-.51,1.7-1.49,3.1-2.93,4.19-1.44,1.09-3.22,1.64-5.32,1.64-1.7,0-3.22-.38-4.57-1.13-1.35-.75-2.4-1.82-3.15-3.2-.75-1.38-1.13-2.97-1.13-4.78s.37-3.43,1.11-4.81,1.78-2.44,3.12-3.19c1.34-.74,2.88-1.11,4.62-1.11s3.18.36,4.51,1.08c1.33.72,2.36,1.75,3.09,3.07.73,1.33,1.1,2.85,1.1,4.57,0,.64-.04,1.21-.13,1.72ZM955.99,433.32c-.02-1.15-.44-2.07-1.24-2.76-.81-.69-1.8-1.04-2.96-1.04-1.1,0-2.03.33-2.79,1-.75.67-1.22,1.6-1.39,2.79h8.38Z"/>
        <path d="M970.57,426.69c.92-.53,1.98-.8,3.17-.8v4.68h-1.18c-1.4,0-2.46.33-3.17.99-.71.66-1.07,1.81-1.07,3.44v8.79h-4.46v-17.65h4.46v2.74c.57-.93,1.32-1.67,2.25-2.2Z"/>
        <path d="M979.6,443.3c-1.15-.52-2.06-1.23-2.72-2.12-.67-.89-1.04-1.88-1.1-2.96h4.49c.08.68.42,1.24,1,1.69.58.45,1.31.67,2.18.67s1.51-.17,1.99-.51c.48-.34.72-.78.72-1.31,0-.57-.29-1-.88-1.29-.58-.29-1.51-.6-2.79-.94-1.32-.32-2.39-.65-3.23-.99-.84-.34-1.56-.86-2.17-1.56-.61-.7-.91-1.65-.91-2.84,0-.98.28-1.87.84-2.68.56-.81,1.37-1.44,2.42-1.91,1.05-.47,2.29-.7,3.71-.7,2.1,0,3.78.53,5.03,1.58,1.25,1.05,1.94,2.47,2.07,4.25h-4.27c-.06-.7-.36-1.26-.88-1.67-.52-.41-1.22-.62-2.09-.62-.81,0-1.43.15-1.86.45-.44.3-.65.71-.65,1.24,0,.6.3,1.05.89,1.35.6.31,1.52.62,2.77.94,1.27.32,2.33.65,3.15.99s1.54.87,2.15,1.58c.61.71.92,1.65.94,2.82,0,1.02-.28,1.93-.84,2.74-.56.81-1.37,1.44-2.42,1.9-1.05.46-2.28.69-3.68.69s-2.74-.26-3.89-.78Z"/>
        <path d="M998.97,439.12l-3.73,8.95h-2.87l2.07-8.95h4.52Z"/>
        <path d="M1026.66,426.15l-10.93,26h-4.75l3.82-8.79-7.07-17.21h5l4.56,12.33,4.62-12.33h4.75Z"/>
        <path d="M1032.29,442.95c-1.36-.75-2.43-1.82-3.2-3.2-.78-1.38-1.16-2.97-1.16-4.78s.4-3.4,1.19-4.78,1.88-2.45,3.27-3.2,2.92-1.13,4.62-1.13,3.24.38,4.62,1.13,2.47,1.82,3.27,3.2,1.19,2.97,1.19,4.78-.41,3.4-1.23,4.78c-.82,1.38-1.92,2.45-3.31,3.2-1.39.75-2.95,1.13-4.67,1.13s-3.23-.38-4.59-1.13ZM1039.16,439.61c.71-.39,1.28-.98,1.7-1.77.42-.78.64-1.74.64-2.87,0-1.68-.44-2.97-1.32-3.87-.88-.9-1.96-1.35-3.23-1.35s-2.34.45-3.2,1.35c-.86.9-1.29,2.19-1.29,3.87s.42,2.97,1.26,3.87c.84.9,1.9,1.35,3.17,1.35.81,0,1.57-.2,2.28-.59Z"/>
        <path d="M1066.03,426.15v17.65h-4.49v-2.23c-.57.76-1.32,1.37-2.25,1.8s-1.93.65-3.01.65c-1.38,0-2.6-.29-3.66-.88-1.06-.58-1.9-1.44-2.5-2.58s-.91-2.49-.91-4.06v-10.35h4.46v9.72c0,1.4.35,2.48,1.05,3.23.7.75,1.66,1.13,2.87,1.13s2.2-.38,2.9-1.13c.7-.75,1.05-1.83,1.05-3.23v-9.72h4.49Z"/>
        <path d="M1077.98,430.18c.74-1.37,1.77-2.43,3.09-3.19s2.83-1.13,4.52-1.13c2.19,0,4,.55,5.43,1.64,1.43,1.09,2.39,2.63,2.88,4.6h-4.81c-.25-.76-.68-1.37-1.29-1.8-.61-.43-1.35-.65-2.25-.65-1.27,0-2.28.46-3.03,1.39-.74.92-1.12,2.24-1.12,3.93s.37,2.98,1.12,3.9c.74.92,1.75,1.39,3.03,1.39,1.8,0,2.98-.81,3.54-2.42h4.81c-.49,1.91-1.45,3.43-2.9,4.56s-3.25,1.69-5.42,1.69c-1.7,0-3.21-.38-4.52-1.13s-2.35-1.82-3.09-3.19c-.74-1.37-1.11-2.97-1.11-4.8s.37-3.42,1.11-4.79Z"/>
        <path d="M1097.11,430.16c.71-1.38,1.68-2.44,2.9-3.19,1.22-.74,2.59-1.11,4.09-1.11,1.32,0,2.47.27,3.46.8.99.53,1.78,1.2,2.37,2.01v-2.52h4.49v17.65h-4.49v-2.58c-.57.83-1.37,1.51-2.37,2.06-1.01.54-2.17.81-3.49.81-1.49,0-2.84-.38-4.06-1.15s-2.19-1.84-2.9-3.23c-.71-1.39-1.07-2.99-1.07-4.8s.36-3.37,1.07-4.75ZM1109.3,432.19c-.43-.77-1-1.37-1.72-1.78-.72-.41-1.5-.62-2.33-.62s-1.59.2-2.29.61-1.27.99-1.7,1.77c-.44.78-.65,1.69-.65,2.76s.22,1.99.65,2.79c.43.8,1.01,1.41,1.72,1.83.71.43,1.47.64,2.28.64s1.6-.21,2.33-.62c.72-.41,1.3-1.01,1.72-1.78.42-.77.64-1.7.64-2.79s-.21-2.01-.64-2.79Z"/>
        <path d="M1133.67,427.88c1.3,1.33,1.94,3.18,1.94,5.56v10.35h-4.46v-9.75c0-1.4-.35-2.48-1.05-3.23s-1.66-1.13-2.87-1.13-2.2.38-2.92,1.13c-.71.75-1.07,1.83-1.07,3.23v9.75h-4.46v-17.65h4.46v2.2c.59-.76,1.35-1.36,2.28-1.8.92-.43,1.94-.65,3.04-.65,2.1,0,3.8.66,5.1,1.99Z"/>
        <path d="M1147.36,430.16c.71-1.38,1.68-2.44,2.9-3.19,1.22-.74,2.59-1.11,4.09-1.11,1.32,0,2.47.27,3.46.8.99.53,1.78,1.2,2.37,2.01v-2.52h4.49v17.65h-4.49v-2.58c-.57.83-1.37,1.51-2.37,2.06-1.01.54-2.17.81-3.49.81-1.49,0-2.84-.38-4.06-1.15s-2.19-1.84-2.9-3.23c-.71-1.39-1.07-2.99-1.07-4.8s.36-3.37,1.07-4.75ZM1159.54,432.19c-.43-.77-1-1.37-1.72-1.78-.72-.41-1.5-.62-2.33-.62s-1.59.2-2.29.61-1.27.99-1.7,1.77c-.44.78-.65,1.69-.65,2.76s.22,1.99.65,2.79c.43.8,1.01,1.41,1.72,1.83.71.43,1.47.64,2.28.64s1.6-.21,2.33-.62c.72-.41,1.3-1.01,1.72-1.78.42-.77.64-1.7.64-2.79s-.21-2.01-.64-2.79Z"/>
        <path d="M1173.5,420.22v23.58h-4.46v-23.58h4.46Z"/>
        <path d="M1180.76,443.3c-1.15-.52-2.06-1.23-2.72-2.12-.67-.89-1.04-1.88-1.1-2.96h4.49c.08.68.42,1.24,1,1.69.58.45,1.31.67,2.18.67s1.51-.17,1.99-.51c.48-.34.72-.78.72-1.31,0-.57-.29-1-.88-1.29-.58-.29-1.51-.6-2.79-.94-1.32-.32-2.39-.65-3.23-.99-.84-.34-1.56-.86-2.17-1.56-.61-.7-.91-1.65-.91-2.84,0-.98.28-1.87.84-2.68.56-.81,1.37-1.44,2.42-1.91,1.05-.47,2.29-.7,3.71-.7,2.1,0,3.78.53,5.03,1.58,1.25,1.05,1.94,2.47,2.07,4.25h-4.27c-.06-.7-.36-1.26-.88-1.67-.52-.41-1.22-.62-2.09-.62-.81,0-1.43.15-1.86.45-.44.3-.65.71-.65,1.24,0,.6.3,1.05.89,1.35.6.31,1.52.62,2.77.94,1.27.32,2.33.65,3.15.99s1.54.87,2.15,1.58c.61.71.92,1.65.94,2.82,0,1.02-.28,1.93-.84,2.74-.56.81-1.37,1.44-2.42,1.9-1.05.46-2.28.69-3.68.69s-2.74-.26-3.89-.78Z"/>
        <path d="M1198.51,442.95c-1.36-.75-2.43-1.82-3.2-3.2-.78-1.38-1.16-2.97-1.16-4.78s.4-3.4,1.19-4.78,1.88-2.45,3.27-3.2,2.92-1.13,4.62-1.13,3.24.38,4.62,1.13,2.47,1.82,3.27,3.2,1.19,2.97,1.19,4.78-.41,3.4-1.23,4.78c-.82,1.38-1.92,2.45-3.31,3.2-1.39.75-2.95,1.13-4.67,1.13s-3.23-.38-4.59-1.13ZM1205.37,439.61c.71-.39,1.28-.98,1.7-1.77.42-.78.64-1.74.64-2.87,0-1.68-.44-2.97-1.32-3.87-.88-.9-1.96-1.35-3.23-1.35s-2.34.45-3.2,1.35c-.86.9-1.29,2.19-1.29,3.87s.42,2.97,1.26,3.87c.84.9,1.9,1.35,3.17,1.35.81,0,1.57-.2,2.28-.59Z"/>
        <path d="M658.31,474.46c1.01-.54,2.16-.81,3.46-.81,1.51,0,2.87.37,4.09,1.11,1.22.74,2.19,1.8,2.9,3.17.71,1.37,1.07,2.96,1.07,4.76s-.36,3.4-1.07,4.8c-.71,1.39-1.68,2.47-2.9,3.23-1.22.76-2.59,1.15-4.09,1.15-1.3,0-2.44-.27-3.42-.8-.99-.53-1.79-1.2-2.41-2.01v10.93h-4.46v-26.06h4.46v2.55c.57-.81,1.36-1.48,2.37-2.02ZM664.62,479.94c-.44-.77-1.01-1.36-1.72-1.77s-1.48-.61-2.31-.61-1.57.21-2.28.62c-.71.41-1.28,1.02-1.72,1.8s-.65,1.71-.65,2.77.22,1.99.65,2.77,1.01,1.39,1.72,1.8c.71.41,1.47.62,2.28.62s1.6-.21,2.31-.64c.71-.42,1.28-1.03,1.72-1.82s.65-1.72.65-2.8-.22-1.98-.65-2.76Z"/>
        <path d="M679.78,474.48c.92-.53,1.98-.8,3.17-.8v4.68h-1.18c-1.4,0-2.46.33-3.17.99-.71.66-1.07,1.81-1.07,3.44v8.79h-4.46v-17.65h4.46v2.74c.57-.93,1.32-1.67,2.25-2.2Z"/>
        <path d="M702.23,484.1h-12.9c.11,1.27.55,2.27,1.34,3s1.75,1.08,2.9,1.08c1.66,0,2.84-.71,3.54-2.13h4.81c-.51,1.7-1.49,3.1-2.93,4.19-1.44,1.09-3.22,1.64-5.32,1.64-1.7,0-3.22-.38-4.57-1.13-1.35-.75-2.4-1.82-3.15-3.2-.75-1.38-1.13-2.97-1.13-4.78s.37-3.43,1.11-4.81,1.78-2.44,3.12-3.19c1.34-.74,2.88-1.11,4.62-1.11s3.18.36,4.51,1.08c1.33.72,2.36,1.75,3.09,3.07.73,1.33,1.1,2.85,1.1,4.57,0,.64-.04,1.21-.13,1.72ZM697.73,481.11c-.02-1.15-.44-2.07-1.24-2.76-.81-.69-1.8-1.04-2.96-1.04-1.1,0-2.03.33-2.79,1-.75.67-1.22,1.6-1.39,2.79h8.38Z"/>
        <path d="M708.47,491.1c-1.15-.52-2.06-1.23-2.72-2.12-.67-.89-1.04-1.88-1.1-2.96h4.49c.08.68.42,1.24,1,1.69.58.45,1.31.67,2.18.67s1.51-.17,1.99-.51c.48-.34.72-.78.72-1.31,0-.57-.29-1-.88-1.29-.58-.29-1.51-.6-2.79-.94-1.32-.32-2.39-.65-3.23-.99-.84-.34-1.56-.86-2.17-1.56-.61-.7-.91-1.65-.91-2.84,0-.98.28-1.87.84-2.68.56-.81,1.37-1.44,2.42-1.91,1.05-.47,2.29-.7,3.71-.7,2.1,0,3.78.53,5.03,1.58,1.25,1.05,1.94,2.47,2.07,4.25h-4.27c-.06-.7-.36-1.26-.88-1.67-.52-.41-1.22-.62-2.09-.62-.81,0-1.43.15-1.86.45-.44.3-.65.71-.65,1.24,0,.6.3,1.05.89,1.35.6.31,1.52.62,2.77.94,1.27.32,2.33.65,3.15.99s1.54.87,2.15,1.58c.61.71.92,1.65.94,2.82,0,1.02-.28,1.93-.84,2.74-.56.81-1.37,1.44-2.42,1.9-1.05.46-2.28.69-3.68.69s-2.74-.26-3.89-.78Z"/>
        <path d="M725.84,491.1c-1.15-.52-2.06-1.23-2.72-2.12-.67-.89-1.04-1.88-1.1-2.96h4.49c.08.68.42,1.24,1,1.69.58.45,1.31.67,2.18.67s1.51-.17,1.99-.51c.48-.34.72-.78.72-1.31,0-.57-.29-1-.88-1.29-.58-.29-1.51-.6-2.79-.94-1.32-.32-2.39-.65-3.23-.99-.84-.34-1.56-.86-2.17-1.56-.61-.7-.91-1.65-.91-2.84,0-.98.28-1.87.84-2.68.56-.81,1.37-1.44,2.42-1.91,1.05-.47,2.29-.7,3.71-.7,2.1,0,3.78.53,5.03,1.58,1.25,1.05,1.94,2.47,2.07,4.25h-4.27c-.06-.7-.36-1.26-.88-1.67-.52-.41-1.22-.62-2.09-.62-.81,0-1.43.15-1.86.45-.44.3-.65.71-.65,1.24,0,.6.3,1.05.89,1.35.6.31,1.52.62,2.77.94,1.27.32,2.33.65,3.15.99s1.54.87,2.15,1.58c.61.71.92,1.65.94,2.82,0,1.02-.28,1.93-.84,2.74-.56.81-1.37,1.44-2.42,1.9-1.05.46-2.28.69-3.68.69s-2.74-.26-3.89-.78Z"/>
        <path d="M753.11,477.6v8.54c0,.6.14,1.03.43,1.29.29.27.77.4,1.45.4h2.07v3.76h-2.8c-3.76,0-5.64-1.83-5.64-5.48v-8.51h-2.1v-3.66h2.1v-4.36h4.49v4.36h3.95v3.66h-3.95Z"/>
        <path d="M773.78,474.56c1.04.58,1.85,1.44,2.44,2.58.58,1.14.88,2.5.88,4.09v10.35h-4.46v-9.75c0-1.4-.35-2.48-1.05-3.23s-1.66-1.13-2.87-1.13-2.2.38-2.92,1.13c-.71.75-1.07,1.83-1.07,3.23v9.75h-4.46v-23.58h4.46v8.12c.57-.76,1.34-1.36,2.29-1.8.96-.43,2.02-.65,3.19-.65,1.34,0,2.53.29,3.57.88Z"/>
        <path d="M797.62,484.1h-12.9c.11,1.27.55,2.27,1.34,3s1.75,1.08,2.9,1.08c1.66,0,2.84-.71,3.54-2.13h4.81c-.51,1.7-1.49,3.1-2.93,4.19-1.44,1.09-3.22,1.64-5.32,1.64-1.7,0-3.22-.38-4.57-1.13-1.35-.75-2.4-1.82-3.15-3.2-.75-1.38-1.13-2.97-1.13-4.78s.37-3.43,1.11-4.81,1.78-2.44,3.12-3.19c1.34-.74,2.88-1.11,4.62-1.11s3.18.36,4.51,1.08c1.33.72,2.36,1.75,3.09,3.07.73,1.33,1.1,2.85,1.1,4.57,0,.64-.04,1.21-.13,1.72ZM793.12,481.11c-.02-1.15-.44-2.07-1.24-2.76-.81-.69-1.8-1.04-2.96-1.04-1.1,0-2.03.33-2.79,1-.75.67-1.22,1.6-1.39,2.79h8.38Z"/>
        <path d="M811.44,491.1c-1.15-.52-2.06-1.23-2.72-2.12-.67-.89-1.04-1.88-1.1-2.96h4.49c.08.68.42,1.24,1,1.69.58.45,1.31.67,2.18.67s1.51-.17,1.99-.51c.48-.34.72-.78.72-1.31,0-.57-.29-1-.88-1.29-.58-.29-1.51-.6-2.79-.94-1.32-.32-2.39-.65-3.23-.99-.84-.34-1.56-.86-2.17-1.56-.61-.7-.91-1.65-.91-2.84,0-.98.28-1.87.84-2.68.56-.81,1.37-1.44,2.42-1.91,1.05-.47,2.29-.7,3.71-.7,2.1,0,3.78.53,5.03,1.58,1.25,1.05,1.94,2.47,2.07,4.25h-4.27c-.06-.7-.36-1.26-.88-1.67-.52-.41-1.22-.62-2.09-.62-.81,0-1.43.15-1.86.45-.44.3-.65.71-.65,1.24,0,.6.3,1.05.89,1.35.6.31,1.52.62,2.77.94,1.27.32,2.33.65,3.15.99s1.54.87,2.15,1.58c.61.71.92,1.65.94,2.82,0,1.02-.28,1.93-.84,2.74-.56.81-1.37,1.44-2.42,1.9-1.05.46-2.28.69-3.68.69s-2.74-.26-3.89-.78Z"/>
        <path d="M832.77,474.46c1.01-.54,2.16-.81,3.46-.81,1.51,0,2.87.37,4.09,1.11,1.22.74,2.19,1.8,2.9,3.17.71,1.37,1.07,2.96,1.07,4.76s-.36,3.4-1.07,4.8c-.71,1.39-1.68,2.47-2.9,3.23-1.22.76-2.59,1.15-4.09,1.15-1.3,0-2.44-.27-3.42-.8-.99-.53-1.79-1.2-2.41-2.01v10.93h-4.46v-26.06h4.46v2.55c.57-.81,1.36-1.48,2.37-2.02ZM839.08,479.94c-.44-.77-1.01-1.36-1.72-1.77s-1.48-.61-2.31-.61-1.57.21-2.28.62c-.71.41-1.28,1.02-1.72,1.8s-.65,1.71-.65,2.77.22,1.99.65,2.77,1.01,1.39,1.72,1.8c.71.41,1.47.62,2.28.62s1.6-.21,2.31-.64c.71-.42,1.28-1.03,1.72-1.82s.65-1.72.65-2.8-.22-1.98-.65-2.76Z"/>
        <path d="M847.46,477.95c.71-1.38,1.68-2.44,2.9-3.19,1.22-.74,2.59-1.11,4.09-1.11,1.32,0,2.47.27,3.46.8.99.53,1.78,1.2,2.37,2.01v-2.52h4.49v17.65h-4.49v-2.58c-.57.83-1.37,1.51-2.37,2.06-1.01.54-2.17.81-3.49.81-1.49,0-2.84-.38-4.06-1.15s-2.19-1.84-2.9-3.23c-.71-1.39-1.07-2.99-1.07-4.8s.36-3.37,1.07-4.75ZM859.65,479.98c-.43-.77-1-1.37-1.72-1.78-.72-.41-1.5-.62-2.33-.62s-1.59.2-2.29.61-1.27.99-1.7,1.77c-.44.78-.65,1.69-.65,2.76s.22,1.99.65,2.79c.43.8,1.01,1.41,1.72,1.83.71.43,1.47.64,2.28.64s1.6-.21,2.33-.62c.72-.41,1.3-1.01,1.72-1.78.42-.77.64-1.7.64-2.79s-.21-2.01-.64-2.79Z"/>
        <path d="M869.11,477.97c.74-1.37,1.77-2.43,3.09-3.19s2.83-1.13,4.52-1.13c2.19,0,4,.55,5.43,1.64,1.43,1.09,2.39,2.63,2.88,4.6h-4.81c-.25-.76-.68-1.37-1.29-1.8-.61-.43-1.35-.65-2.25-.65-1.27,0-2.28.46-3.03,1.39-.74.92-1.12,2.24-1.12,3.93s.37,2.98,1.12,3.9c.74.92,1.75,1.39,3.03,1.39,1.8,0,2.98-.81,3.54-2.42h4.81c-.49,1.91-1.45,3.43-2.9,4.56s-3.25,1.69-5.42,1.69c-1.7,0-3.21-.38-4.52-1.13s-2.35-1.82-3.09-3.19c-.74-1.37-1.11-2.97-1.11-4.8s.37-3.42,1.11-4.79Z"/>
        <path d="M904.6,484.1h-12.9c.11,1.27.55,2.27,1.34,3s1.75,1.08,2.9,1.08c1.66,0,2.84-.71,3.54-2.13h4.81c-.51,1.7-1.49,3.1-2.93,4.19-1.44,1.09-3.22,1.64-5.32,1.64-1.7,0-3.22-.38-4.57-1.13-1.35-.75-2.4-1.82-3.15-3.2-.75-1.38-1.13-2.97-1.13-4.78s.37-3.43,1.11-4.81,1.78-2.44,3.12-3.19c1.34-.74,2.88-1.11,4.62-1.11s3.18.36,4.51,1.08c1.33.72,2.36,1.75,3.09,3.07.73,1.33,1.1,2.85,1.1,4.57,0,.64-.04,1.21-.13,1.72ZM900.11,481.11c-.02-1.15-.44-2.07-1.24-2.76-.81-.69-1.8-1.04-2.96-1.04-1.1,0-2.03.33-2.79,1-.75.67-1.22,1.6-1.39,2.79h8.38Z"/>
        <path d="M922.39,474.45c1.01-.53,2.16-.8,3.46-.8,1.51,0,2.87.37,4.09,1.11,1.22.74,2.19,1.8,2.9,3.17.71,1.37,1.07,2.96,1.07,4.76s-.36,3.4-1.07,4.8c-.71,1.39-1.68,2.47-2.9,3.23-1.22.76-2.59,1.15-4.09,1.15-1.32,0-2.47-.26-3.46-.78s-1.78-1.19-2.37-2.02v2.52h-4.46v-23.58h4.46v8.51c.57-.85,1.36-1.54,2.37-2.07ZM928.7,479.94c-.44-.77-1.01-1.36-1.72-1.77s-1.48-.61-2.31-.61-1.57.21-2.28.62c-.71.41-1.28,1.02-1.72,1.8s-.65,1.71-.65,2.77.22,1.99.65,2.77,1.01,1.39,1.72,1.8c.71.41,1.47.62,2.28.62s1.6-.21,2.31-.64c.71-.42,1.28-1.03,1.72-1.82s.65-1.72.65-2.8-.22-1.98-.65-2.76Z"/>
        <path d="M937.08,477.95c.71-1.38,1.68-2.44,2.9-3.19,1.22-.74,2.59-1.11,4.09-1.11,1.32,0,2.47.27,3.46.8.99.53,1.78,1.2,2.37,2.01v-2.52h4.49v17.65h-4.49v-2.58c-.57.83-1.37,1.51-2.37,2.06-1.01.54-2.17.81-3.49.81-1.49,0-2.84-.38-4.06-1.15s-2.19-1.84-2.9-3.23c-.71-1.39-1.07-2.99-1.07-4.8s.36-3.37,1.07-4.75ZM949.27,479.98c-.43-.77-1-1.37-1.72-1.78-.72-.41-1.5-.62-2.33-.62s-1.59.2-2.29.61-1.27.99-1.7,1.77c-.44.78-.65,1.69-.65,2.76s.22,1.99.65,2.79c.43.8,1.01,1.41,1.72,1.83.71.43,1.47.64,2.28.64s1.6-.21,2.33-.62c.72-.41,1.3-1.01,1.72-1.78.42-.77.64-1.7.64-2.79s-.21-2.01-.64-2.79Z"/>
        <path d="M965.47,474.48c.92-.53,1.98-.8,3.17-.8v4.68h-1.18c-1.4,0-2.46.33-3.17.99-.71.66-1.07,1.81-1.07,3.44v8.79h-4.46v-17.65h4.46v2.74c.57-.93,1.32-1.67,2.25-2.2Z"/>
        <path d="M982.47,490.75c-1.36-.75-2.43-1.82-3.2-3.2-.78-1.38-1.16-2.97-1.16-4.78s.4-3.4,1.19-4.78,1.88-2.45,3.27-3.2,2.92-1.13,4.62-1.13,3.24.38,4.62,1.13,2.47,1.82,3.27,3.2,1.19,2.97,1.19,4.78-.41,3.4-1.23,4.78c-.82,1.38-1.92,2.45-3.31,3.2-1.39.75-2.95,1.13-4.67,1.13s-3.23-.38-4.59-1.13ZM989.33,487.4c.71-.39,1.28-.98,1.7-1.77.42-.78.64-1.74.64-2.87,0-1.68-.44-2.97-1.32-3.87-.88-.9-1.96-1.35-3.23-1.35s-2.34.45-3.2,1.35c-.86.9-1.29,2.19-1.29,3.87s.42,2.97,1.26,3.87c.84.9,1.9,1.35,3.17,1.35.81,0,1.57-.2,2.28-.59Z"/>
        <path d="M1014.42,475.67c1.3,1.33,1.94,3.18,1.94,5.56v10.35h-4.46v-9.75c0-1.4-.35-2.48-1.05-3.23s-1.66-1.13-2.87-1.13-2.2.38-2.92,1.13c-.71.75-1.07,1.83-1.07,3.23v9.75h-4.46v-17.65h4.46v2.2c.59-.76,1.35-1.36,2.28-1.8.92-.43,1.94-.65,3.04-.65,2.1,0,3.8.66,5.1,1.99Z"/>
        <path d="M1045.07,473.94l-10.93,26h-4.75l3.82-8.79-7.07-17.21h5l4.56,12.33,4.62-12.33h4.75Z"/>
        <path d="M1050.71,490.75c-1.36-.75-2.43-1.82-3.2-3.2-.78-1.38-1.16-2.97-1.16-4.78s.4-3.4,1.19-4.78,1.88-2.45,3.27-3.2,2.92-1.13,4.62-1.13,3.24.38,4.62,1.13,2.47,1.82,3.27,3.2,1.19,2.97,1.19,4.78-.41,3.4-1.23,4.78c-.82,1.38-1.92,2.45-3.31,3.2-1.39.75-2.95,1.13-4.67,1.13s-3.23-.38-4.59-1.13ZM1057.58,487.4c.71-.39,1.28-.98,1.7-1.77.42-.78.64-1.74.64-2.87,0-1.68-.44-2.97-1.32-3.87-.88-.9-1.96-1.35-3.23-1.35s-2.34.45-3.2,1.35c-.86.9-1.29,2.19-1.29,3.87s.42,2.97,1.26,3.87c.84.9,1.9,1.35,3.17,1.35.81,0,1.57-.2,2.28-.59Z"/>
        <path d="M1084.45,473.94v17.65h-4.49v-2.23c-.57.76-1.32,1.37-2.25,1.8s-1.93.65-3.01.65c-1.38,0-2.6-.29-3.66-.88-1.06-.58-1.9-1.44-2.5-2.58s-.91-2.49-.91-4.06v-10.35h4.46v9.72c0,1.4.35,2.48,1.05,3.23.7.75,1.66,1.13,2.87,1.13s2.2-.38,2.9-1.13c.7-.75,1.05-1.83,1.05-3.23v-9.72h4.49Z"/>
        <path d="M1095.55,474.48c.92-.53,1.98-.8,3.17-.8v4.68h-1.18c-1.4,0-2.46.33-3.17.99-.71.66-1.07,1.81-1.07,3.44v8.79h-4.46v-17.65h4.46v2.74c.57-.93,1.32-1.67,2.25-2.2Z"/>
        <path d="M1119.75,491.59l-5.99-7.52v7.52h-4.46v-23.58h4.46v13.41l5.93-7.49h5.8l-7.77,8.86,7.84,8.79h-5.8Z"/>
        <path d="M1144.19,484.1h-12.9c.11,1.27.55,2.27,1.34,3s1.75,1.08,2.9,1.08c1.66,0,2.84-.71,3.54-2.13h4.81c-.51,1.7-1.49,3.1-2.93,4.19-1.44,1.09-3.22,1.64-5.32,1.64-1.7,0-3.22-.38-4.57-1.13-1.35-.75-2.4-1.82-3.15-3.2-.75-1.38-1.13-2.97-1.13-4.78s.37-3.43,1.11-4.81,1.78-2.44,3.12-3.19c1.34-.74,2.88-1.11,4.62-1.11s3.18.36,4.51,1.08c1.33.72,2.36,1.75,3.09,3.07.73,1.33,1.1,2.85,1.1,4.57,0,.64-.04,1.21-.13,1.72ZM1139.69,481.11c-.02-1.15-.44-2.07-1.24-2.76-.81-.69-1.8-1.04-2.96-1.04-1.1,0-2.03.33-2.79,1-.75.67-1.22,1.6-1.39,2.79h8.38Z"/>
        <path d="M1164.45,473.94l-10.93,26h-4.75l3.82-8.79-7.07-17.21h5l4.56,12.33,4.62-12.33h4.75Z"/>
        <path d="M1173.67,474.45c1.01-.53,2.16-.8,3.46-.8,1.51,0,2.87.37,4.09,1.11,1.22.74,2.19,1.8,2.9,3.17.71,1.37,1.07,2.96,1.07,4.76s-.36,3.4-1.07,4.8c-.71,1.39-1.68,2.47-2.9,3.23-1.22.76-2.59,1.15-4.09,1.15-1.32,0-2.47-.26-3.46-.78s-1.78-1.19-2.37-2.02v2.52h-4.46v-23.58h4.46v8.51c.57-.85,1.36-1.54,2.37-2.07ZM1179.98,479.94c-.44-.77-1.01-1.36-1.72-1.77s-1.48-.61-2.31-.61-1.57.21-2.28.62c-.71.41-1.28,1.02-1.72,1.8s-.65,1.71-.65,2.77.22,1.99.65,2.77,1.01,1.39,1.72,1.8c.71.41,1.47.62,2.28.62s1.6-.21,2.31-.64c.71-.42,1.28-1.03,1.72-1.82s.65-1.72.65-2.8-.22-1.98-.65-2.76Z"/>
        <path d="M1191.69,490.75c-1.36-.75-2.43-1.82-3.2-3.2-.78-1.38-1.16-2.97-1.16-4.78s.4-3.4,1.19-4.78,1.88-2.45,3.27-3.2,2.92-1.13,4.62-1.13,3.24.38,4.62,1.13,2.47,1.82,3.27,3.2,1.19,2.97,1.19,4.78-.41,3.4-1.23,4.78c-.82,1.38-1.92,2.45-3.31,3.2-1.39.75-2.95,1.13-4.67,1.13s-3.23-.38-4.59-1.13ZM1198.56,487.4c.71-.39,1.28-.98,1.7-1.77.42-.78.64-1.74.64-2.87,0-1.68-.44-2.97-1.32-3.87-.88-.9-1.96-1.35-3.23-1.35s-2.34.45-3.2,1.35c-.86.9-1.29,2.19-1.29,3.87s.42,2.97,1.26,3.87c.84.9,1.9,1.35,3.17,1.35.81,0,1.57-.2,2.28-.59Z"/>
        <path d="M1208.69,477.95c.71-1.38,1.68-2.44,2.9-3.19,1.22-.74,2.59-1.11,4.09-1.11,1.32,0,2.47.27,3.46.8.99.53,1.78,1.2,2.37,2.01v-2.52h4.49v17.65h-4.49v-2.58c-.57.83-1.37,1.51-2.37,2.06-1.01.54-2.17.81-3.49.81-1.49,0-2.84-.38-4.06-1.15s-2.19-1.84-2.9-3.23c-.71-1.39-1.07-2.99-1.07-4.8s.36-3.37,1.07-4.75ZM1220.87,479.98c-.43-.77-1-1.37-1.72-1.78-.72-.41-1.5-.62-2.33-.62s-1.59.2-2.29.61-1.27.99-1.7,1.77c-.44.78-.65,1.69-.65,2.76s.22,1.99.65,2.79c.43.8,1.01,1.41,1.72,1.83.71.43,1.47.64,2.28.64s1.6-.21,2.33-.62c.72-.41,1.3-1.01,1.72-1.78.42-.77.64-1.7.64-2.79s-.21-2.01-.64-2.79Z"/>
        <path d="M1237.07,474.48c.92-.53,1.98-.8,3.17-.8v4.68h-1.18c-1.4,0-2.46.33-3.17.99-.71.66-1.07,1.81-1.07,3.44v8.79h-4.46v-17.65h4.46v2.74c.57-.93,1.32-1.67,2.25-2.2Z"/>
        <path d="M1243.16,477.95c.71-1.38,1.68-2.44,2.92-3.19,1.23-.74,2.6-1.11,4.11-1.11,1.15,0,2.24.25,3.28.75,1.04.5,1.87,1.16,2.49,1.99v-8.38h4.52v23.58h-4.52v-2.61c-.55.87-1.33,1.57-2.33,2.1-1,.53-2.16.8-3.47.8-1.49,0-2.85-.38-4.08-1.15-1.23-.76-2.2-1.84-2.92-3.23-.71-1.39-1.07-2.99-1.07-4.8s.36-3.37,1.07-4.75ZM1255.35,479.98c-.43-.77-1-1.37-1.72-1.78-.72-.41-1.5-.62-2.33-.62s-1.59.2-2.29.61-1.27.99-1.7,1.77c-.44.78-.65,1.69-.65,2.76s.22,1.99.65,2.79c.43.8,1.01,1.41,1.72,1.83.71.43,1.47.64,2.28.64s1.6-.21,2.33-.62c.72-.41,1.3-1.01,1.72-1.78.42-.77.64-1.7.64-2.79s-.21-2.01-.64-2.79Z"/>
        <path d="M1264.83,491.06c-.52-.5-.78-1.12-.78-1.86s.26-1.36.78-1.86c.52-.5,1.18-.75,1.99-.75s1.43.25,1.94.75c.51.5.76,1.12.76,1.86s-.25,1.37-.76,1.86c-.51.5-1.16.75-1.94.75s-1.47-.25-1.99-.75Z"/>
      </g>
      <g>
        <ellipse class="cls-8" cx="960.5" cy="757.42" rx="143.54" ry="118.81"/>
        <ellipse class="cls-6" cx="961.24" cy="747.57" rx="129.53" ry="107.22"/>
        <ellipse class="cls-2" cx="961.24" cy="724.1" rx="129.53" ry="107.22"/>
      </g>
      <g>
        <g>
          <path class="cls-4" d="M850.32,1313.06l-10.39-18.35h-4.45v18.35h-9.45v-47.1h17.68c3.64,0,6.75.64,9.31,1.92,2.56,1.28,4.49,3.01,5.77,5.2,1.28,2.18,1.92,4.62,1.92,7.32,0,3.1-.9,5.9-2.7,8.4-1.8,2.5-4.48,4.22-8.03,5.16l11.27,19.1h-10.93ZM835.47,1287.62h7.89c2.56,0,4.48-.62,5.74-1.86,1.26-1.24,1.89-2.96,1.89-5.16s-.63-3.83-1.89-5.03c-1.26-1.19-3.17-1.79-5.74-1.79h-7.89v13.83Z"/>
          <path class="cls-4" d="M878.72,1273.59v11.81h15.86v7.49h-15.86v12.48h17.88v7.69h-27.33v-47.16h27.33v7.69h-17.88Z"/>
          <path class="cls-4" d="M912.56,1311.84c-2.63-1.12-4.71-2.74-6.24-4.86-1.53-2.11-2.32-4.61-2.36-7.49h10.12c.13,1.93.82,3.46,2.06,4.59,1.24,1.12,2.94,1.69,5.09,1.69s3.94-.53,5.2-1.59c1.26-1.06,1.89-2.44,1.89-4.15,0-1.39-.43-2.54-1.28-3.44-.86-.9-1.92-1.61-3.21-2.13-1.28-.52-3.05-1.09-5.3-1.72-3.06-.9-5.54-1.79-7.46-2.67-1.91-.88-3.55-2.2-4.93-3.98-1.37-1.78-2.06-4.15-2.06-7.12,0-2.79.7-5.22,2.09-7.29,1.39-2.07,3.35-3.65,5.87-4.76,2.52-1.1,5.4-1.65,8.64-1.65,4.86,0,8.81,1.18,11.84,3.54,3.04,2.36,4.71,5.66,5.03,9.88h-10.39c-.09-1.62-.78-2.96-2.06-4.01-1.28-1.06-2.98-1.59-5.09-1.59-1.84,0-3.32.47-4.42,1.42-1.1.94-1.65,2.32-1.65,4.12,0,1.26.42,2.31,1.25,3.14.83.83,1.87,1.51,3.1,2.02,1.24.52,2.98,1.11,5.23,1.79,3.06.9,5.55,1.8,7.49,2.7,1.93.9,3.6,2.25,4.99,4.05,1.39,1.8,2.09,4.16,2.09,7.08,0,2.52-.65,4.86-1.96,7.02s-3.22,3.88-5.74,5.16c-2.52,1.28-5.51,1.92-8.97,1.92-3.28,0-6.24-.56-8.87-1.69Z"/>
          <path class="cls-4" d="M955.57,1265.96v29.15c0,3.19.83,5.63,2.5,7.32,1.66,1.69,4,2.53,7.02,2.53s5.42-.84,7.08-2.53c1.66-1.69,2.5-4.13,2.5-7.32v-29.15h9.51v29.08c0,4-.87,7.39-2.6,10.15-1.73,2.77-4.05,4.85-6.95,6.24-2.9,1.39-6.13,2.09-9.68,2.09s-6.69-.7-9.55-2.09c-2.86-1.39-5.12-3.48-6.78-6.24-1.67-2.77-2.5-6.15-2.5-10.15v-29.08h9.45Z"/>
          <path class="cls-4" d="M1002.74,1305.57h15.52v7.49h-24.97v-47.1h9.45v39.61Z"/>
          <path class="cls-4" d="M1056.31,1265.96v7.62h-12.55v39.47h-9.45v-39.47h-12.55v-7.62h34.55Z"/>
          <path class="cls-4" d="M1070.58,1311.84c-2.63-1.12-4.71-2.74-6.24-4.86-1.53-2.11-2.32-4.61-2.36-7.49h10.12c.13,1.93.82,3.46,2.06,4.59,1.24,1.12,2.94,1.69,5.09,1.69s3.94-.53,5.2-1.59c1.26-1.06,1.89-2.44,1.89-4.15,0-1.39-.43-2.54-1.28-3.44-.86-.9-1.92-1.61-3.21-2.13-1.28-.52-3.05-1.09-5.3-1.72-3.06-.9-5.54-1.79-7.46-2.67-1.91-.88-3.55-2.2-4.93-3.98-1.37-1.78-2.06-4.15-2.06-7.12,0-2.79.7-5.22,2.09-7.29,1.39-2.07,3.35-3.65,5.87-4.76,2.52-1.1,5.4-1.65,8.64-1.65,4.86,0,8.81,1.18,11.84,3.54,3.04,2.36,4.71,5.66,5.03,9.88h-10.39c-.09-1.62-.78-2.96-2.06-4.01-1.28-1.06-2.98-1.59-5.09-1.59-1.84,0-3.32.47-4.42,1.42-1.1.94-1.65,2.32-1.65,4.12,0,1.26.42,2.31,1.25,3.14.83.83,1.87,1.51,3.1,2.02,1.24.52,2.98,1.11,5.23,1.79,3.06.9,5.55,1.8,7.49,2.7,1.93.9,3.6,2.25,4.99,4.05,1.39,1.8,2.09,4.16,2.09,7.08,0,2.52-.65,4.86-1.96,7.02s-3.22,3.88-5.74,5.16c-2.52,1.28-5.51,1.92-8.97,1.92-3.28,0-6.24-.56-8.87-1.69Z"/>
        </g>
        <rect class="cls-1" x="555.35" y="1380" width="810.31" height="65.64"/>
        <g>
          <path class="cls-4" d="M599.2,1399.41c2.46,1.24,4.36,3.01,5.7,5.3,1.34,2.3,2.01,4.96,2.01,7.99s-.67,5.68-2.01,7.95c-1.34,2.27-3.24,4.02-5.7,5.26-2.46,1.24-5.31,1.86-8.54,1.86h-10.77v-30.23h10.77c3.24,0,6.09.62,8.54,1.86ZM597.94,1420.02c1.77-1.73,2.65-4.17,2.65-7.32s-.88-5.61-2.65-7.38c-1.77-1.78-4.27-2.66-7.51-2.66h-4.37v19.96h4.37c3.24,0,5.74-.87,7.51-2.6Z"/>
          <path class="cls-4" d="M630.44,1422.01h-12.27l-2.03,5.76h-6.49l11.08-30.27h7.2l11.08,30.27h-6.53l-2.03-5.76ZM628.76,1417.16l-4.46-12.64-4.46,12.64h8.92Z"/>
          <path class="cls-4" d="M669.51,1427.77h-6.18l-14-20.74v20.74h-6.18v-30.27h6.18l14,20.79v-20.79h6.18v30.27Z"/>
          <path class="cls-4" d="M676.16,1404.62c1.37-2.35,3.24-4.19,5.61-5.5,2.37-1.31,5.03-1.97,7.97-1.97,3.44,0,6.46.87,9.05,2.6,2.59,1.73,4.4,4.13,5.43,7.19h-7.11c-.71-1.44-1.7-2.53-2.98-3.25-1.28-.72-2.76-1.08-4.44-1.08-1.8,0-3.39.41-4.79,1.23-1.4.82-2.49,1.99-3.27,3.49-.78,1.5-1.17,3.26-1.17,5.28s.39,3.75,1.17,5.26c.78,1.52,1.87,2.69,3.27,3.51,1.4.82,2.99,1.23,4.79,1.23,1.68,0,3.16-.37,4.44-1.1s2.27-1.83,2.98-3.27h7.11c-1.03,3.09-2.83,5.49-5.41,7.21s-5.6,2.58-9.07,2.58c-2.94,0-5.6-.66-7.97-1.97-2.37-1.31-4.24-3.14-5.61-5.48-1.37-2.34-2.05-5-2.05-7.97s.68-5.64,2.05-7.99Z"/>
          <path class="cls-4" d="M715.69,1402.44v7.58h10.38v4.81h-10.38v8.01h11.7v4.94h-17.88v-30.27h17.88v4.94h-11.7Z"/>
        </g>
        <g>
          <path class="cls-4" d="M846.44,1422.96h10.16v4.81h-16.34v-30.23h6.18v25.42Z"/>
          <path class="cls-4" d="M866.88,1426.08c-2.41-1.33-4.33-3.17-5.74-5.52-1.41-2.35-2.12-5.02-2.12-7.99s.71-5.59,2.12-7.95c1.41-2.35,3.33-4.19,5.74-5.52,2.41-1.33,5.06-1.99,7.95-1.99s5.57.66,7.97,1.99c2.4,1.33,4.3,3.17,5.7,5.52,1.4,2.35,2.1,5,2.1,7.95s-.7,5.64-2.1,7.99c-1.4,2.35-3.3,4.19-5.72,5.52-2.41,1.33-5.06,1.99-7.95,1.99s-5.53-.66-7.95-1.99ZM879.73,1421.43c1.41-.82,2.52-2,3.31-3.53.79-1.53,1.19-3.3,1.19-5.33s-.4-3.79-1.19-5.3c-.79-1.52-1.9-2.68-3.31-3.49-1.41-.81-3.05-1.21-4.9-1.21s-3.5.41-4.92,1.21c-1.43.81-2.54,1.97-3.33,3.49-.79,1.52-1.19,3.28-1.19,5.3s.4,3.8,1.19,5.33c.79,1.53,1.91,2.71,3.33,3.53,1.43.82,3.07,1.23,4.92,1.23s3.49-.41,4.9-1.23Z"/>
          <path class="cls-4" d="M936.37,1397.54l-8.61,30.23h-7.29l-5.78-21.52-6.05,21.52-7.24.04-8.3-30.27h6.62l5.43,23.47,6.27-23.47h6.89l5.92,23.34,5.47-23.34h6.67Z"/>
          <path class="cls-4" d="M983.17,1414.82c1.12,1.39,1.68,2.97,1.68,4.76,0,1.62-.41,3.04-1.21,4.27-.81,1.23-1.98,2.19-3.51,2.88-1.53.69-3.34,1.04-5.43,1.04h-13.29v-30.23h12.72c2.09,0,3.89.33,5.41,1,1.52.67,2.66,1.59,3.44,2.77.78,1.18,1.17,2.53,1.17,4.03,0,1.76-.48,3.23-1.44,4.42-.96,1.18-2.23,2.02-3.82,2.51,1.74.32,3.16,1.17,4.28,2.56ZM967.59,1410.02h5.65c1.47,0,2.61-.33,3.4-.97.79-.65,1.19-1.58,1.19-2.79s-.4-2.15-1.19-2.82c-.79-.66-1.93-1-3.4-1h-5.65v7.58ZM977.32,1421.79c.84-.69,1.26-1.67,1.26-2.94s-.44-2.32-1.32-3.05c-.88-.74-2.08-1.1-3.58-1.1h-6.09v8.14h6.23c1.5,0,2.67-.35,3.51-1.04Z"/>
          <path class="cls-4" d="M1011.1,1411.44c-.78,1.42-2,2.55-3.66,3.42-1.66.87-3.76,1.3-6.29,1.3h-5.17v11.61h-6.18v-30.23h11.35c2.38,0,4.42.41,6.09,1.21,1.68.81,2.94,1.92,3.78,3.33.84,1.42,1.26,3.02,1.26,4.81,0,1.62-.39,3.13-1.17,4.55ZM1004.67,1410.12c.82-.76,1.24-1.84,1.24-3.23,0-2.95-1.68-4.42-5.03-4.42h-4.9v8.79h4.9c1.71,0,2.97-.38,3.8-1.15Z"/>
          <path class="cls-4" d="M1050.24,1397.54v30.23h-6.18v-19.66l-8.26,19.66h-4.68l-8.3-19.66v19.66h-6.18v-30.23h7.02l9.8,22.48,9.8-22.48h6.98Z"/>
        </g>
        <g>
          <path class="cls-4" d="M1152.99,1397.54v30.23h-6.18v-12.86h-13.2v12.86h-6.18v-30.23h6.18v12.43h13.2v-12.43h6.18Z"/>
          <path class="cls-4" d="M1165.26,1397.54v30.23h-6.18v-30.23h6.18Z"/>
          <path class="cls-4" d="M1192.81,1406.64c-.71-1.27-1.68-2.24-2.91-2.9-1.24-.66-2.68-1-4.33-1-1.83,0-3.44.4-4.86,1.21-1.41.81-2.52,1.96-3.31,3.46-.79,1.5-1.19,3.23-1.19,5.2s.4,3.78,1.21,5.28c.81,1.5,1.94,2.66,3.38,3.46,1.44.81,3.12,1.21,5.03,1.21,2.35,0,4.28-.61,5.78-1.84,1.5-1.23,2.49-2.94,2.96-5.13h-10.6v-4.63h16.69v5.28c-.41,2.11-1.3,4.06-2.65,5.85s-3.1,3.23-5.23,4.31c-2.13,1.08-4.53,1.62-7.17,1.62-2.97,0-5.66-.66-8.06-1.97-2.4-1.31-4.28-3.14-5.65-5.48-1.37-2.34-2.05-5-2.05-7.97s.68-5.64,2.05-7.99c1.37-2.35,3.25-4.19,5.65-5.5,2.4-1.31,5.07-1.97,8.01-1.97,3.47,0,6.49.83,9.05,2.49s4.33,3.99,5.3,6.99h-7.11Z"/>
          <path class="cls-4" d="M1230.83,1397.54v30.23h-6.18v-12.86h-13.2v12.86h-6.18v-30.23h6.18v12.43h13.2v-12.43h6.18Z"/>
          <path class="cls-4" d="M1279.7,1414.82c1.12,1.39,1.68,2.97,1.68,4.76,0,1.62-.41,3.04-1.21,4.27-.81,1.23-1.98,2.19-3.51,2.88-1.53.69-3.34,1.04-5.43,1.04h-13.29v-30.23h12.72c2.09,0,3.89.33,5.41,1,1.52.67,2.66,1.59,3.44,2.77.78,1.18,1.17,2.53,1.17,4.03,0,1.76-.48,3.23-1.44,4.42-.96,1.18-2.23,2.02-3.82,2.51,1.74.32,3.16,1.17,4.28,2.56ZM1264.12,1410.02h5.65c1.47,0,2.61-.33,3.4-.97.79-.65,1.19-1.58,1.19-2.79s-.4-2.15-1.19-2.82c-.79-.66-1.93-1-3.4-1h-5.65v7.58ZM1273.85,1421.79c.84-.69,1.26-1.67,1.26-2.94s-.44-2.32-1.32-3.05c-.88-.74-2.08-1.1-3.58-1.1h-6.09v8.14h6.23c1.5,0,2.67-.35,3.51-1.04Z"/>
          <path class="cls-4" d="M1307.63,1411.44c-.78,1.42-2,2.55-3.66,3.42-1.66.87-3.76,1.3-6.29,1.3h-5.17v11.61h-6.18v-30.23h11.35c2.38,0,4.42.41,6.09,1.21,1.68.81,2.94,1.92,3.78,3.33.84,1.42,1.26,3.02,1.26,4.81,0,1.62-.39,3.13-1.17,4.55ZM1301.21,1410.12c.82-.76,1.24-1.84,1.24-3.23,0-2.95-1.68-4.42-5.03-4.42h-4.9v8.79h4.9c1.71,0,2.97-.38,3.8-1.15Z"/>
          <path class="cls-4" d="M1346.77,1397.54v30.23h-6.18v-19.66l-8.26,19.66h-4.68l-8.3-19.66v19.66h-6.18v-30.23h7.02l9.8,22.48,9.8-22.48h6.98Z"/>
        </g>
        <rect class="cls-3" x="555.35" y="1445.64" width="810.31" height="65.64"/>
        <g>
          <path class="cls-4" d="M598.47,1463.18v4.89h-12.85v7.75h9.85v4.81h-9.85v12.78h-6.18v-30.23h19.03Z"/>
          <path class="cls-4" d="M607.34,1492.26c-1.88-1.02-3.36-2.48-4.44-4.35-1.07-1.88-1.61-4.04-1.61-6.5s.55-4.62,1.66-6.5c1.1-1.88,2.61-3.33,4.53-4.35,1.91-1.02,4.05-1.54,6.4-1.54s4.49.51,6.4,1.54c1.91,1.03,3.42,2.48,4.53,4.35,1.1,1.88,1.66,4.04,1.66,6.5s-.57,4.62-1.7,6.5c-1.13,1.88-2.66,3.33-4.59,4.35-1.93,1.03-4.08,1.54-6.47,1.54s-4.47-.51-6.36-1.54ZM616.86,1487.71c.99-.53,1.77-1.33,2.36-2.4.59-1.07.88-2.37.88-3.9,0-2.28-.61-4.03-1.83-5.26-1.22-1.23-2.71-1.84-4.48-1.84s-3.25.61-4.44,1.84c-1.19,1.23-1.79,2.98-1.79,5.26s.58,4.04,1.74,5.26c1.16,1.23,2.63,1.84,4.39,1.84,1.12,0,2.17-.27,3.16-.8Z"/>
          <path class="cls-4" d="M644.52,1493.41l-5.03-7.45-4.46,7.45h-6.62l7.99-12.04-8.08-11.95h6.98l4.99,7.41,4.5-7.41h6.62l-8.04,11.95,8.12,12.04h-6.98Z"/>
          <path class="cls-4" d="M662.05,1474.4v11.61c0,.81.2,1.39.6,1.75.4.36,1.07.54,2.01.54h2.87v5.11h-3.88c-5.21,0-7.82-2.48-7.82-7.45v-11.56h-2.91v-4.98h2.91v-5.93h6.23v5.93h5.47v4.98h-5.47Z"/>
          <path class="cls-4" d="M681.28,1470.15c1.28-.72,2.74-1.08,4.39-1.08v6.37h-1.63c-1.94,0-3.41.45-4.39,1.34-.99.89-1.48,2.45-1.48,4.68v11.95h-6.18v-23.99h6.18v3.72c.79-1.27,1.83-2.27,3.11-2.99Z"/>
          <path class="cls-4" d="M694.32,1492.26c-1.88-1.02-3.36-2.48-4.44-4.35-1.07-1.88-1.61-4.04-1.61-6.5s.55-4.62,1.66-6.5c1.1-1.88,2.61-3.33,4.53-4.35,1.91-1.02,4.05-1.54,6.4-1.54s4.49.51,6.4,1.54c1.91,1.03,3.42,2.48,4.53,4.35,1.1,1.88,1.66,4.04,1.66,6.5s-.57,4.62-1.7,6.5c-1.13,1.88-2.66,3.33-4.59,4.35-1.93,1.03-4.08,1.54-6.47,1.54s-4.47-.51-6.36-1.54ZM703.84,1487.71c.99-.53,1.77-1.33,2.36-2.4.59-1.07.88-2.37.88-3.9,0-2.28-.61-4.03-1.83-5.26-1.22-1.23-2.71-1.84-4.48-1.84s-3.25.61-4.44,1.84c-1.19,1.23-1.79,2.98-1.79,5.26s.58,4.04,1.74,5.26c1.16,1.23,2.63,1.84,4.39,1.84,1.12,0,2.17-.27,3.16-.8Z"/>
          <path class="cls-4" d="M725.18,1474.4v11.61c0,.81.2,1.39.6,1.75.4.36,1.07.54,2.01.54h2.87v5.11h-3.88c-5.21,0-7.82-2.48-7.82-7.45v-11.56h-2.91v-4.98h2.91v-5.93h6.23v5.93h5.47v4.98h-5.47Z"/>
        </g>
        <g>
          <path class="cls-4" d="M911.91,1467.42v-5.59h10.64v31.57h-6.36v-25.98h-4.28Z"/>
          <path class="cls-4" d="M930.59,1486.57c2.83-2.31,5.08-4.24,6.75-5.78,1.68-1.54,3.08-3.15,4.19-4.83,1.12-1.67,1.68-3.32,1.68-4.94,0-1.47-.35-2.63-1.06-3.46-.71-.84-1.8-1.26-3.27-1.26s-2.6.48-3.4,1.45c-.79.97-1.21,2.29-1.24,3.96h-6c.12-3.46,1.17-6.09,3.16-7.88,1.99-1.79,4.51-2.68,7.57-2.68,3.36,0,5.93.87,7.73,2.62,1.79,1.75,2.69,4.05,2.69,6.91,0,2.25-.62,4.4-1.85,6.45-1.24,2.05-2.65,3.83-4.24,5.35-1.59,1.52-3.66,3.34-6.22,5.48h13.02v5.02h-21.81v-4.5l2.3-1.91Z"/>
          <path class="cls-4" d="M956.75,1465.48c1.84-2.83,4.89-4.24,9.16-4.24s7.32,1.41,9.16,4.24c1.84,2.83,2.76,6.74,2.76,11.74s-.92,8.96-2.76,11.82c-1.84,2.86-4.89,4.29-9.16,4.29s-7.32-1.43-9.16-4.29c-1.84-2.86-2.76-6.8-2.76-11.82s.92-8.91,2.76-11.74ZM971.32,1471.82c-.28-1.46-.84-2.65-1.68-3.57s-2.08-1.39-3.73-1.39-2.89.46-3.73,1.39-1.4,2.12-1.68,3.57c-.28,1.46-.42,3.25-.42,5.39s.13,4.04.4,5.52c.27,1.49.82,2.68,1.68,3.59.85.91,2.1,1.36,3.75,1.36s2.9-.45,3.75-1.36c.85-.91,1.41-2.11,1.68-3.59.27-1.49.4-3.33.4-5.52s-.14-3.93-.42-5.39Z"/>
        </g>
        <g>
          <path class="cls-4" d="M1203.34,1467.42v-5.59h10.64v31.57h-6.36v-25.98h-4.28Z"/>
          <path class="cls-4" d="M1223.28,1463.46c1.93-1.57,4.47-2.36,7.62-2.36,2.15,0,3.99.37,5.52,1.1,1.53.74,2.69,1.73,3.47,2.99.78,1.26,1.17,2.68,1.17,4.27,0,1.82-.48,3.36-1.44,4.61-.96,1.26-2.1,2.1-3.42,2.53v.17c1.71.52,3.04,1.44,4,2.77.96,1.33,1.44,3.03,1.44,5.11,0,1.73-.41,3.28-1.21,4.63-.81,1.36-2,2.42-3.58,3.18-1.58.76-3.47,1.15-5.67,1.15-3.33,0-6.03-.82-8.12-2.47s-3.19-4.07-3.31-7.28h6c.06,1.42.55,2.55,1.48,3.4.93.85,2.2,1.28,3.82,1.28,1.5,0,2.66-.41,3.47-1.23.81-.82,1.21-1.88,1.21-3.18,0-1.73-.56-2.97-1.68-3.72-1.12-.75-2.86-1.12-5.21-1.12h-1.28v-4.98h1.28c4.18,0,6.27-1.37,6.27-4.11,0-1.24-.38-2.21-1.13-2.9-.75-.69-1.83-1.04-3.25-1.04s-2.45.37-3.2,1.1c-.75.74-1.18,1.67-1.3,2.79h-6.05c.15-2.89,1.18-5.12,3.11-6.69Z"/>
          <path class="cls-4" d="M1261.69,1466.99c-.72-.61-1.76-.91-3.11-.91-2.03,0-3.53.8-4.48,2.4-.96,1.6-1.45,4.21-1.48,7.82.71-1.15,1.74-2.06,3.09-2.71s2.83-.97,4.42-.97c1.91,0,3.61.41,5.08,1.21,1.47.81,2.62,1.99,3.44,3.53.82,1.54,1.24,3.4,1.24,5.56,0,2.05-.42,3.88-1.26,5.48s-2.07,2.85-3.69,3.75c-1.62.9-3.55,1.34-5.78,1.34-3.06,0-5.47-.66-7.22-1.99-1.75-1.33-2.97-3.18-3.67-5.57-.69-2.38-1.04-5.32-1.04-8.81,0-5.28.93-9.27,2.78-11.97s4.78-4.05,8.79-4.05c3.09,0,5.49.82,7.2,2.47,1.71,1.65,2.69,3.7,2.96,6.15h-5.74c-.29-1.21-.8-2.12-1.52-2.73ZM1254.78,1478.94c-1.06.89-1.59,2.19-1.59,3.9s.49,3.05,1.48,4.03c.99.98,2.38,1.47,4.17,1.47,1.59,0,2.85-.48,3.78-1.43.93-.95,1.39-2.24,1.39-3.85s-.45-3-1.35-3.98c-.9-.98-2.21-1.47-3.95-1.47-1.56,0-2.87.45-3.93,1.34Z"/>
        </g>
        <rect class="cls-5" x="555.35" y="1511.27" width="810.31" height="65.64"/>
        <g>
          <path class="cls-4" d="M584.28,1558.27c-1.72-.72-3.08-1.76-4.08-3.12-1-1.36-1.52-2.96-1.54-4.81h6.62c.09,1.24.54,2.22,1.35,2.94.81.72,1.92,1.08,3.33,1.08s2.58-.34,3.4-1.02,1.24-1.57,1.24-2.66c0-.89-.28-1.63-.84-2.21-.56-.58-1.26-1.03-2.1-1.36s-2-.7-3.47-1.1c-2-.58-3.63-1.15-4.88-1.71-1.25-.56-2.33-1.42-3.22-2.56-.9-1.14-1.35-2.66-1.35-4.57,0-1.79.46-3.35,1.37-4.68.91-1.33,2.19-2.34,3.84-3.05,1.65-.71,3.53-1.06,5.65-1.06,3.18,0,5.76.76,7.75,2.27,1.99,1.52,3.08,3.63,3.29,6.34h-6.8c-.06-1.04-.51-1.9-1.35-2.58-.84-.68-1.95-1.02-3.33-1.02-1.21,0-2.17.3-2.89.91-.72.61-1.08,1.49-1.08,2.64,0,.81.27,1.48.82,2.01.54.53,1.22.97,2.03,1.3.81.33,1.95.71,3.42,1.15,2,.58,3.63,1.15,4.9,1.73,1.26.58,2.35,1.44,3.27,2.6.91,1.16,1.37,2.67,1.37,4.55,0,1.62-.43,3.12-1.28,4.5-.85,1.39-2.11,2.49-3.75,3.31-1.65.82-3.61,1.23-5.87,1.23s-4.08-.36-5.81-1.08Z"/>
          <path class="cls-4" d="M640.24,1535.05l-7.15,23.99h-6.67l-4.46-16.76-4.46,16.76h-6.71l-7.2-23.99h6.27l4.33,18.27,4.68-18.27h6.53l4.59,18.23,4.33-18.23h5.92Z"/>
          <path class="cls-4" d="M644.01,1531.18c-.72-.68-1.08-1.52-1.08-2.53s.36-1.85,1.08-2.53c.72-.68,1.63-1.02,2.72-1.02s1.99.34,2.71,1.02c.72.68,1.08,1.52,1.08,2.53s-.36,1.86-1.08,2.53c-.72.68-1.63,1.02-2.71,1.02s-2-.34-2.72-1.02ZM649.77,1535.05v23.99h-6.18v-23.99h6.18Z"/>
          <path class="cls-4" d="M676.49,1537.41c1.8,1.8,2.69,4.32,2.69,7.56v14.07h-6.18v-13.25c0-1.91-.49-3.37-1.46-4.4-.97-1.02-2.3-1.54-3.97-1.54s-3.05.51-4.04,1.54c-.99,1.03-1.48,2.49-1.48,4.4v13.25h-6.18v-23.99h6.18v2.99c.82-1.04,1.88-1.86,3.16-2.45,1.28-.59,2.69-.89,4.22-.89,2.91,0,5.27.9,7.06,2.71Z"/>
          <path class="cls-4" d="M699.45,1535.72c1.38.71,2.47,1.62,3.27,2.75v-3.42h6.23v24.16c0,2.22-.46,4.21-1.37,5.96-.91,1.75-2.28,3.13-4.11,4.16-1.83,1.02-4.03,1.54-6.62,1.54-3.47,0-6.32-.79-8.54-2.38-2.22-1.59-3.48-3.75-3.78-6.5h6.14c.32,1.1,1.02,1.97,2.1,2.62,1.07.65,2.38.97,3.91.97,1.79,0,3.25-.53,4.37-1.58,1.12-1.05,1.68-2.65,1.68-4.79v-3.72c-.79,1.13-1.89,2.06-3.29,2.81-1.4.75-3,1.13-4.79,1.13-2.06,0-3.95-.52-5.65-1.56-1.71-1.04-3.05-2.5-4.04-4.4-.99-1.89-1.48-4.06-1.48-6.52s.49-4.58,1.48-6.45c.99-1.88,2.32-3.32,4.02-4.33,1.69-1.01,3.58-1.52,5.67-1.52,1.82,0,3.43.35,4.81,1.06ZM701.83,1543.26c-.59-1.05-1.38-1.86-2.38-2.42-1-.56-2.08-.84-3.22-.84s-2.21.27-3.18.82-1.76,1.35-2.36,2.4-.91,2.3-.91,3.75.3,2.71.91,3.79,1.4,1.91,2.38,2.49c.99.58,2.04.87,3.16.87s2.22-.28,3.22-.84c1-.56,1.79-1.37,2.38-2.42s.88-2.32.88-3.79-.29-2.73-.88-3.79Z"/>
        </g>
        <g>
          <path class="cls-4" d="M910.52,1533.06v-5.59h10.64v31.57h-6.36v-25.98h-4.28Z"/>
          <path class="cls-4" d="M942.42,1532.63c-.72-.61-1.76-.91-3.11-.91-2.03,0-3.53.8-4.48,2.4-.96,1.6-1.45,4.21-1.48,7.82.71-1.15,1.74-2.06,3.09-2.71s2.83-.97,4.42-.97c1.91,0,3.61.41,5.08,1.21,1.47.81,2.62,1.99,3.44,3.53.82,1.54,1.24,3.4,1.24,5.56,0,2.05-.42,3.88-1.26,5.48s-2.07,2.85-3.69,3.75c-1.62.9-3.55,1.34-5.78,1.34-3.06,0-5.47-.66-7.22-1.99-1.75-1.33-2.97-3.18-3.67-5.57-.69-2.38-1.04-5.32-1.04-8.81,0-5.28.93-9.27,2.78-11.97s4.78-4.05,8.79-4.05c3.09,0,5.49.82,7.2,2.47,1.71,1.65,2.69,3.7,2.96,6.15h-5.74c-.29-1.21-.8-2.12-1.52-2.73ZM935.51,1544.58c-1.06.89-1.59,2.19-1.59,3.9s.49,3.05,1.48,4.03c.99.98,2.38,1.47,4.17,1.47,1.59,0,2.85-.48,3.78-1.43.93-.95,1.39-2.24,1.39-3.85s-.45-3-1.35-3.98c-.9-.98-2.21-1.47-3.95-1.47-1.56,0-2.87.45-3.93,1.34Z"/>
          <path class="cls-4" d="M956.48,1535.36c0-1.56.4-2.98,1.21-4.27.81-1.28,2.03-2.31,3.67-3.07s3.63-1.15,5.98-1.15,4.35.38,5.98,1.15,2.85,1.79,3.67,3.07c.81,1.29,1.21,2.71,1.21,4.27s-.4,2.98-1.19,4.18-1.85,2.13-3.18,2.79c1.62.69,2.88,1.7,3.8,3.03.91,1.33,1.37,2.9,1.37,4.72,0,1.96-.51,3.67-1.52,5.13-1.02,1.46-2.41,2.58-4.17,3.36-1.77.78-3.75,1.17-5.96,1.17s-4.19-.39-5.94-1.17c-1.75-.78-3.13-1.9-4.15-3.36-1.02-1.46-1.52-3.17-1.52-5.13,0-1.82.46-3.4,1.37-4.74.91-1.34,2.18-2.35,3.8-3.01-2.94-1.5-4.42-3.83-4.42-6.97ZM963.26,1546.23c-1.04.84-1.57,2.04-1.57,3.59,0,1.44.51,2.62,1.52,3.53,1.02.91,2.39,1.36,4.13,1.36s3.11-.46,4.11-1.39c1-.92,1.5-2.09,1.5-3.51,0-1.53-.52-2.72-1.55-3.57s-2.38-1.28-4.06-1.28-3.04.42-4.08,1.26ZM970.9,1532.93c-.87-.78-2.05-1.17-3.55-1.17s-2.64.39-3.51,1.17c-.87.78-1.3,1.89-1.3,3.33,0,1.3.45,2.34,1.35,3.12.9.78,2.05,1.17,3.47,1.17s2.58-.4,3.49-1.19c.91-.79,1.37-1.84,1.37-3.14,0-1.41-.43-2.51-1.3-3.29Z"/>
        </g>
        <g>
          <path class="cls-4" d="M1204.47,1533.06v-5.59h10.64v31.57h-6.36v-25.98h-4.28Z"/>
          <path class="cls-4" d="M1241.69,1532.07l-11.74,26.98h-6.27l11.83-26.29h-15.1v-5.2h21.28v4.5Z"/>
          <path class="cls-4" d="M1260.56,1532.63c-.72-.61-1.76-.91-3.11-.91-2.03,0-3.53.8-4.48,2.4-.96,1.6-1.45,4.21-1.48,7.82.71-1.15,1.74-2.06,3.09-2.71s2.83-.97,4.42-.97c1.91,0,3.61.41,5.08,1.21,1.47.81,2.62,1.99,3.44,3.53.82,1.54,1.24,3.4,1.24,5.56,0,2.05-.42,3.88-1.26,5.48s-2.07,2.85-3.69,3.75c-1.62.9-3.55,1.34-5.78,1.34-3.06,0-5.47-.66-7.22-1.99-1.75-1.33-2.97-3.18-3.67-5.57-.69-2.38-1.04-5.32-1.04-8.81,0-5.28.93-9.27,2.78-11.97s4.78-4.05,8.79-4.05c3.09,0,5.49.82,7.2,2.47,1.71,1.65,2.69,3.7,2.96,6.15h-5.74c-.29-1.21-.8-2.12-1.52-2.73ZM1253.65,1544.58c-1.06.89-1.59,2.19-1.59,3.9s.49,3.05,1.48,4.03c.99.98,2.38,1.47,4.17,1.47,1.59,0,2.85-.48,3.78-1.43.93-.95,1.39-2.24,1.39-3.85s-.45-3-1.35-3.98c-.9-.98-2.21-1.47-3.95-1.47-1.56,0-2.87.45-3.93,1.34Z"/>
        </g>
        <rect class="cls-3" x="555.35" y="1576.91" width="810.31" height="65.64"/>
        <g>
          <path class="cls-4" d="M620.63,1594.46l-8.61,30.23h-7.29l-5.78-21.52-6.05,21.52-7.24.04-8.3-30.27h6.62l5.43,23.47,6.27-23.47h6.89l5.92,23.34,5.47-23.34h6.67Z"/>
          <path class="cls-4" d="M624.54,1606.15c.99-1.88,2.32-3.32,4.02-4.33,1.69-1.01,3.58-1.52,5.67-1.52,1.82,0,3.42.36,4.79,1.08,1.37.72,2.46,1.63,3.29,2.73v-3.42h6.23v23.99h-6.23v-3.51c-.79,1.13-1.89,2.06-3.29,2.79-1.4.74-3.01,1.1-4.83,1.1-2.06,0-3.94-.52-5.63-1.56-1.69-1.04-3.03-2.5-4.02-4.4-.99-1.89-1.48-4.06-1.48-6.52s.49-4.58,1.48-6.45ZM641.43,1608.9c-.59-1.05-1.38-1.86-2.38-2.42-1-.56-2.08-.84-3.22-.84s-2.21.27-3.18.82-1.76,1.35-2.36,2.4-.91,2.3-.91,3.75.3,2.71.91,3.79,1.4,1.91,2.38,2.49c.99.58,2.04.87,3.16.87s2.22-.28,3.22-.84c1-.56,1.79-1.37,2.38-2.42s.88-2.32.88-3.79-.29-2.73-.88-3.79Z"/>
          <path class="cls-4" d="M660.77,1592.64v32.05h-6.18v-32.05h6.18Z"/>
          <path class="cls-4" d="M674.06,1605.67v11.61c0,.81.2,1.39.6,1.75.4.36,1.07.54,2.01.54h2.87v5.11h-3.88c-5.21,0-7.82-2.48-7.82-7.45v-11.56h-2.91v-4.98h2.91v-5.93h6.23v5.93h5.47v4.98h-5.47Z"/>
          <path class="cls-4" d="M689.64,1619.7h10.91v4.98h-17.93v-4.89l10.68-14.12h-10.64v-4.98h17.75v4.89l-10.77,14.12Z"/>
        </g>
        <g>
          <path class="cls-4" d="M928.27,1618.73c.84.68,1.96,1.02,3.38,1.02,1.83,0,3.15-.74,3.97-2.23.82-1.49,1.24-3.99,1.24-7.51-.68.92-1.63,1.65-2.85,2.17s-2.54.78-3.95.78c-1.88,0-3.58-.38-5.1-1.15-1.52-.76-2.72-1.91-3.6-3.42s-1.32-3.36-1.32-5.52c0-3.2.97-5.75,2.91-7.64,1.94-1.89,4.59-2.84,7.95-2.84,4.18,0,7.13,1.31,8.85,3.94s2.58,6.58,2.58,11.87c0,3.75-.33,6.83-.99,9.22-.66,2.4-1.79,4.22-3.4,5.46s-3.79,1.86-6.56,1.86c-2.18,0-4.03-.41-5.56-1.23-1.53-.82-2.7-1.91-3.51-3.25-.81-1.34-1.27-2.82-1.39-4.44h5.74c.23,1.27.77,2.25,1.61,2.92ZM934.96,1606.62c.88-.92,1.33-2.17,1.33-3.72,0-1.7-.46-3.02-1.39-3.96-.93-.94-2.18-1.41-3.77-1.41s-2.85.48-3.78,1.45c-.93.97-1.39,2.25-1.39,3.83s.45,2.78,1.35,3.75c.9.97,2.24,1.45,4.04,1.45,1.53,0,2.74-.46,3.62-1.39Z"/>
          <path class="cls-4" d="M949.9,1596.75c1.84-2.83,4.89-4.24,9.16-4.24s7.32,1.41,9.16,4.24c1.84,2.83,2.76,6.74,2.76,11.74s-.92,8.96-2.76,11.82c-1.84,2.86-4.89,4.29-9.16,4.29s-7.32-1.43-9.16-4.29c-1.84-2.86-2.76-6.8-2.76-11.82s.92-8.91,2.76-11.74ZM964.47,1603.09c-.28-1.46-.84-2.65-1.68-3.57s-2.08-1.39-3.73-1.39-2.89.46-3.73,1.39-1.4,2.12-1.68,3.57c-.28,1.46-.42,3.25-.42,5.39s.13,4.04.4,5.52c.27,1.49.82,2.68,1.68,3.59.85.91,2.1,1.36,3.75,1.36s2.9-.45,3.75-1.36c.85-.91,1.41-2.11,1.68-3.59.27-1.49.4-3.33.4-5.52s-.14-3.93-.42-5.39Z"/>
        </g>
        <g>
          <path class="cls-4" d="M1220.25,1618.73c.84.68,1.96,1.02,3.38,1.02,1.83,0,3.15-.74,3.97-2.23.82-1.49,1.24-3.99,1.24-7.51-.68.92-1.63,1.65-2.85,2.17s-2.54.78-3.95.78c-1.88,0-3.58-.38-5.1-1.15-1.52-.76-2.72-1.91-3.6-3.42s-1.32-3.36-1.32-5.52c0-3.2.97-5.75,2.91-7.64,1.94-1.89,4.59-2.84,7.95-2.84,4.18,0,7.13,1.31,8.85,3.94s2.58,6.58,2.58,11.87c0,3.75-.33,6.83-.99,9.22-.66,2.4-1.79,4.22-3.4,5.46s-3.79,1.86-6.56,1.86c-2.18,0-4.03-.41-5.56-1.23-1.53-.82-2.7-1.91-3.51-3.25-.81-1.34-1.27-2.82-1.39-4.44h5.74c.23,1.27.77,2.25,1.61,2.92ZM1226.94,1606.62c.88-.92,1.33-2.17,1.33-3.72,0-1.7-.46-3.02-1.39-3.96-.93-.94-2.18-1.41-3.77-1.41s-2.85.48-3.78,1.45c-.93.97-1.39,2.25-1.39,3.83s.45,2.78,1.35,3.75c.9.97,2.24,1.45,4.04,1.45,1.53,0,2.74-.46,3.62-1.39Z"/>
          <path class="cls-4" d="M1254.29,1598.27c-.72-.61-1.76-.91-3.11-.91-2.03,0-3.53.8-4.48,2.4-.96,1.6-1.45,4.21-1.48,7.82.71-1.15,1.74-2.06,3.09-2.71s2.83-.97,4.42-.97c1.91,0,3.61.41,5.08,1.21,1.47.81,2.62,1.99,3.44,3.53.82,1.54,1.24,3.4,1.24,5.56,0,2.05-.42,3.88-1.26,5.48s-2.07,2.85-3.69,3.75c-1.62.9-3.55,1.34-5.78,1.34-3.06,0-5.47-.66-7.22-1.99-1.75-1.33-2.97-3.18-3.67-5.57-.69-2.38-1.04-5.32-1.04-8.81,0-5.28.93-9.27,2.78-11.97s4.78-4.05,8.79-4.05c3.09,0,5.49.82,7.2,2.47,1.71,1.65,2.69,3.7,2.96,6.15h-5.74c-.29-1.21-.8-2.12-1.52-2.73ZM1247.38,1610.22c-1.06.89-1.59,2.19-1.59,3.9s.49,3.05,1.48,4.03c.99.98,2.38,1.47,4.17,1.47,1.59,0,2.85-.48,3.78-1.43.93-.95,1.39-2.24,1.39-3.85s-.45-3-1.35-3.98c-.9-.98-2.21-1.47-3.95-1.47-1.56,0-2.87.45-3.93,1.34Z"/>
        </g>
        <rect class="cls-5" x="555.35" y="1642.55" width="810.31" height="65.64"/>
        <g>
          <path class="cls-4" d="M579.99,1667.17c1.37-2.35,3.24-4.19,5.61-5.5,2.37-1.31,5.03-1.97,7.97-1.97,3.44,0,6.46.87,9.05,2.6,2.59,1.73,4.4,4.13,5.43,7.19h-7.11c-.71-1.44-1.7-2.53-2.98-3.25-1.28-.72-2.76-1.08-4.44-1.08-1.8,0-3.39.41-4.79,1.23-1.4.82-2.49,1.99-3.27,3.49-.78,1.5-1.17,3.26-1.17,5.28s.39,3.75,1.17,5.26c.78,1.52,1.87,2.69,3.27,3.51,1.4.82,2.99,1.23,4.79,1.23,1.68,0,3.16-.37,4.44-1.1s2.27-1.83,2.98-3.27h7.11c-1.03,3.09-2.83,5.49-5.41,7.21s-5.6,2.58-9.07,2.58c-2.94,0-5.6-.66-7.97-1.97-2.37-1.31-4.24-3.14-5.61-5.48-1.37-2.34-2.05-5-2.05-7.97s.68-5.64,2.05-7.99Z"/>
          <path class="cls-4" d="M632.07,1667.17c1.44.79,2.57,1.96,3.38,3.51.81,1.54,1.21,3.4,1.21,5.56v14.07h-6.18v-13.25c0-1.91-.49-3.37-1.46-4.4-.97-1.02-2.3-1.54-3.97-1.54s-3.05.51-4.04,1.54c-.99,1.03-1.48,2.49-1.48,4.4v13.25h-6.18v-32.05h6.18v11.04c.79-1.04,1.85-1.86,3.18-2.45,1.33-.59,2.8-.89,4.42-.89,1.85,0,3.5.4,4.94,1.19Z"/>
          <path class="cls-4" d="M642.42,1671.79c.99-1.88,2.32-3.32,4.02-4.33,1.69-1.01,3.58-1.52,5.67-1.52,1.82,0,3.42.36,4.79,1.08,1.37.72,2.46,1.63,3.29,2.73v-3.42h6.23v23.99h-6.23v-3.51c-.79,1.13-1.89,2.06-3.29,2.79-1.4.74-3.01,1.1-4.83,1.1-2.06,0-3.94-.52-5.63-1.56-1.69-1.04-3.03-2.5-4.02-4.4-.99-1.89-1.48-4.06-1.48-6.52s.49-4.58,1.48-6.45ZM659.31,1674.54c-.59-1.05-1.38-1.86-2.38-2.42-1-.56-2.08-.84-3.22-.84s-2.21.27-3.18.82-1.76,1.35-2.36,2.4-.91,2.3-.91,3.75.3,2.71.91,3.79,1.4,1.91,2.38,2.49c.99.58,2.04.87,3.16.87s2.22-.28,3.22-.84c1-.56,1.79-1.37,2.38-2.42s.88-2.32.88-3.79-.29-2.73-.88-3.79Z"/>
          <path class="cls-4" d="M694.04,1667.17c1.37-2.35,3.24-4.19,5.61-5.5,2.37-1.31,5.03-1.97,7.97-1.97,3.44,0,6.46.87,9.05,2.6,2.59,1.73,4.4,4.13,5.43,7.19h-7.11c-.71-1.44-1.7-2.53-2.98-3.25-1.28-.72-2.76-1.08-4.44-1.08-1.8,0-3.39.41-4.79,1.23-1.4.82-2.49,1.99-3.27,3.49-.78,1.5-1.17,3.26-1.17,5.28s.39,3.75,1.17,5.26c.78,1.52,1.87,2.69,3.27,3.51,1.4.82,2.99,1.23,4.79,1.23,1.68,0,3.16-.37,4.44-1.1s2.27-1.83,2.98-3.27h7.11c-1.03,3.09-2.83,5.49-5.41,7.21s-5.6,2.58-9.07,2.58c-2.94,0-5.6-.66-7.97-1.97-2.37-1.31-4.24-3.14-5.61-5.48-1.37-2.34-2.05-5-2.05-7.97s.68-5.64,2.05-7.99Z"/>
          <path class="cls-4" d="M746.11,1667.17c1.44.79,2.57,1.96,3.38,3.51.81,1.54,1.21,3.4,1.21,5.56v14.07h-6.18v-13.25c0-1.91-.49-3.37-1.46-4.4-.97-1.02-2.3-1.54-3.97-1.54s-3.05.51-4.04,1.54c-.99,1.03-1.48,2.49-1.48,4.4v13.25h-6.18v-32.05h6.18v11.04c.79-1.04,1.85-1.86,3.18-2.45,1.33-.59,2.8-.89,4.42-.89,1.85,0,3.5.4,4.94,1.19Z"/>
          <path class="cls-4" d="M756.47,1671.79c.99-1.88,2.32-3.32,4.02-4.33,1.69-1.01,3.58-1.52,5.67-1.52,1.82,0,3.42.36,4.79,1.08,1.37.72,2.46,1.63,3.29,2.73v-3.42h6.23v23.99h-6.23v-3.51c-.79,1.13-1.89,2.06-3.29,2.79-1.4.74-3.01,1.1-4.83,1.1-2.06,0-3.94-.52-5.63-1.56-1.69-1.04-3.03-2.5-4.02-4.4-.99-1.89-1.48-4.06-1.48-6.52s.49-4.58,1.48-6.45ZM773.35,1674.54c-.59-1.05-1.38-1.86-2.38-2.42-1-.56-2.08-.84-3.22-.84s-2.21.27-3.18.82-1.76,1.35-2.36,2.4-.91,2.3-.91,3.75.3,2.71.91,3.79,1.4,1.91,2.38,2.49c.99.58,2.04.87,3.16.87s2.22-.28,3.22-.84c1-.56,1.79-1.37,2.38-2.42s.88-2.32.88-3.79-.29-2.73-.88-3.79Z"/>
        </g>
        <g>
          <path class="cls-4" d="M918.18,1664.34v-5.59h10.64v31.57h-6.36v-25.98h-4.28Z"/>
          <path class="cls-4" d="M934.17,1664.34v-5.59h10.64v31.57h-6.36v-25.98h-4.28Z"/>
          <path class="cls-4" d="M952.84,1683.48c2.83-2.31,5.08-4.24,6.75-5.78,1.68-1.54,3.08-3.15,4.19-4.83,1.12-1.67,1.68-3.32,1.68-4.94,0-1.47-.35-2.63-1.06-3.46-.71-.84-1.8-1.26-3.27-1.26s-2.6.48-3.4,1.45c-.79.97-1.21,2.29-1.24,3.96h-6c.12-3.46,1.17-6.09,3.16-7.88,1.99-1.79,4.51-2.68,7.57-2.68,3.36,0,5.93.87,7.73,2.62,1.79,1.75,2.69,4.05,2.69,6.91,0,2.25-.62,4.4-1.85,6.45-1.24,2.05-2.65,3.83-4.24,5.35-1.59,1.52-3.66,3.34-6.22,5.48h13.02v5.02h-21.81v-4.5l2.3-1.91Z"/>
        </g>
        <g>
          <path class="cls-4" d="M1203.83,1664.34v-5.59h10.64v31.57h-6.36v-25.98h-4.28Z"/>
          <path class="cls-4" d="M1222.51,1683.48c2.83-2.31,5.08-4.24,6.75-5.78,1.68-1.54,3.08-3.15,4.19-4.83,1.12-1.67,1.68-3.32,1.68-4.94,0-1.47-.35-2.63-1.06-3.46-.71-.84-1.8-1.26-3.27-1.26s-2.6.48-3.4,1.45c-.79.97-1.21,2.29-1.24,3.96h-6c.12-3.46,1.17-6.09,3.16-7.88,1.99-1.79,4.51-2.68,7.57-2.68,3.36,0,5.93.87,7.73,2.62,1.79,1.75,2.69,4.05,2.69,6.91,0,2.25-.62,4.4-1.85,6.45-1.24,2.05-2.65,3.83-4.24,5.35-1.59,1.52-3.66,3.34-6.22,5.48h13.02v5.02h-21.81v-4.5l2.3-1.91Z"/>
          <path class="cls-4" d="M1246.88,1666.63c0-1.56.4-2.98,1.21-4.27.81-1.28,2.03-2.31,3.67-3.07s3.63-1.15,5.98-1.15,4.35.38,5.98,1.15,2.85,1.79,3.67,3.07c.81,1.29,1.21,2.71,1.21,4.27s-.4,2.98-1.19,4.18-1.85,2.13-3.18,2.79c1.62.69,2.88,1.7,3.8,3.03.91,1.33,1.37,2.9,1.37,4.72,0,1.96-.51,3.67-1.52,5.13-1.02,1.46-2.41,2.58-4.17,3.36-1.77.78-3.75,1.17-5.96,1.17s-4.19-.39-5.94-1.17c-1.75-.78-3.13-1.9-4.15-3.36-1.02-1.46-1.52-3.17-1.52-5.13,0-1.82.46-3.4,1.37-4.74.91-1.34,2.18-2.35,3.8-3.01-2.94-1.5-4.42-3.83-4.42-6.97ZM1253.66,1677.5c-1.04.84-1.57,2.04-1.57,3.59,0,1.44.51,2.62,1.52,3.53,1.02.91,2.39,1.36,4.13,1.36s3.11-.46,4.11-1.39c1-.92,1.5-2.09,1.5-3.51,0-1.53-.52-2.72-1.55-3.57s-2.38-1.28-4.06-1.28-3.04.42-4.08,1.26ZM1261.29,1664.21c-.87-.78-2.05-1.17-3.55-1.17s-2.64.39-3.51,1.17c-.87.78-1.3,1.89-1.3,3.33,0,1.3.45,2.34,1.35,3.12.9.78,2.05,1.17,3.47,1.17s2.58-.4,3.49-1.19c.91-.79,1.37-1.84,1.37-3.14,0-1.41-.43-2.51-1.3-3.29Z"/>
        </g>
      </g>
    </g>
  </g>
</svg>